<mxfile host="Electron" agent="Mozilla/5.0 (Windows NT 10.0; Win64; x64) AppleWebKit/537.36 (KHTML, like Gecko) draw.io/27.0.9 Chrome/134.0.6998.205 Electron/35.4.0 Safari/537.36" version="27.0.9">
  <diagram id="C5RBs43oDa-KdzZeNtuy" name="Page-1">
    <mxGraphModel dx="1858" dy="632" grid="1" gridSize="10" guides="1" tooltips="1" connect="1" arrows="1" fold="1" page="1" pageScale="1" pageWidth="827" pageHeight="1169" math="0" shadow="0">
      <root>
        <mxCell id="WIyWlLk6GJQsqaUBKTNV-0" />
        <mxCell id="WIyWlLk6GJQsqaUBKTNV-1" parent="WIyWlLk6GJQsqaUBKTNV-0" />
        <mxCell id="WIyWlLk6GJQsqaUBKTNV-2" value="" style="rounded=0;html=1;jettySize=auto;orthogonalLoop=1;fontSize=11;endArrow=block;endFill=0;endSize=8;strokeWidth=1;shadow=0;labelBackgroundColor=none;edgeStyle=orthogonalEdgeStyle;" parent="WIyWlLk6GJQsqaUBKTNV-1" source="K2nZ_HlR3rmibXcBMbVg-0" target="WIyWlLk6GJQsqaUBKTNV-6" edge="1">
          <mxGeometry relative="1" as="geometry" />
        </mxCell>
        <mxCell id="WIyWlLk6GJQsqaUBKTNV-3" value="&lt;div style=&quot;color: rgb(171, 178, 191); background-color: rgb(40, 44, 52); font-size: 14px; line-height: 19px; white-space: pre;&quot;&gt;&lt;span style=&quot;color: #61afef;&quot;&gt;SavePageDataSheet&lt;/span&gt;&lt;/div&gt;" style="rounded=1;whiteSpace=wrap;html=1;fontSize=12;glass=0;strokeWidth=1;shadow=0;" parent="WIyWlLk6GJQsqaUBKTNV-1" vertex="1">
          <mxGeometry x="140" y="80" width="160" height="40" as="geometry" />
        </mxCell>
        <mxCell id="WIyWlLk6GJQsqaUBKTNV-4" value="Yes" style="rounded=0;html=1;jettySize=auto;orthogonalLoop=1;fontSize=11;endArrow=block;endFill=0;endSize=8;strokeWidth=1;shadow=0;labelBackgroundColor=none;edgeStyle=orthogonalEdgeStyle;" parent="WIyWlLk6GJQsqaUBKTNV-1" source="WIyWlLk6GJQsqaUBKTNV-7" target="WIyWlLk6GJQsqaUBKTNV-10" edge="1">
          <mxGeometry x="-1" y="73" relative="1" as="geometry">
            <mxPoint x="-53" y="-70" as="offset" />
          </mxGeometry>
        </mxCell>
        <mxCell id="WIyWlLk6GJQsqaUBKTNV-6" value="&lt;div style=&quot;color: rgb(171, 178, 191); background-color: rgb(40, 44, 52); font-size: 14px; line-height: 19px; white-space: pre;&quot;&gt;if&lt;/div&gt;&lt;div style=&quot;color: rgb(171, 178, 191); background-color: rgb(40, 44, 52); font-size: 14px; line-height: 19px; white-space: pre;&quot;&gt;sheet_key&lt;/div&gt;" style="rhombus;whiteSpace=wrap;html=1;shadow=0;fontFamily=Helvetica;fontSize=12;align=center;strokeWidth=1;spacing=6;spacingTop=-4;" parent="WIyWlLk6GJQsqaUBKTNV-1" vertex="1">
          <mxGeometry x="150" y="240" width="140" height="100" as="geometry" />
        </mxCell>
        <mxCell id="WIyWlLk6GJQsqaUBKTNV-8" value="No" style="rounded=0;html=1;jettySize=auto;orthogonalLoop=1;fontSize=11;endArrow=block;endFill=0;endSize=8;strokeWidth=1;shadow=0;labelBackgroundColor=none;edgeStyle=orthogonalEdgeStyle;" parent="WIyWlLk6GJQsqaUBKTNV-1" source="WIyWlLk6GJQsqaUBKTNV-10" target="WIyWlLk6GJQsqaUBKTNV-11" edge="1">
          <mxGeometry x="-1" y="179" relative="1" as="geometry">
            <mxPoint x="-19" y="-80" as="offset" />
          </mxGeometry>
        </mxCell>
        <mxCell id="WIyWlLk6GJQsqaUBKTNV-9" value="Yes" style="edgeStyle=orthogonalEdgeStyle;rounded=0;html=1;jettySize=auto;orthogonalLoop=1;fontSize=11;endArrow=block;endFill=0;endSize=8;strokeWidth=1;shadow=0;labelBackgroundColor=none;" parent="WIyWlLk6GJQsqaUBKTNV-1" source="WIyWlLk6GJQsqaUBKTNV-10" target="WIyWlLk6GJQsqaUBKTNV-12" edge="1">
          <mxGeometry x="-1" y="-117" relative="1" as="geometry">
            <mxPoint x="-80" y="-32" as="offset" />
          </mxGeometry>
        </mxCell>
        <mxCell id="WIyWlLk6GJQsqaUBKTNV-10" value="&lt;div style=&quot;color: rgb(171, 178, 191); background-color: rgb(40, 44, 52); font-size: 14px; line-height: 19px; white-space: pre;&quot;&gt;if&lt;/div&gt;&lt;div style=&quot;color: rgb(171, 178, 191); background-color: rgb(40, 44, 52); font-size: 14px; line-height: 19px; white-space: pre;&quot;&gt;user.is_authenticated&lt;/div&gt;" style="rhombus;whiteSpace=wrap;html=1;shadow=0;fontFamily=Helvetica;fontSize=12;align=center;strokeWidth=1;spacing=6;spacingTop=-4;" parent="WIyWlLk6GJQsqaUBKTNV-1" vertex="1">
          <mxGeometry x="120" y="460" width="200" height="130" as="geometry" />
        </mxCell>
        <mxCell id="K2nZ_HlR3rmibXcBMbVg-4" value="" style="edgeStyle=orthogonalEdgeStyle;rounded=0;orthogonalLoop=1;jettySize=auto;html=1;" edge="1" parent="WIyWlLk6GJQsqaUBKTNV-1" source="WIyWlLk6GJQsqaUBKTNV-11" target="K2nZ_HlR3rmibXcBMbVg-3">
          <mxGeometry relative="1" as="geometry" />
        </mxCell>
        <mxCell id="WIyWlLk6GJQsqaUBKTNV-11" value="&lt;div style=&quot;color: rgb(171, 178, 191); background-color: rgb(40, 44, 52); font-size: 14px; line-height: 19px; white-space: pre;&quot;&gt;make a LogEntry&lt;/div&gt;" style="rounded=1;whiteSpace=wrap;html=1;fontSize=12;glass=0;strokeWidth=1;shadow=0;" parent="WIyWlLk6GJQsqaUBKTNV-1" vertex="1">
          <mxGeometry x="160" y="640" width="120" height="40" as="geometry" />
        </mxCell>
        <mxCell id="WIyWlLk6GJQsqaUBKTNV-12" value="&lt;div style=&quot;color: rgb(171, 178, 191); background-color: rgb(40, 44, 52); font-size: 14px; line-height: 19px; white-space: pre;&quot;&gt;&lt;span style=&quot;color: #98c379;&quot;&gt;redirect to login&lt;/span&gt;&lt;/div&gt;" style="rounded=1;whiteSpace=wrap;html=1;fontSize=12;glass=0;strokeWidth=1;shadow=0;" parent="WIyWlLk6GJQsqaUBKTNV-1" vertex="1">
          <mxGeometry x="500" y="505" width="120" height="40" as="geometry" />
        </mxCell>
        <mxCell id="K2nZ_HlR3rmibXcBMbVg-1" value="" style="rounded=0;html=1;jettySize=auto;orthogonalLoop=1;fontSize=11;endArrow=block;endFill=0;endSize=8;strokeWidth=1;shadow=0;labelBackgroundColor=none;edgeStyle=orthogonalEdgeStyle;" edge="1" parent="WIyWlLk6GJQsqaUBKTNV-1" source="WIyWlLk6GJQsqaUBKTNV-3" target="K2nZ_HlR3rmibXcBMbVg-0">
          <mxGeometry relative="1" as="geometry">
            <mxPoint x="220" y="120" as="sourcePoint" />
            <mxPoint x="220" y="380" as="targetPoint" />
          </mxGeometry>
        </mxCell>
        <mxCell id="K2nZ_HlR3rmibXcBMbVg-0" value="&lt;div style=&quot;color: rgb(171, 178, 191); background-color: rgb(40, 44, 52); font-size: 14px; line-height: 19px; white-space: pre;&quot;&gt;sheet_key = get the sheet_key&lt;/div&gt;" style="rounded=1;whiteSpace=wrap;html=1;" vertex="1" parent="WIyWlLk6GJQsqaUBKTNV-1">
          <mxGeometry x="110" y="160" width="220" height="40" as="geometry" />
        </mxCell>
        <mxCell id="K2nZ_HlR3rmibXcBMbVg-2" value="" style="rounded=0;html=1;jettySize=auto;orthogonalLoop=1;fontSize=11;endArrow=block;endFill=0;endSize=8;strokeWidth=1;shadow=0;labelBackgroundColor=none;edgeStyle=orthogonalEdgeStyle;" edge="1" parent="WIyWlLk6GJQsqaUBKTNV-1" source="WIyWlLk6GJQsqaUBKTNV-6" target="WIyWlLk6GJQsqaUBKTNV-7">
          <mxGeometry x="-0.75" y="20" relative="1" as="geometry">
            <mxPoint as="offset" />
            <mxPoint x="220" y="340" as="sourcePoint" />
            <mxPoint x="220" y="500" as="targetPoint" />
          </mxGeometry>
        </mxCell>
        <mxCell id="WIyWlLk6GJQsqaUBKTNV-7" value="&lt;div style=&quot;color: rgb(171, 178, 191); background-color: rgb(40, 44, 52); font-size: 14px; line-height: 19px; white-space: pre;&quot;&gt;machineShow &lt;span style=&quot;color: #c678dd;&quot;&gt;=&lt;/span&gt; &lt;span style=&quot;color: #98c379;&quot;&gt;&quot;Yes&quot;&lt;/span&gt;&lt;/div&gt;" style="rounded=1;whiteSpace=wrap;html=1;fontSize=12;glass=0;strokeWidth=1;shadow=0;" parent="WIyWlLk6GJQsqaUBKTNV-1" vertex="1">
          <mxGeometry x="130" y="390" width="180" height="40" as="geometry" />
        </mxCell>
        <mxCell id="K2nZ_HlR3rmibXcBMbVg-6" value="" style="edgeStyle=orthogonalEdgeStyle;rounded=0;orthogonalLoop=1;jettySize=auto;html=1;" edge="1" parent="WIyWlLk6GJQsqaUBKTNV-1" source="K2nZ_HlR3rmibXcBMbVg-3" target="K2nZ_HlR3rmibXcBMbVg-5">
          <mxGeometry relative="1" as="geometry" />
        </mxCell>
        <mxCell id="K2nZ_HlR3rmibXcBMbVg-3" value="&lt;div style=&quot;color: rgb(171, 178, 191); background-color: rgb(40, 44, 52); font-size: 14px; line-height: 19px; white-space: pre;&quot;&gt;user_company &lt;span style=&quot;color: #c678dd;&quot;&gt;=&lt;/span&gt; &lt;span style=&quot;color: #d19a66;&quot;&gt;None&lt;/span&gt;&lt;/div&gt;" style="whiteSpace=wrap;html=1;rounded=1;glass=0;strokeWidth=1;shadow=0;" vertex="1" parent="WIyWlLk6GJQsqaUBKTNV-1">
          <mxGeometry x="140" y="730" width="160" height="40" as="geometry" />
        </mxCell>
        <mxCell id="K2nZ_HlR3rmibXcBMbVg-8" value="" style="edgeStyle=orthogonalEdgeStyle;rounded=0;orthogonalLoop=1;jettySize=auto;html=1;" edge="1" parent="WIyWlLk6GJQsqaUBKTNV-1" source="K2nZ_HlR3rmibXcBMbVg-5" target="K2nZ_HlR3rmibXcBMbVg-7">
          <mxGeometry relative="1" as="geometry" />
        </mxCell>
        <mxCell id="K2nZ_HlR3rmibXcBMbVg-9" value="yes" style="edgeLabel;html=1;align=center;verticalAlign=middle;resizable=0;points=[];" vertex="1" connectable="0" parent="K2nZ_HlR3rmibXcBMbVg-8">
          <mxGeometry x="-0.3429" y="1" relative="1" as="geometry">
            <mxPoint x="-31" as="offset" />
          </mxGeometry>
        </mxCell>
        <mxCell id="K2nZ_HlR3rmibXcBMbVg-19" style="edgeStyle=orthogonalEdgeStyle;rounded=0;orthogonalLoop=1;jettySize=auto;html=1;exitX=1;exitY=0.5;exitDx=0;exitDy=0;" edge="1" parent="WIyWlLk6GJQsqaUBKTNV-1" source="K2nZ_HlR3rmibXcBMbVg-5">
          <mxGeometry relative="1" as="geometry">
            <mxPoint x="220" y="1318" as="targetPoint" />
            <Array as="points">
              <mxPoint x="660" y="890" />
              <mxPoint x="660" y="1310" />
              <mxPoint x="221" y="1310" />
            </Array>
          </mxGeometry>
        </mxCell>
        <mxCell id="K2nZ_HlR3rmibXcBMbVg-5" value="&lt;div style=&quot;color: rgb(171, 178, 191); background-color: rgb(40, 44, 52); font-size: 14px; line-height: 19px; white-space: pre;&quot;&gt;if&lt;/div&gt;&lt;div style=&quot;color: rgb(171, 178, 191); background-color: rgb(40, 44, 52); font-size: 14px; line-height: 19px; white-space: pre;&quot;&gt;user.is_authenticated&lt;/div&gt;" style="rhombus;whiteSpace=wrap;html=1;rounded=1;glass=0;strokeWidth=1;shadow=0;" vertex="1" parent="WIyWlLk6GJQsqaUBKTNV-1">
          <mxGeometry x="110" y="830" width="220" height="120" as="geometry" />
        </mxCell>
        <mxCell id="K2nZ_HlR3rmibXcBMbVg-11" value="" style="edgeStyle=orthogonalEdgeStyle;rounded=0;orthogonalLoop=1;jettySize=auto;html=1;" edge="1" parent="WIyWlLk6GJQsqaUBKTNV-1" source="K2nZ_HlR3rmibXcBMbVg-7" target="K2nZ_HlR3rmibXcBMbVg-10">
          <mxGeometry relative="1" as="geometry" />
        </mxCell>
        <mxCell id="K2nZ_HlR3rmibXcBMbVg-14" style="edgeStyle=orthogonalEdgeStyle;rounded=0;orthogonalLoop=1;jettySize=auto;html=1;exitX=1;exitY=0.5;exitDx=0;exitDy=0;" edge="1" parent="WIyWlLk6GJQsqaUBKTNV-1" source="K2nZ_HlR3rmibXcBMbVg-7" target="K2nZ_HlR3rmibXcBMbVg-13">
          <mxGeometry relative="1" as="geometry" />
        </mxCell>
        <mxCell id="K2nZ_HlR3rmibXcBMbVg-7" value="&lt;div style=&quot;color: rgb(171, 178, 191); background-color: rgb(40, 44, 52); font-size: 14px; line-height: 19px; white-space: pre;&quot;&gt;&lt;span style=&quot;color: #c678dd;&quot;&gt;try &lt;/span&gt;&lt;/div&gt;&lt;div style=&quot;color: rgb(171, 178, 191); background-color: rgb(40, 44, 52); font-size: 14px; line-height: 19px; white-space: pre;&quot;&gt;&lt;div style=&quot;line-height: 19px;&quot;&gt;UserCompany Exist&lt;/div&gt;&lt;/div&gt;" style="rhombus;whiteSpace=wrap;html=1;rounded=1;glass=0;strokeWidth=1;shadow=0;" vertex="1" parent="WIyWlLk6GJQsqaUBKTNV-1">
          <mxGeometry x="100" y="1020" width="240" height="110" as="geometry" />
        </mxCell>
        <mxCell id="K2nZ_HlR3rmibXcBMbVg-17" value="" style="edgeStyle=orthogonalEdgeStyle;rounded=0;orthogonalLoop=1;jettySize=auto;html=1;" edge="1" parent="WIyWlLk6GJQsqaUBKTNV-1" source="K2nZ_HlR3rmibXcBMbVg-10" target="K2nZ_HlR3rmibXcBMbVg-16">
          <mxGeometry relative="1" as="geometry" />
        </mxCell>
        <mxCell id="K2nZ_HlR3rmibXcBMbVg-10" value="&lt;div style=&quot;color: rgb(171, 178, 191); background-color: rgb(40, 44, 52); font-size: 14px; line-height: 19px; white-space: pre;&quot;&gt;user_company = companmy name&lt;/div&gt;" style="rounded=1;whiteSpace=wrap;html=1;glass=0;strokeWidth=1;shadow=0;" vertex="1" parent="WIyWlLk6GJQsqaUBKTNV-1">
          <mxGeometry x="100" y="1190" width="240" height="60" as="geometry" />
        </mxCell>
        <mxCell id="K2nZ_HlR3rmibXcBMbVg-12" value="yes" style="text;html=1;align=center;verticalAlign=middle;resizable=0;points=[];autosize=1;strokeColor=none;fillColor=none;" vertex="1" parent="WIyWlLk6GJQsqaUBKTNV-1">
          <mxGeometry x="170" y="1138" width="40" height="30" as="geometry" />
        </mxCell>
        <mxCell id="K2nZ_HlR3rmibXcBMbVg-18" style="edgeStyle=orthogonalEdgeStyle;rounded=0;orthogonalLoop=1;jettySize=auto;html=1;exitX=1;exitY=0.5;exitDx=0;exitDy=0;" edge="1" parent="WIyWlLk6GJQsqaUBKTNV-1" source="K2nZ_HlR3rmibXcBMbVg-13">
          <mxGeometry relative="1" as="geometry">
            <mxPoint x="220" y="1290" as="targetPoint" />
            <Array as="points">
              <mxPoint x="590" y="1075" />
              <mxPoint x="590" y="1290" />
            </Array>
          </mxGeometry>
        </mxCell>
        <mxCell id="K2nZ_HlR3rmibXcBMbVg-13" value="&lt;div style=&quot;color: rgb(171, 178, 191); background-color: rgb(40, 44, 52); font-size: 14px; line-height: 19px; white-space: pre;&quot;&gt;user_company = None&lt;/div&gt;" style="rounded=1;whiteSpace=wrap;html=1;glass=0;strokeWidth=1;shadow=0;" vertex="1" parent="WIyWlLk6GJQsqaUBKTNV-1">
          <mxGeometry x="400" y="1045" width="170" height="60" as="geometry" />
        </mxCell>
        <mxCell id="K2nZ_HlR3rmibXcBMbVg-15" value="No" style="text;html=1;align=center;verticalAlign=middle;resizable=0;points=[];autosize=1;strokeColor=none;fillColor=none;" vertex="1" parent="WIyWlLk6GJQsqaUBKTNV-1">
          <mxGeometry x="340" y="1038" width="40" height="30" as="geometry" />
        </mxCell>
        <mxCell id="K2nZ_HlR3rmibXcBMbVg-22" value="" style="edgeStyle=orthogonalEdgeStyle;rounded=0;orthogonalLoop=1;jettySize=auto;html=1;" edge="1" parent="WIyWlLk6GJQsqaUBKTNV-1" source="K2nZ_HlR3rmibXcBMbVg-16" target="K2nZ_HlR3rmibXcBMbVg-21">
          <mxGeometry relative="1" as="geometry" />
        </mxCell>
        <mxCell id="K2nZ_HlR3rmibXcBMbVg-16" value="&lt;div style=&quot;color: rgb(171, 178, 191); background-color: rgb(40, 44, 52); font-size: 14px; line-height: 19px; white-space: pre;&quot;&gt;sheet_keys = the key values of the company&lt;/div&gt;" style="rounded=1;whiteSpace=wrap;html=1;glass=0;strokeWidth=1;shadow=0;" vertex="1" parent="WIyWlLk6GJQsqaUBKTNV-1">
          <mxGeometry x="70" y="1330" width="300" height="60" as="geometry" />
        </mxCell>
        <mxCell id="K2nZ_HlR3rmibXcBMbVg-20" value="No" style="text;html=1;align=center;verticalAlign=middle;resizable=0;points=[];autosize=1;strokeColor=none;fillColor=none;" vertex="1" parent="WIyWlLk6GJQsqaUBKTNV-1">
          <mxGeometry x="450" y="860" width="40" height="30" as="geometry" />
        </mxCell>
        <mxCell id="K2nZ_HlR3rmibXcBMbVg-24" value="" style="edgeStyle=orthogonalEdgeStyle;rounded=0;orthogonalLoop=1;jettySize=auto;html=1;" edge="1" parent="WIyWlLk6GJQsqaUBKTNV-1" source="K2nZ_HlR3rmibXcBMbVg-21" target="K2nZ_HlR3rmibXcBMbVg-23">
          <mxGeometry relative="1" as="geometry" />
        </mxCell>
        <mxCell id="K2nZ_HlR3rmibXcBMbVg-21" value="&lt;div style=&quot;color: rgb(171, 178, 191); background-color: rgb(40, 44, 52); font-size: 14px; line-height: 19px; white-space: pre;&quot;&gt;try &lt;/div&gt;&lt;div style=&quot;color: rgb(171, 178, 191); background-color: rgb(40, 44, 52); font-size: 14px; line-height: 19px; white-space: pre;&quot;&gt;AddMachine exist for the comany and key value&lt;/div&gt;" style="rhombus;whiteSpace=wrap;html=1;rounded=1;glass=0;strokeWidth=1;shadow=0;" vertex="1" parent="WIyWlLk6GJQsqaUBKTNV-1">
          <mxGeometry y="1440" width="440" height="180" as="geometry" />
        </mxCell>
        <mxCell id="K2nZ_HlR3rmibXcBMbVg-23" value="&lt;div style=&quot;color: rgb(171, 178, 191); background-color: rgb(40, 44, 52); font-size: 14px; line-height: 19px; white-space: pre;&quot;&gt;&lt;div&gt;form_type &lt;span style=&quot;color: #c678dd;&quot;&gt;=&lt;/span&gt; &lt;span style=&quot;color: #98c379;&quot;&gt;&quot;None&quot;&lt;/span&gt;&lt;/div&gt;&lt;div&gt;DB_Name &lt;span style=&quot;color: #c678dd;&quot;&gt;=&lt;/span&gt; &lt;span style=&quot;color: #98c379;&quot;&gt;&quot;None&quot;&lt;/span&gt;&lt;/div&gt;&lt;div&gt;aMachineName &lt;span style=&quot;color: #c678dd;&quot;&gt;=&lt;/span&gt; &lt;span style=&quot;color: #98c379;&quot;&gt;&quot;None&quot;&lt;/span&gt;&lt;/div&gt;&lt;/div&gt;" style="whiteSpace=wrap;html=1;rounded=1;glass=0;strokeWidth=1;shadow=0;" vertex="1" parent="WIyWlLk6GJQsqaUBKTNV-1">
          <mxGeometry x="510" y="1490" width="210" height="80" as="geometry" />
        </mxCell>
        <mxCell id="K2nZ_HlR3rmibXcBMbVg-25" value="No" style="text;html=1;align=center;verticalAlign=middle;resizable=0;points=[];autosize=1;strokeColor=none;fillColor=none;" vertex="1" parent="WIyWlLk6GJQsqaUBKTNV-1">
          <mxGeometry x="450" y="1490" width="40" height="30" as="geometry" />
        </mxCell>
        <mxCell id="K2nZ_HlR3rmibXcBMbVg-29" value="" style="edgeStyle=orthogonalEdgeStyle;rounded=0;orthogonalLoop=1;jettySize=auto;html=1;" edge="1" parent="WIyWlLk6GJQsqaUBKTNV-1" source="K2nZ_HlR3rmibXcBMbVg-21" target="K2nZ_HlR3rmibXcBMbVg-28">
          <mxGeometry relative="1" as="geometry">
            <mxPoint x="220" y="1620" as="sourcePoint" />
            <mxPoint x="220" y="1770" as="targetPoint" />
          </mxGeometry>
        </mxCell>
        <mxCell id="K2nZ_HlR3rmibXcBMbVg-28" value="&lt;div style=&quot;color: rgb(171, 178, 191); background-color: rgb(40, 44, 52); font-size: 14px; line-height: 19px; white-space: pre;&quot;&gt;&lt;div&gt;form_type &lt;span style=&quot;color: #c678dd;&quot;&gt;=&lt;/span&gt; &lt;span style=&quot;color: #98c379;&quot;&gt;form name&lt;/span&gt;&lt;/div&gt;&lt;div&gt;DB_Name &lt;span style=&quot;color: rgb(198, 120, 221);&quot;&gt;=&lt;/span&gt; &lt;span style=&quot;color: rgb(152, 195, 121);&quot;&gt;DB name&lt;/span&gt;&lt;/div&gt;&lt;div&gt;aMachineName &lt;span style=&quot;color: #c678dd;&quot;&gt;=&lt;/span&gt; &lt;span style=&quot;color: #98c379;&quot;&gt;machine name&lt;/span&gt;&lt;/div&gt;&lt;/div&gt;" style="whiteSpace=wrap;html=1;rounded=1;glass=0;strokeWidth=1;shadow=0;" vertex="1" parent="WIyWlLk6GJQsqaUBKTNV-1">
          <mxGeometry x="100" y="1650" width="240" height="80" as="geometry" />
        </mxCell>
        <mxCell id="K2nZ_HlR3rmibXcBMbVg-31" value="" style="edgeStyle=orthogonalEdgeStyle;rounded=0;orthogonalLoop=1;jettySize=auto;html=1;" edge="1" parent="WIyWlLk6GJQsqaUBKTNV-1" source="K2nZ_HlR3rmibXcBMbVg-28" target="K2nZ_HlR3rmibXcBMbVg-30">
          <mxGeometry relative="1" as="geometry">
            <mxPoint x="220" y="1730" as="sourcePoint" />
            <mxPoint x="220" y="1770" as="targetPoint" />
          </mxGeometry>
        </mxCell>
        <mxCell id="K2nZ_HlR3rmibXcBMbVg-35" value="" style="edgeStyle=orthogonalEdgeStyle;rounded=0;orthogonalLoop=1;jettySize=auto;html=1;" edge="1" parent="WIyWlLk6GJQsqaUBKTNV-1" source="K2nZ_HlR3rmibXcBMbVg-30" target="K2nZ_HlR3rmibXcBMbVg-34">
          <mxGeometry relative="1" as="geometry" />
        </mxCell>
        <mxCell id="K2nZ_HlR3rmibXcBMbVg-30" value="&lt;div style=&quot;color: rgb(171, 178, 191); background-color: rgb(40, 44, 52); font-size: 14px; line-height: 19px; white-space: pre;&quot;&gt;&lt;span style=&quot;color: #c678dd;&quot;&gt;if&lt;/span&gt; &lt;/div&gt;&lt;div style=&quot;color: rgb(171, 178, 191); background-color: rgb(40, 44, 52); font-size: 14px; line-height: 19px; white-space: pre;&quot;&gt;user_company exist&lt;/div&gt;" style="rhombus;whiteSpace=wrap;html=1;" vertex="1" parent="WIyWlLk6GJQsqaUBKTNV-1">
          <mxGeometry x="130" y="1770" width="180" height="150" as="geometry" />
        </mxCell>
        <mxCell id="K2nZ_HlR3rmibXcBMbVg-41" style="edgeStyle=orthogonalEdgeStyle;rounded=0;orthogonalLoop=1;jettySize=auto;html=1;" edge="1" parent="WIyWlLk6GJQsqaUBKTNV-1" source="K2nZ_HlR3rmibXcBMbVg-34">
          <mxGeometry relative="1" as="geometry">
            <mxPoint x="220" y="2070" as="targetPoint" />
            <Array as="points">
              <mxPoint x="520" y="2070" />
            </Array>
          </mxGeometry>
        </mxCell>
        <mxCell id="K2nZ_HlR3rmibXcBMbVg-34" value="&lt;div style=&quot;color: rgb(171, 178, 191); background-color: rgb(40, 44, 52); font-size: 14px; line-height: 19px; white-space: pre;&quot;&gt;machines = empty queryset&lt;/div&gt;&lt;div style=&quot;color: rgb(171, 178, 191); background-color: rgb(40, 44, 52); font-size: 14px; line-height: 19px; white-space: pre;&quot;&gt;&lt;div style=&quot;line-height: 19px;&quot;&gt;projects = empty queryset&lt;/div&gt;&lt;/div&gt;" style="rounded=1;whiteSpace=wrap;html=1;" vertex="1" parent="WIyWlLk6GJQsqaUBKTNV-1">
          <mxGeometry x="420" y="1815" width="200" height="60" as="geometry" />
        </mxCell>
        <mxCell id="K2nZ_HlR3rmibXcBMbVg-38" value="" style="edgeStyle=orthogonalEdgeStyle;rounded=0;orthogonalLoop=1;jettySize=auto;html=1;exitX=0.5;exitY=1;exitDx=0;exitDy=0;" edge="1" parent="WIyWlLk6GJQsqaUBKTNV-1" source="K2nZ_HlR3rmibXcBMbVg-30" target="K2nZ_HlR3rmibXcBMbVg-37">
          <mxGeometry relative="1" as="geometry">
            <mxPoint x="220" y="2090" as="targetPoint" />
            <mxPoint x="220" y="1920" as="sourcePoint" />
          </mxGeometry>
        </mxCell>
        <mxCell id="K2nZ_HlR3rmibXcBMbVg-37" value="&lt;div style=&quot;color: rgb(171, 178, 191); background-color: rgb(40, 44, 52); font-size: 14px; line-height: 19px; white-space: pre;&quot;&gt;machines = the machine data for the company and the DB name&lt;/div&gt;&lt;div style=&quot;color: rgb(171, 178, 191); background-color: rgb(40, 44, 52); font-size: 14px; line-height: 19px; white-space: pre;&quot;&gt;&lt;div style=&quot;line-height: 19px;&quot;&gt;projects = the projects for the company&lt;/div&gt;&lt;/div&gt;" style="rounded=1;whiteSpace=wrap;html=1;" vertex="1" parent="WIyWlLk6GJQsqaUBKTNV-1">
          <mxGeometry x="10" y="1960" width="420" height="60" as="geometry" />
        </mxCell>
        <mxCell id="K2nZ_HlR3rmibXcBMbVg-39" value="No" style="text;html=1;align=center;verticalAlign=middle;resizable=0;points=[];autosize=1;strokeColor=none;fillColor=none;" vertex="1" parent="WIyWlLk6GJQsqaUBKTNV-1">
          <mxGeometry x="340" y="1818" width="40" height="30" as="geometry" />
        </mxCell>
        <mxCell id="K2nZ_HlR3rmibXcBMbVg-40" value="yes" style="text;html=1;align=center;verticalAlign=middle;resizable=0;points=[];autosize=1;strokeColor=none;fillColor=none;" vertex="1" parent="WIyWlLk6GJQsqaUBKTNV-1">
          <mxGeometry x="220" y="1918" width="40" height="30" as="geometry" />
        </mxCell>
        <mxCell id="K2nZ_HlR3rmibXcBMbVg-45" value="" style="edgeStyle=orthogonalEdgeStyle;rounded=0;orthogonalLoop=1;jettySize=auto;html=1;exitX=0.5;exitY=1;exitDx=0;exitDy=0;" edge="1" parent="WIyWlLk6GJQsqaUBKTNV-1" source="K2nZ_HlR3rmibXcBMbVg-37" target="K2nZ_HlR3rmibXcBMbVg-44">
          <mxGeometry relative="1" as="geometry">
            <mxPoint x="220" y="2190" as="targetPoint" />
            <mxPoint x="220" y="2020" as="sourcePoint" />
            <Array as="points">
              <mxPoint x="220" y="2150" />
              <mxPoint x="220" y="2150" />
            </Array>
          </mxGeometry>
        </mxCell>
        <mxCell id="K2nZ_HlR3rmibXcBMbVg-44" value="&lt;div style=&quot;background-color: rgb(40, 44, 52); font-size: 14px; line-height: 19px; white-space: pre;&quot;&gt;&lt;span style=&quot;color: #c678dd;&quot;&gt;if&lt;/span&gt; &lt;/div&gt;&lt;div style=&quot;background-color: rgb(40, 44, 52); font-size: 14px; line-height: 19px; white-space: pre; color: rgb(171, 178, 191);&quot;&gt;request method &lt;span style=&quot;color: rgb(198, 120, 221);&quot;&gt;==&lt;/span&gt; &lt;span style=&quot;color: rgb(152, 195, 121);&quot;&gt;&quot;POST&quot;&lt;/span&gt; &lt;span style=&quot;color: rgb(198, 120, 221);&quot;&gt;and&lt;/span&gt; &lt;/div&gt;&lt;div style=&quot;background-color: rgb(40, 44, 52); font-size: 14px; line-height: 19px; white-space: pre;&quot;&gt;&lt;span&gt;&lt;font style=&quot;color: light-dark(rgb(218, 215, 215), rgb(57, 94, 30));&quot;&gt;the name of the button&lt;/font&gt;&lt;/span&gt;&lt;span style=&quot;color: rgb(152, 195, 121);&quot;&gt; &#39;loadcalculationdataname&#39;&lt;/span&gt;&lt;/div&gt;" style="rhombus;whiteSpace=wrap;html=1;" vertex="1" parent="WIyWlLk6GJQsqaUBKTNV-1">
          <mxGeometry x="10" y="2110" width="420" height="210" as="geometry" />
        </mxCell>
        <mxCell id="K2nZ_HlR3rmibXcBMbVg-48" value="" style="edgeStyle=orthogonalEdgeStyle;rounded=0;orthogonalLoop=1;jettySize=auto;html=1;exitX=0.5;exitY=1;exitDx=0;exitDy=0;" edge="1" parent="WIyWlLk6GJQsqaUBKTNV-1" source="K2nZ_HlR3rmibXcBMbVg-44" target="K2nZ_HlR3rmibXcBMbVg-47">
          <mxGeometry relative="1" as="geometry">
            <mxPoint x="220" y="2820" as="targetPoint" />
            <mxPoint x="220" y="2320" as="sourcePoint" />
          </mxGeometry>
        </mxCell>
        <mxCell id="K2nZ_HlR3rmibXcBMbVg-170" value="" style="edgeStyle=orthogonalEdgeStyle;rounded=0;orthogonalLoop=1;jettySize=auto;html=1;" edge="1" parent="WIyWlLk6GJQsqaUBKTNV-1" source="K2nZ_HlR3rmibXcBMbVg-47" target="K2nZ_HlR3rmibXcBMbVg-169">
          <mxGeometry relative="1" as="geometry" />
        </mxCell>
        <mxCell id="K2nZ_HlR3rmibXcBMbVg-175" value="" style="edgeStyle=orthogonalEdgeStyle;rounded=0;orthogonalLoop=1;jettySize=auto;html=1;" edge="1" parent="WIyWlLk6GJQsqaUBKTNV-1" source="K2nZ_HlR3rmibXcBMbVg-47" target="K2nZ_HlR3rmibXcBMbVg-174">
          <mxGeometry relative="1" as="geometry" />
        </mxCell>
        <mxCell id="K2nZ_HlR3rmibXcBMbVg-47" value="&lt;div style=&quot;background-color: rgb(40, 44, 52); font-size: 14px; line-height: 19px; white-space: pre;&quot;&gt;&lt;span style=&quot;color: #c678dd;&quot;&gt;if&lt;/span&gt; &lt;/div&gt;&lt;div style=&quot;background-color: rgb(40, 44, 52); font-size: 14px; line-height: 19px; white-space: pre; color: rgb(171, 178, 191);&quot;&gt;request method &lt;span style=&quot;color: rgb(198, 120, 221);&quot;&gt;==&lt;/span&gt; &lt;span style=&quot;color: rgb(152, 195, 121);&quot;&gt;&quot;POST&quot;&lt;/span&gt; &lt;span style=&quot;color: rgb(198, 120, 221);&quot;&gt;and&lt;/span&gt; &lt;/div&gt;&lt;div style=&quot;background-color: rgb(40, 44, 52); font-size: 14px; line-height: 19px; white-space: pre;&quot;&gt;&lt;span&gt;&lt;font style=&quot;color: light-dark(rgb(218, 215, 215), rgb(57, 94, 30));&quot;&gt;the name of the button&lt;/font&gt;&lt;/span&gt;&lt;span style=&quot;color: rgb(152, 195, 121);&quot;&gt; &#39;savebuttonname&lt;/span&gt;&lt;span style=&quot;color: rgb(152, 195, 121);&quot;&gt;&#39;&lt;/span&gt;&lt;/div&gt;" style="rhombus;whiteSpace=wrap;html=1;" vertex="1" parent="WIyWlLk6GJQsqaUBKTNV-1">
          <mxGeometry x="10" y="3020" width="420" height="210" as="geometry" />
        </mxCell>
        <mxCell id="K2nZ_HlR3rmibXcBMbVg-49" value="No" style="text;html=1;align=center;verticalAlign=middle;resizable=0;points=[];autosize=1;strokeColor=none;fillColor=none;" vertex="1" parent="WIyWlLk6GJQsqaUBKTNV-1">
          <mxGeometry x="180" y="2358" width="40" height="30" as="geometry" />
        </mxCell>
        <mxCell id="K2nZ_HlR3rmibXcBMbVg-53" value="yes" style="text;html=1;align=center;verticalAlign=middle;resizable=0;points=[];autosize=1;strokeColor=none;fillColor=none;" vertex="1" parent="WIyWlLk6GJQsqaUBKTNV-1">
          <mxGeometry x="430" y="2188" width="40" height="30" as="geometry" />
        </mxCell>
        <mxCell id="K2nZ_HlR3rmibXcBMbVg-55" value="" style="edgeStyle=orthogonalEdgeStyle;rounded=0;orthogonalLoop=1;jettySize=auto;html=1;" edge="1" parent="WIyWlLk6GJQsqaUBKTNV-1" source="K2nZ_HlR3rmibXcBMbVg-44" target="K2nZ_HlR3rmibXcBMbVg-54">
          <mxGeometry relative="1" as="geometry">
            <mxPoint x="430" y="2215" as="sourcePoint" />
            <mxPoint x="490" y="2215" as="targetPoint" />
          </mxGeometry>
        </mxCell>
        <mxCell id="K2nZ_HlR3rmibXcBMbVg-57" value="" style="edgeStyle=orthogonalEdgeStyle;rounded=0;orthogonalLoop=1;jettySize=auto;html=1;" edge="1" parent="WIyWlLk6GJQsqaUBKTNV-1" source="K2nZ_HlR3rmibXcBMbVg-54" target="K2nZ_HlR3rmibXcBMbVg-56">
          <mxGeometry relative="1" as="geometry" />
        </mxCell>
        <mxCell id="K2nZ_HlR3rmibXcBMbVg-54" value="&lt;div style=&quot;color: rgb(171, 178, 191); background-color: rgb(40, 44, 52); font-size: 14px; line-height: 19px; white-space: pre;&quot;&gt;machineShow &lt;span style=&quot;color: #c678dd;&quot;&gt;=&lt;/span&gt; &lt;span style=&quot;color: #98c379;&quot;&gt;&quot;Yes&quot;&lt;/span&gt;&lt;/div&gt;" style="rounded=1;whiteSpace=wrap;html=1;" vertex="1" parent="WIyWlLk6GJQsqaUBKTNV-1">
          <mxGeometry x="480" y="2185" width="160" height="60" as="geometry" />
        </mxCell>
        <mxCell id="K2nZ_HlR3rmibXcBMbVg-59" value="" style="edgeStyle=orthogonalEdgeStyle;rounded=0;orthogonalLoop=1;jettySize=auto;html=1;" edge="1" parent="WIyWlLk6GJQsqaUBKTNV-1" source="K2nZ_HlR3rmibXcBMbVg-56" target="K2nZ_HlR3rmibXcBMbVg-58">
          <mxGeometry relative="1" as="geometry" />
        </mxCell>
        <mxCell id="K2nZ_HlR3rmibXcBMbVg-56" value="&lt;div style=&quot;color: rgb(171, 178, 191); background-color: rgb(40, 44, 52); font-size: 14px; line-height: 19px; white-space: pre;&quot;&gt;selected_project_id &lt;span style=&quot;color: #c678dd;&quot;&gt;=&lt;/span&gt; project ID&lt;/div&gt;" style="whiteSpace=wrap;html=1;rounded=1;" vertex="1" parent="WIyWlLk6GJQsqaUBKTNV-1">
          <mxGeometry x="440" y="2325" width="240" height="45" as="geometry" />
        </mxCell>
        <mxCell id="K2nZ_HlR3rmibXcBMbVg-61" value="" style="edgeStyle=orthogonalEdgeStyle;rounded=0;orthogonalLoop=1;jettySize=auto;html=1;" edge="1" parent="WIyWlLk6GJQsqaUBKTNV-1" source="K2nZ_HlR3rmibXcBMbVg-58" target="K2nZ_HlR3rmibXcBMbVg-60">
          <mxGeometry relative="1" as="geometry" />
        </mxCell>
        <mxCell id="K2nZ_HlR3rmibXcBMbVg-58" value="&lt;div style=&quot;color: rgb(171, 178, 191); background-color: rgb(40, 44, 52); font-size: 14px; line-height: 19px; white-space: pre;&quot;&gt;keyvalue &lt;span style=&quot;color: #c678dd;&quot;&gt;=&lt;/span&gt; sheet_key[:&lt;span style=&quot;color: #c678dd;&quot;&gt;-&lt;/span&gt;&lt;span style=&quot;color: #d19a66;&quot;&gt;2&lt;/span&gt;] &lt;/div&gt;" style="whiteSpace=wrap;html=1;rounded=1;" vertex="1" parent="WIyWlLk6GJQsqaUBKTNV-1">
          <mxGeometry x="460" y="2420" width="200" height="47.5" as="geometry" />
        </mxCell>
        <mxCell id="K2nZ_HlR3rmibXcBMbVg-63" value="" style="edgeStyle=orthogonalEdgeStyle;rounded=0;orthogonalLoop=1;jettySize=auto;html=1;" edge="1" parent="WIyWlLk6GJQsqaUBKTNV-1" source="K2nZ_HlR3rmibXcBMbVg-60" target="K2nZ_HlR3rmibXcBMbVg-62">
          <mxGeometry relative="1" as="geometry" />
        </mxCell>
        <mxCell id="K2nZ_HlR3rmibXcBMbVg-60" value="&lt;div style=&quot;color: rgb(171, 178, 191); background-color: rgb(40, 44, 52); font-size: 14px; line-height: 19px; white-space: pre;&quot;&gt;initial_values &lt;span style=&quot;color: #c678dd;&quot;&gt;=&lt;/span&gt; {}&lt;/div&gt;" style="whiteSpace=wrap;html=1;rounded=1;" vertex="1" parent="WIyWlLk6GJQsqaUBKTNV-1">
          <mxGeometry x="500" y="2500" width="120" height="40" as="geometry" />
        </mxCell>
        <mxCell id="K2nZ_HlR3rmibXcBMbVg-65" value="" style="edgeStyle=orthogonalEdgeStyle;rounded=0;orthogonalLoop=1;jettySize=auto;html=1;" edge="1" parent="WIyWlLk6GJQsqaUBKTNV-1" source="K2nZ_HlR3rmibXcBMbVg-62" target="K2nZ_HlR3rmibXcBMbVg-64">
          <mxGeometry relative="1" as="geometry" />
        </mxCell>
        <mxCell id="K2nZ_HlR3rmibXcBMbVg-62" value="&lt;div style=&quot;color: rgb(171, 178, 191); background-color: rgb(40, 44, 52); font-size: 14px; line-height: 19px; white-space: pre;&quot;&gt;field_configs &lt;/div&gt;&lt;div style=&quot;color: rgb(171, 178, 191); background-color: rgb(40, 44, 52); font-size: 14px; line-height: 19px; white-space: pre;&quot;&gt;&lt;span style=&quot;color: #c678dd;&quot;&gt;=&lt;/span&gt;&lt;/div&gt;&lt;div style=&quot;color: rgb(171, 178, 191); background-color: rgb(40, 44, 52); font-size: 14px; line-height: 19px; white-space: pre;&quot;&gt;data from FormFieldConfig for the form type and company name&lt;/div&gt;" style="whiteSpace=wrap;html=1;rounded=1;" vertex="1" parent="WIyWlLk6GJQsqaUBKTNV-1">
          <mxGeometry x="350" y="2610" width="420" height="80" as="geometry" />
        </mxCell>
        <mxCell id="K2nZ_HlR3rmibXcBMbVg-67" value="" style="edgeStyle=orthogonalEdgeStyle;rounded=0;orthogonalLoop=1;jettySize=auto;html=1;" edge="1" parent="WIyWlLk6GJQsqaUBKTNV-1" source="K2nZ_HlR3rmibXcBMbVg-64" target="K2nZ_HlR3rmibXcBMbVg-66">
          <mxGeometry relative="1" as="geometry" />
        </mxCell>
        <mxCell id="K2nZ_HlR3rmibXcBMbVg-77" value="" style="edgeStyle=orthogonalEdgeStyle;rounded=0;orthogonalLoop=1;jettySize=auto;html=1;entryX=0.5;entryY=0;entryDx=0;entryDy=0;" edge="1" parent="WIyWlLk6GJQsqaUBKTNV-1" source="K2nZ_HlR3rmibXcBMbVg-64" target="K2nZ_HlR3rmibXcBMbVg-78">
          <mxGeometry relative="1" as="geometry">
            <mxPoint x="560" y="3040" as="targetPoint" />
          </mxGeometry>
        </mxCell>
        <mxCell id="K2nZ_HlR3rmibXcBMbVg-64" value="&lt;div style=&quot;color: rgb(171, 178, 191); background-color: rgb(40, 44, 52); font-size: 14px; line-height: 19px; white-space: pre;&quot;&gt;&lt;span style=&quot;color: #c678dd;&quot;&gt;for&lt;/span&gt; config &lt;span style=&quot;color: #c678dd;&quot;&gt;in&lt;/span&gt; field_configs&lt;/div&gt;" style="shape=hexagon;perimeter=hexagonPerimeter2;whiteSpace=wrap;html=1;fixedSize=1;rounded=1;" vertex="1" parent="WIyWlLk6GJQsqaUBKTNV-1">
          <mxGeometry x="470" y="2740" width="180" height="60" as="geometry" />
        </mxCell>
        <mxCell id="K2nZ_HlR3rmibXcBMbVg-69" value="" style="edgeStyle=orthogonalEdgeStyle;rounded=0;orthogonalLoop=1;jettySize=auto;html=1;" edge="1" parent="WIyWlLk6GJQsqaUBKTNV-1" source="K2nZ_HlR3rmibXcBMbVg-66" target="K2nZ_HlR3rmibXcBMbVg-68">
          <mxGeometry relative="1" as="geometry" />
        </mxCell>
        <mxCell id="K2nZ_HlR3rmibXcBMbVg-74" style="edgeStyle=orthogonalEdgeStyle;rounded=0;orthogonalLoop=1;jettySize=auto;html=1;exitX=1;exitY=0.5;exitDx=0;exitDy=0;entryX=0.625;entryY=1;entryDx=0;entryDy=0;" edge="1" parent="WIyWlLk6GJQsqaUBKTNV-1" source="K2nZ_HlR3rmibXcBMbVg-66" target="K2nZ_HlR3rmibXcBMbVg-64">
          <mxGeometry relative="1" as="geometry">
            <Array as="points">
              <mxPoint x="1130" y="2770" />
              <mxPoint x="1130" y="3030" />
              <mxPoint x="583" y="3030" />
            </Array>
          </mxGeometry>
        </mxCell>
        <mxCell id="K2nZ_HlR3rmibXcBMbVg-66" value="&lt;div style=&quot;color: rgb(171, 178, 191); background-color: rgb(40, 44, 52); font-size: 14px; line-height: 19px; white-space: pre;&quot;&gt;&lt;span style=&quot;color: #c678dd;&quot;&gt;if&lt;/span&gt; &lt;/div&gt;&lt;div style=&quot;color: rgb(171, 178, 191); background-color: rgb(40, 44, 52); font-size: 14px; line-height: 19px; white-space: pre;&quot;&gt;config.initial_value &lt;span style=&quot;color: #c678dd;&quot;&gt;not&lt;/span&gt; &lt;span style=&quot;color: #c678dd;&quot;&gt;in&lt;/span&gt; [&lt;span style=&quot;color: #d19a66;&quot;&gt;None&lt;/span&gt;, &lt;span style=&quot;color: #98c379;&quot;&gt;&quot;&quot;&lt;/span&gt;]&lt;/div&gt;" style="rhombus;whiteSpace=wrap;html=1;rounded=1;" vertex="1" parent="WIyWlLk6GJQsqaUBKTNV-1">
          <mxGeometry x="690" y="2710" width="420" height="120" as="geometry" />
        </mxCell>
        <mxCell id="K2nZ_HlR3rmibXcBMbVg-68" value="&lt;div style=&quot;color: rgb(171, 178, 191); background-color: rgb(40, 44, 52); font-size: 14px; line-height: 19px; white-space: pre;&quot;&gt;initial_values[config.field_name] &lt;span style=&quot;color: #c678dd;&quot;&gt;=&lt;/span&gt; config.initial_value&lt;/div&gt;" style="whiteSpace=wrap;html=1;rounded=1;" vertex="1" parent="WIyWlLk6GJQsqaUBKTNV-1">
          <mxGeometry x="720" y="2920" width="360" height="60" as="geometry" />
        </mxCell>
        <mxCell id="K2nZ_HlR3rmibXcBMbVg-70" value="yes" style="text;html=1;align=center;verticalAlign=middle;resizable=0;points=[];autosize=1;strokeColor=none;fillColor=none;" vertex="1" parent="WIyWlLk6GJQsqaUBKTNV-1">
          <mxGeometry x="860" y="2858" width="40" height="30" as="geometry" />
        </mxCell>
        <mxCell id="K2nZ_HlR3rmibXcBMbVg-71" style="edgeStyle=orthogonalEdgeStyle;rounded=0;orthogonalLoop=1;jettySize=auto;html=1;exitX=0.5;exitY=1;exitDx=0;exitDy=0;entryX=0.772;entryY=1.017;entryDx=0;entryDy=0;entryPerimeter=0;" edge="1" parent="WIyWlLk6GJQsqaUBKTNV-1" source="K2nZ_HlR3rmibXcBMbVg-68" target="K2nZ_HlR3rmibXcBMbVg-64">
          <mxGeometry relative="1" as="geometry" />
        </mxCell>
        <mxCell id="K2nZ_HlR3rmibXcBMbVg-72" value="next" style="text;html=1;align=center;verticalAlign=middle;resizable=0;points=[];autosize=1;strokeColor=none;fillColor=none;" vertex="1" parent="WIyWlLk6GJQsqaUBKTNV-1">
          <mxGeometry x="610" y="2890" width="50" height="30" as="geometry" />
        </mxCell>
        <mxCell id="K2nZ_HlR3rmibXcBMbVg-75" value="No" style="text;html=1;align=center;verticalAlign=middle;resizable=0;points=[];autosize=1;strokeColor=none;fillColor=none;" vertex="1" parent="WIyWlLk6GJQsqaUBKTNV-1">
          <mxGeometry x="1090" y="2798" width="40" height="30" as="geometry" />
        </mxCell>
        <mxCell id="K2nZ_HlR3rmibXcBMbVg-80" value="" style="edgeStyle=orthogonalEdgeStyle;rounded=0;orthogonalLoop=1;jettySize=auto;html=1;" edge="1" parent="WIyWlLk6GJQsqaUBKTNV-1" source="K2nZ_HlR3rmibXcBMbVg-78" target="K2nZ_HlR3rmibXcBMbVg-79">
          <mxGeometry relative="1" as="geometry" />
        </mxCell>
        <mxCell id="K2nZ_HlR3rmibXcBMbVg-78" value="&lt;div style=&quot;color: rgb(171, 178, 191); background-color: rgb(40, 44, 52); font-size: 14px; line-height: 19px; white-space: pre;&quot;&gt;form_data &lt;span style=&quot;color: #c678dd;&quot;&gt;=&lt;/span&gt; copy of the form&lt;/div&gt;" style="rounded=1;whiteSpace=wrap;html=1;" vertex="1" parent="WIyWlLk6GJQsqaUBKTNV-1">
          <mxGeometry x="460" y="3070" width="200" height="60" as="geometry" />
        </mxCell>
        <mxCell id="K2nZ_HlR3rmibXcBMbVg-82" value="" style="edgeStyle=orthogonalEdgeStyle;rounded=0;orthogonalLoop=1;jettySize=auto;html=1;" edge="1" parent="WIyWlLk6GJQsqaUBKTNV-1" source="K2nZ_HlR3rmibXcBMbVg-79" target="K2nZ_HlR3rmibXcBMbVg-81">
          <mxGeometry relative="1" as="geometry" />
        </mxCell>
        <mxCell id="K2nZ_HlR3rmibXcBMbVg-86" style="edgeStyle=orthogonalEdgeStyle;rounded=0;orthogonalLoop=1;jettySize=auto;html=1;exitX=1;exitY=0.5;exitDx=0;exitDy=0;" edge="1" parent="WIyWlLk6GJQsqaUBKTNV-1" source="K2nZ_HlR3rmibXcBMbVg-79">
          <mxGeometry relative="1" as="geometry">
            <mxPoint x="560" y="3500" as="targetPoint" />
            <Array as="points">
              <mxPoint x="830" y="3270" />
              <mxPoint x="830" y="3500" />
              <mxPoint x="560" y="3500" />
            </Array>
          </mxGeometry>
        </mxCell>
        <mxCell id="K2nZ_HlR3rmibXcBMbVg-79" value="&lt;div style=&quot;color: rgb(171, 178, 191); background-color: rgb(40, 44, 52); font-size: 14px; line-height: 19px; white-space: pre;&quot;&gt;&lt;span style=&quot;color: #c678dd;&quot;&gt;if&lt;/span&gt; &lt;/div&gt;&lt;div style=&quot;color: rgb(171, 178, 191); background-color: rgb(40, 44, 52); font-size: 14px; line-height: 19px; white-space: pre;&quot;&gt;selected_project_id exist&lt;/div&gt;" style="rhombus;whiteSpace=wrap;html=1;rounded=1;" vertex="1" parent="WIyWlLk6GJQsqaUBKTNV-1">
          <mxGeometry x="460" y="3200" width="200" height="140" as="geometry" />
        </mxCell>
        <mxCell id="K2nZ_HlR3rmibXcBMbVg-85" value="" style="edgeStyle=orthogonalEdgeStyle;rounded=0;orthogonalLoop=1;jettySize=auto;html=1;" edge="1" parent="WIyWlLk6GJQsqaUBKTNV-1" source="K2nZ_HlR3rmibXcBMbVg-81" target="K2nZ_HlR3rmibXcBMbVg-84">
          <mxGeometry relative="1" as="geometry">
            <Array as="points">
              <mxPoint x="510" y="3460" />
              <mxPoint x="510" y="3460" />
            </Array>
          </mxGeometry>
        </mxCell>
        <mxCell id="K2nZ_HlR3rmibXcBMbVg-81" value="&lt;div style=&quot;color: rgb(171, 178, 191); background-color: rgb(40, 44, 52); font-size: 14px; line-height: 19px; white-space: pre;&quot;&gt;form_data[&lt;span style=&quot;color: #98c379;&quot;&gt;&quot;project&quot;&lt;/span&gt;] &lt;span style=&quot;color: #c678dd;&quot;&gt;=&lt;/span&gt; selected_project_id&lt;/div&gt;" style="whiteSpace=wrap;html=1;rounded=1;" vertex="1" parent="WIyWlLk6GJQsqaUBKTNV-1">
          <mxGeometry x="420" y="3400" width="280" height="60" as="geometry" />
        </mxCell>
        <mxCell id="K2nZ_HlR3rmibXcBMbVg-83" value="yes" style="text;html=1;align=center;verticalAlign=middle;resizable=0;points=[];autosize=1;strokeColor=none;fillColor=none;" vertex="1" parent="WIyWlLk6GJQsqaUBKTNV-1">
          <mxGeometry x="520" y="3340" width="40" height="30" as="geometry" />
        </mxCell>
        <mxCell id="K2nZ_HlR3rmibXcBMbVg-89" value="" style="edgeStyle=orthogonalEdgeStyle;rounded=0;orthogonalLoop=1;jettySize=auto;html=1;" edge="1" parent="WIyWlLk6GJQsqaUBKTNV-1" source="K2nZ_HlR3rmibXcBMbVg-84" target="K2nZ_HlR3rmibXcBMbVg-88">
          <mxGeometry relative="1" as="geometry" />
        </mxCell>
        <mxCell id="K2nZ_HlR3rmibXcBMbVg-114" style="edgeStyle=orthogonalEdgeStyle;rounded=0;orthogonalLoop=1;jettySize=auto;html=1;exitX=1;exitY=0.5;exitDx=0;exitDy=0;" edge="1" parent="WIyWlLk6GJQsqaUBKTNV-1" source="K2nZ_HlR3rmibXcBMbVg-84">
          <mxGeometry relative="1" as="geometry">
            <mxPoint x="1100" y="3960" as="targetPoint" />
          </mxGeometry>
        </mxCell>
        <mxCell id="K2nZ_HlR3rmibXcBMbVg-84" value="&lt;div style=&quot;color: rgb(171, 178, 191); background-color: rgb(40, 44, 52); font-size: 14px; line-height: 19px; white-space: pre;&quot;&gt;&lt;span style=&quot;color: #c678dd;&quot;&gt;if&lt;/span&gt; &lt;/div&gt;&lt;div style=&quot;color: rgb(171, 178, 191); background-color: rgb(40, 44, 52); font-size: 14px; line-height: 19px; white-space: pre;&quot;&gt;sheet_key &lt;span style=&quot;color: #c678dd;&quot;&gt;and&lt;/span&gt; selected_project_id exist&lt;/div&gt;" style="rhombus;whiteSpace=wrap;html=1;rounded=1;" vertex="1" parent="WIyWlLk6GJQsqaUBKTNV-1">
          <mxGeometry x="360" y="3550" width="400" height="120" as="geometry" />
        </mxCell>
        <mxCell id="K2nZ_HlR3rmibXcBMbVg-87" value="No" style="text;html=1;align=center;verticalAlign=middle;resizable=0;points=[];autosize=1;strokeColor=none;fillColor=none;" vertex="1" parent="WIyWlLk6GJQsqaUBKTNV-1">
          <mxGeometry x="750" y="3240" width="40" height="30" as="geometry" />
        </mxCell>
        <mxCell id="K2nZ_HlR3rmibXcBMbVg-92" value="" style="edgeStyle=orthogonalEdgeStyle;rounded=0;orthogonalLoop=1;jettySize=auto;html=1;" edge="1" parent="WIyWlLk6GJQsqaUBKTNV-1" source="K2nZ_HlR3rmibXcBMbVg-88" target="K2nZ_HlR3rmibXcBMbVg-91">
          <mxGeometry relative="1" as="geometry" />
        </mxCell>
        <mxCell id="K2nZ_HlR3rmibXcBMbVg-88" value="&lt;div style=&quot;color: rgb(171, 178, 191); background-color: rgb(40, 44, 52); font-size: 14px; line-height: 19px; white-space: pre;&quot;&gt;&lt;div style=&quot;line-height: 19px;&quot;&gt;calc_instance &lt;span style=&quot;color: #c678dd;&quot;&gt;=&lt;/span&gt; data from modelcalc for the project and the sheet key and company&lt;/div&gt;&lt;/div&gt;" style="rounded=1;whiteSpace=wrap;html=1;" vertex="1" parent="WIyWlLk6GJQsqaUBKTNV-1">
          <mxGeometry x="290" y="3740" width="540" height="60" as="geometry" />
        </mxCell>
        <mxCell id="K2nZ_HlR3rmibXcBMbVg-90" value="yes" style="text;html=1;align=center;verticalAlign=middle;resizable=0;points=[];autosize=1;strokeColor=none;fillColor=none;" vertex="1" parent="WIyWlLk6GJQsqaUBKTNV-1">
          <mxGeometry x="520" y="3698" width="40" height="30" as="geometry" />
        </mxCell>
        <mxCell id="K2nZ_HlR3rmibXcBMbVg-94" value="" style="edgeStyle=orthogonalEdgeStyle;rounded=0;orthogonalLoop=1;jettySize=auto;html=1;" edge="1" parent="WIyWlLk6GJQsqaUBKTNV-1" source="K2nZ_HlR3rmibXcBMbVg-91" target="K2nZ_HlR3rmibXcBMbVg-93">
          <mxGeometry relative="1" as="geometry" />
        </mxCell>
        <mxCell id="K2nZ_HlR3rmibXcBMbVg-112" style="edgeStyle=orthogonalEdgeStyle;rounded=0;orthogonalLoop=1;jettySize=auto;html=1;exitX=1;exitY=0.5;exitDx=0;exitDy=0;" edge="1" parent="WIyWlLk6GJQsqaUBKTNV-1" source="K2nZ_HlR3rmibXcBMbVg-91">
          <mxGeometry relative="1" as="geometry">
            <mxPoint x="560" y="4630" as="targetPoint" />
            <Array as="points">
              <mxPoint x="1100" y="3925" />
              <mxPoint x="1100" y="4630" />
              <mxPoint x="561" y="4630" />
            </Array>
          </mxGeometry>
        </mxCell>
        <mxCell id="K2nZ_HlR3rmibXcBMbVg-91" value="&lt;div style=&quot;color: rgb(171, 178, 191); background-color: rgb(40, 44, 52); font-size: 14px; line-height: 19px; white-space: pre;&quot;&gt;&lt;span style=&quot;color: #c678dd;&quot;&gt;if&lt;/span&gt; &lt;/div&gt;&lt;div style=&quot;color: rgb(171, 178, 191); background-color: rgb(40, 44, 52); font-size: 14px; line-height: 19px; white-space: pre;&quot;&gt;calc_instance exist&lt;/div&gt;" style="rhombus;whiteSpace=wrap;html=1;rounded=1;" vertex="1" parent="WIyWlLk6GJQsqaUBKTNV-1">
          <mxGeometry x="460" y="3870" width="200" height="110" as="geometry" />
        </mxCell>
        <mxCell id="K2nZ_HlR3rmibXcBMbVg-97" value="" style="edgeStyle=orthogonalEdgeStyle;rounded=0;orthogonalLoop=1;jettySize=auto;html=1;" edge="1" parent="WIyWlLk6GJQsqaUBKTNV-1" source="K2nZ_HlR3rmibXcBMbVg-93" target="K2nZ_HlR3rmibXcBMbVg-96">
          <mxGeometry relative="1" as="geometry" />
        </mxCell>
        <mxCell id="K2nZ_HlR3rmibXcBMbVg-93" value="&lt;div style=&quot;color: rgb(171, 178, 191); background-color: rgb(40, 44, 52); font-size: 14px; line-height: 19px; white-space: pre;&quot;&gt;mappings &lt;span style=&quot;color: #c678dd;&quot;&gt;=&lt;/span&gt; data from DataTransfer for the key value and company name&lt;/div&gt;" style="whiteSpace=wrap;html=1;rounded=1;" vertex="1" parent="WIyWlLk6GJQsqaUBKTNV-1">
          <mxGeometry x="325" y="4030" width="470" height="60" as="geometry" />
        </mxCell>
        <mxCell id="K2nZ_HlR3rmibXcBMbVg-95" value="yes" style="text;html=1;align=center;verticalAlign=middle;resizable=0;points=[];autosize=1;strokeColor=none;fillColor=none;" vertex="1" parent="WIyWlLk6GJQsqaUBKTNV-1">
          <mxGeometry x="520" y="3978" width="40" height="30" as="geometry" />
        </mxCell>
        <mxCell id="K2nZ_HlR3rmibXcBMbVg-99" value="" style="edgeStyle=orthogonalEdgeStyle;rounded=0;orthogonalLoop=1;jettySize=auto;html=1;" edge="1" parent="WIyWlLk6GJQsqaUBKTNV-1" source="K2nZ_HlR3rmibXcBMbVg-96" target="K2nZ_HlR3rmibXcBMbVg-98">
          <mxGeometry relative="1" as="geometry" />
        </mxCell>
        <mxCell id="K2nZ_HlR3rmibXcBMbVg-111" value="" style="edgeStyle=orthogonalEdgeStyle;rounded=0;orthogonalLoop=1;jettySize=auto;html=1;" edge="1" parent="WIyWlLk6GJQsqaUBKTNV-1" source="K2nZ_HlR3rmibXcBMbVg-96" target="K2nZ_HlR3rmibXcBMbVg-110">
          <mxGeometry relative="1" as="geometry">
            <Array as="points">
              <mxPoint x="560" y="4690" />
              <mxPoint x="560" y="4690" />
            </Array>
          </mxGeometry>
        </mxCell>
        <mxCell id="K2nZ_HlR3rmibXcBMbVg-96" value="&lt;div style=&quot;color: rgb(171, 178, 191); background-color: rgb(40, 44, 52); font-size: 14px; line-height: 19px; white-space: pre;&quot;&gt;&amp;nbsp;&lt;span style=&quot;color: #c678dd;&quot;&gt;for&lt;/span&gt; &lt;/div&gt;&lt;div style=&quot;color: rgb(171, 178, 191); background-color: rgb(40, 44, 52); font-size: 14px; line-height: 19px; white-space: pre;&quot;&gt;mapping &lt;span style=&quot;color: #c678dd;&quot;&gt;in&lt;/span&gt; mappings&lt;/div&gt;" style="shape=hexagon;perimeter=hexagonPerimeter2;whiteSpace=wrap;html=1;fixedSize=1;rounded=1;" vertex="1" parent="WIyWlLk6GJQsqaUBKTNV-1">
          <mxGeometry x="460" y="4140" width="200" height="80" as="geometry" />
        </mxCell>
        <mxCell id="K2nZ_HlR3rmibXcBMbVg-101" value="" style="edgeStyle=orthogonalEdgeStyle;rounded=0;orthogonalLoop=1;jettySize=auto;html=1;" edge="1" parent="WIyWlLk6GJQsqaUBKTNV-1" source="K2nZ_HlR3rmibXcBMbVg-98" target="K2nZ_HlR3rmibXcBMbVg-100">
          <mxGeometry relative="1" as="geometry" />
        </mxCell>
        <mxCell id="K2nZ_HlR3rmibXcBMbVg-98" value="&lt;div style=&quot;color: rgb(171, 178, 191); background-color: rgb(40, 44, 52); font-size: 14px; line-height: 19px; white-space: pre;&quot;&gt;calc_field &lt;span style=&quot;color: #c678dd;&quot;&gt;=&lt;/span&gt; Calculation field&lt;/div&gt;&lt;div style=&quot;color: rgb(171, 178, 191); background-color: rgb(40, 44, 52); font-size: 14px; line-height: 19px; white-space: pre;&quot;&gt;&lt;div style=&quot;line-height: 19px;&quot;&gt;form_field &lt;span style=&quot;color: #c678dd;&quot;&gt;=&lt;/span&gt; Submittal Field&lt;/div&gt;&lt;/div&gt;" style="whiteSpace=wrap;html=1;rounded=1;" vertex="1" parent="WIyWlLk6GJQsqaUBKTNV-1">
          <mxGeometry x="730" y="4150" width="270" height="60" as="geometry" />
        </mxCell>
        <mxCell id="K2nZ_HlR3rmibXcBMbVg-103" value="" style="edgeStyle=orthogonalEdgeStyle;rounded=0;orthogonalLoop=1;jettySize=auto;html=1;" edge="1" parent="WIyWlLk6GJQsqaUBKTNV-1" source="K2nZ_HlR3rmibXcBMbVg-100" target="K2nZ_HlR3rmibXcBMbVg-102">
          <mxGeometry relative="1" as="geometry" />
        </mxCell>
        <mxCell id="K2nZ_HlR3rmibXcBMbVg-107" style="edgeStyle=orthogonalEdgeStyle;rounded=0;orthogonalLoop=1;jettySize=auto;html=1;exitX=0;exitY=0.5;exitDx=0;exitDy=0;entryX=0.735;entryY=0.975;entryDx=0;entryDy=0;entryPerimeter=0;" edge="1" parent="WIyWlLk6GJQsqaUBKTNV-1" source="K2nZ_HlR3rmibXcBMbVg-100" target="K2nZ_HlR3rmibXcBMbVg-96">
          <mxGeometry relative="1" as="geometry">
            <mxPoint x="610" y="4355" as="targetPoint" />
          </mxGeometry>
        </mxCell>
        <mxCell id="K2nZ_HlR3rmibXcBMbVg-100" value="&lt;div style=&quot;color: rgb(171, 178, 191); background-color: rgb(40, 44, 52); font-size: 14px; line-height: 19px; white-space: pre;&quot;&gt;&lt;span style=&quot;color: #c678dd;&quot;&gt;if&lt;/span&gt; &lt;/div&gt;&lt;div style=&quot;color: rgb(171, 178, 191); background-color: rgb(40, 44, 52); font-size: 14px; line-height: 19px; white-space: pre;&quot;&gt;calc_instance have data in calc_field&lt;/div&gt;" style="rhombus;whiteSpace=wrap;html=1;rounded=1;" vertex="1" parent="WIyWlLk6GJQsqaUBKTNV-1">
          <mxGeometry x="720" y="4280" width="290" height="150" as="geometry" />
        </mxCell>
        <mxCell id="K2nZ_HlR3rmibXcBMbVg-102" value="&lt;div style=&quot;background-color: rgb(40, 44, 52); font-size: 14px; line-height: 19px; white-space: pre; color: rgb(171, 178, 191);&quot;&gt;&lt;span style=&quot;color: rgb(171, 178, 191);&quot;&gt;form_data[form_field] &lt;span style=&quot;color: #c678dd;&quot;&gt;=&lt;/span&gt; the data from &lt;/span&gt;&lt;font color=&quot;#abb2bf&quot;&gt;calc_instance in calc_field&lt;/font&gt;&lt;/div&gt;" style="whiteSpace=wrap;html=1;rounded=1;" vertex="1" parent="WIyWlLk6GJQsqaUBKTNV-1">
          <mxGeometry x="660" y="4510" width="410" height="60" as="geometry" />
        </mxCell>
        <mxCell id="K2nZ_HlR3rmibXcBMbVg-104" value="yes" style="text;html=1;align=center;verticalAlign=middle;resizable=0;points=[];autosize=1;strokeColor=none;fillColor=none;" vertex="1" parent="WIyWlLk6GJQsqaUBKTNV-1">
          <mxGeometry x="820" y="4438" width="40" height="30" as="geometry" />
        </mxCell>
        <mxCell id="K2nZ_HlR3rmibXcBMbVg-105" style="edgeStyle=orthogonalEdgeStyle;rounded=0;orthogonalLoop=1;jettySize=auto;html=1;entryX=0.735;entryY=1.013;entryDx=0;entryDy=0;entryPerimeter=0;" edge="1" parent="WIyWlLk6GJQsqaUBKTNV-1" source="K2nZ_HlR3rmibXcBMbVg-102" target="K2nZ_HlR3rmibXcBMbVg-96">
          <mxGeometry relative="1" as="geometry">
            <Array as="points">
              <mxPoint x="607" y="4540" />
            </Array>
          </mxGeometry>
        </mxCell>
        <mxCell id="K2nZ_HlR3rmibXcBMbVg-106" value="Next" style="text;html=1;align=center;verticalAlign=middle;resizable=0;points=[];autosize=1;strokeColor=none;fillColor=none;" vertex="1" parent="WIyWlLk6GJQsqaUBKTNV-1">
          <mxGeometry x="610" y="4240" width="50" height="30" as="geometry" />
        </mxCell>
        <mxCell id="K2nZ_HlR3rmibXcBMbVg-109" value="No" style="text;html=1;align=center;verticalAlign=middle;resizable=0;points=[];autosize=1;strokeColor=none;fillColor=none;" vertex="1" parent="WIyWlLk6GJQsqaUBKTNV-1">
          <mxGeometry x="650" y="4328" width="40" height="30" as="geometry" />
        </mxCell>
        <mxCell id="K2nZ_HlR3rmibXcBMbVg-117" value="" style="edgeStyle=orthogonalEdgeStyle;rounded=0;orthogonalLoop=1;jettySize=auto;html=1;" edge="1" parent="WIyWlLk6GJQsqaUBKTNV-1" source="K2nZ_HlR3rmibXcBMbVg-110" target="K2nZ_HlR3rmibXcBMbVg-116">
          <mxGeometry relative="1" as="geometry" />
        </mxCell>
        <mxCell id="K2nZ_HlR3rmibXcBMbVg-110" value="&lt;div style=&quot;color: rgb(171, 178, 191); background-color: rgb(40, 44, 52); font-size: 14px; line-height: 19px; white-space: pre;&quot;&gt;form &lt;span style=&quot;color: #c678dd;&quot;&gt;=&lt;/span&gt; FormDataSheet(&lt;span style=&quot;color: #d19a66;&quot;&gt;initial&lt;/span&gt;&lt;span style=&quot;color: #c678dd;&quot;&gt;=&lt;/span&gt;form_data, &lt;span style=&quot;color: #d19a66;&quot;&gt;form_type&lt;/span&gt;&lt;span style=&quot;color: #c678dd;&quot;&gt;=&lt;/span&gt;form_type)&lt;/div&gt;" style="whiteSpace=wrap;html=1;rounded=1;" vertex="1" parent="WIyWlLk6GJQsqaUBKTNV-1">
          <mxGeometry x="350" y="4676" width="420" height="60" as="geometry" />
        </mxCell>
        <mxCell id="K2nZ_HlR3rmibXcBMbVg-113" value="No" style="text;html=1;align=center;verticalAlign=middle;resizable=0;points=[];autosize=1;strokeColor=none;fillColor=none;" vertex="1" parent="WIyWlLk6GJQsqaUBKTNV-1">
          <mxGeometry x="720" y="3898" width="40" height="30" as="geometry" />
        </mxCell>
        <mxCell id="K2nZ_HlR3rmibXcBMbVg-115" value="No" style="text;html=1;align=center;verticalAlign=middle;resizable=0;points=[];autosize=1;strokeColor=none;fillColor=none;" vertex="1" parent="WIyWlLk6GJQsqaUBKTNV-1">
          <mxGeometry x="770" y="3578" width="40" height="30" as="geometry" />
        </mxCell>
        <mxCell id="K2nZ_HlR3rmibXcBMbVg-119" value="" style="edgeStyle=orthogonalEdgeStyle;rounded=0;orthogonalLoop=1;jettySize=auto;html=1;" edge="1" parent="WIyWlLk6GJQsqaUBKTNV-1" source="K2nZ_HlR3rmibXcBMbVg-116" target="K2nZ_HlR3rmibXcBMbVg-118">
          <mxGeometry relative="1" as="geometry" />
        </mxCell>
        <mxCell id="K2nZ_HlR3rmibXcBMbVg-116" value="&lt;div style=&quot;color: rgb(171, 178, 191); background-color: rgb(40, 44, 52); font-size: 14px; line-height: 19px; white-space: pre;&quot;&gt;&lt;div&gt;aSection01Show &lt;span style=&quot;color: #c678dd;&quot;&gt;=&lt;/span&gt; &lt;span style=&quot;color: #98c379;&quot;&gt;&quot;Yes&quot;&lt;/span&gt;&lt;/div&gt;&lt;div&gt;aSection02Show &lt;span style=&quot;color: #c678dd;&quot;&gt;=&lt;/span&gt; &lt;span style=&quot;color: #98c379;&quot;&gt;&quot;Yes&quot;&lt;/span&gt;&lt;/div&gt;&lt;div&gt;aSection03Show &lt;span style=&quot;color: #c678dd;&quot;&gt;=&lt;/span&gt; &lt;span style=&quot;color: #98c379;&quot;&gt;&quot;Yes&quot;&lt;/span&gt;&lt;/div&gt;&lt;div&gt;aSection04Show &lt;span style=&quot;color: #c678dd;&quot;&gt;=&lt;/span&gt; &lt;span style=&quot;color: #98c379;&quot;&gt;&quot;Yes&quot;&lt;/span&gt;&lt;/div&gt;&lt;div&gt;aSection05Show &lt;span style=&quot;color: #c678dd;&quot;&gt;=&lt;/span&gt; &lt;span style=&quot;color: #98c379;&quot;&gt;&quot;Yes&quot;&lt;/span&gt;&lt;/div&gt;&lt;div&gt;aSection06Show &lt;span style=&quot;color: #c678dd;&quot;&gt;=&lt;/span&gt; &lt;span style=&quot;color: #98c379;&quot;&gt;&quot;Yes&quot;&lt;/span&gt;&lt;/div&gt;&lt;div&gt;aSection07Show &lt;span style=&quot;color: #c678dd;&quot;&gt;=&lt;/span&gt; &lt;span style=&quot;color: #98c379;&quot;&gt;&quot;Yes&quot;&lt;/span&gt;&lt;/div&gt;&lt;div&gt;aSection08Show &lt;span style=&quot;color: #c678dd;&quot;&gt;=&lt;/span&gt; &lt;span style=&quot;color: #98c379;&quot;&gt;&quot;Yes&quot;&lt;/span&gt;&lt;/div&gt;&lt;div&gt;aSection09Show &lt;span style=&quot;color: #c678dd;&quot;&gt;=&lt;/span&gt; &lt;span style=&quot;color: #98c379;&quot;&gt;&quot;Yes&quot;&lt;/span&gt;&lt;/div&gt;&lt;div&gt;aSection10Show &lt;span style=&quot;color: #c678dd;&quot;&gt;=&lt;/span&gt; &lt;span style=&quot;color: #98c379;&quot;&gt;&quot;Yes&quot;&lt;/span&gt;&lt;/div&gt;&lt;/div&gt;" style="whiteSpace=wrap;html=1;rounded=1;" vertex="1" parent="WIyWlLk6GJQsqaUBKTNV-1">
          <mxGeometry x="460" y="4816" width="200" height="224" as="geometry" />
        </mxCell>
        <mxCell id="K2nZ_HlR3rmibXcBMbVg-121" value="" style="edgeStyle=orthogonalEdgeStyle;rounded=0;orthogonalLoop=1;jettySize=auto;html=1;" edge="1" parent="WIyWlLk6GJQsqaUBKTNV-1" source="K2nZ_HlR3rmibXcBMbVg-118" target="K2nZ_HlR3rmibXcBMbVg-120">
          <mxGeometry relative="1" as="geometry" />
        </mxCell>
        <mxCell id="K2nZ_HlR3rmibXcBMbVg-131" style="edgeStyle=orthogonalEdgeStyle;rounded=0;orthogonalLoop=1;jettySize=auto;html=1;exitX=0.5;exitY=1;exitDx=0;exitDy=0;" edge="1" parent="WIyWlLk6GJQsqaUBKTNV-1" source="K2nZ_HlR3rmibXcBMbVg-118" target="K2nZ_HlR3rmibXcBMbVg-130">
          <mxGeometry relative="1" as="geometry" />
        </mxCell>
        <mxCell id="K2nZ_HlR3rmibXcBMbVg-118" value="&lt;div style=&quot;color: rgb(171, 178, 191); background-color: rgb(40, 44, 52); font-size: 14px; line-height: 19px; white-space: pre;&quot;&gt;&lt;div style=&quot;line-height: 19px;&quot;&gt;&lt;span style=&quot;color: #c678dd;&quot;&gt;for&lt;/span&gt; &lt;/div&gt;&lt;div style=&quot;line-height: 19px;&quot;&gt;j &lt;span style=&quot;color: #c678dd;&quot;&gt;in&lt;/span&gt; &lt;span style=&quot;color: #56b6c2;&quot;&gt;range&lt;/span&gt;(&lt;span style=&quot;color: #d19a66;&quot;&gt;1&lt;/span&gt;, &lt;span style=&quot;color: #d19a66;&quot;&gt;11&lt;/span&gt;)&lt;/div&gt;&lt;/div&gt;" style="shape=hexagon;perimeter=hexagonPerimeter2;whiteSpace=wrap;html=1;fixedSize=1;rounded=1;" vertex="1" parent="WIyWlLk6GJQsqaUBKTNV-1">
          <mxGeometry x="500" y="5080" width="120" height="80" as="geometry" />
        </mxCell>
        <mxCell id="K2nZ_HlR3rmibXcBMbVg-123" value="" style="edgeStyle=orthogonalEdgeStyle;rounded=0;orthogonalLoop=1;jettySize=auto;html=1;" edge="1" parent="WIyWlLk6GJQsqaUBKTNV-1" source="K2nZ_HlR3rmibXcBMbVg-120" target="K2nZ_HlR3rmibXcBMbVg-122">
          <mxGeometry relative="1" as="geometry" />
        </mxCell>
        <mxCell id="K2nZ_HlR3rmibXcBMbVg-120" value="&lt;div style=&quot;color: rgb(171, 178, 191); background-color: rgb(40, 44, 52); font-size: 14px; line-height: 19px; white-space: pre;&quot;&gt;&lt;span style=&quot;color: #c678dd;&quot;&gt;for&lt;/span&gt; &lt;/div&gt;&lt;div style=&quot;color: rgb(171, 178, 191); background-color: rgb(40, 44, 52); font-size: 14px; line-height: 19px; white-space: pre;&quot;&gt;i &lt;span style=&quot;color: #c678dd;&quot;&gt;in&lt;/span&gt; &lt;span style=&quot;color: #56b6c2;&quot;&gt;range&lt;/span&gt;(&lt;span style=&quot;color: #d19a66;&quot;&gt;1&lt;/span&gt;, &lt;span style=&quot;color: #d19a66;&quot;&gt;21&lt;/span&gt;)&lt;/div&gt;" style="shape=hexagon;perimeter=hexagonPerimeter2;whiteSpace=wrap;html=1;fixedSize=1;rounded=1;" vertex="1" parent="WIyWlLk6GJQsqaUBKTNV-1">
          <mxGeometry x="700" y="5080" width="120" height="80" as="geometry" />
        </mxCell>
        <mxCell id="K2nZ_HlR3rmibXcBMbVg-122" value="&lt;div style=&quot;background-color: rgb(40, 44, 52); font-size: 14px; line-height: 19px; white-space: pre; color: rgb(171, 178, 191);&quot;&gt;&lt;font color=&quot;#abb2bf&quot;&gt;aSection&lt;/font&gt;&lt;span style=&quot;color: rgb(209, 154, 102);&quot;&gt;(j)&lt;/span&gt;&lt;font color=&quot;#abb2bf&quot;&gt;FieldShow &lt;/font&gt;&lt;span style=&quot;color: rgb(198, 120, 221);&quot;&gt;=&lt;/span&gt;&lt;font color=&quot;#abb2bf&quot;&gt; {&lt;/font&gt;&lt;span style=&quot;color: rgb(198, 120, 221);&quot;&gt;f&lt;/span&gt;&lt;span style=&quot;color: rgb(152, 195, 121);&quot;&gt;&quot;aSection&lt;span style=&quot;color: rgb(209, 154, 102);&quot;&gt;(j)&lt;/span&gt;Field&lt;/span&gt;&lt;span style=&quot;color: rgb(152, 195, 121);&quot;&gt;&lt;font color=&quot;#d19a66&quot;&gt;(i)&lt;/font&gt;&lt;/span&gt;&lt;span style=&quot;color: rgb(152, 195, 121);&quot;&gt;Show&quot;&lt;/span&gt;&lt;font color=&quot;#abb2bf&quot;&gt;: &lt;/font&gt;&lt;span style=&quot;color: rgb(152, 195, 121);&quot;&gt;&quot;Yes&quot;&lt;/span&gt;&lt;font color=&quot;#abb2bf&quot;&gt; }&lt;/font&gt;&lt;/div&gt;" style="whiteSpace=wrap;html=1;rounded=1;" vertex="1" parent="WIyWlLk6GJQsqaUBKTNV-1">
          <mxGeometry x="900" y="5201" width="380" height="60" as="geometry" />
        </mxCell>
        <mxCell id="K2nZ_HlR3rmibXcBMbVg-124" style="edgeStyle=orthogonalEdgeStyle;rounded=0;orthogonalLoop=1;jettySize=auto;html=1;exitX=0.5;exitY=1;exitDx=0;exitDy=0;entryX=0.775;entryY=1.025;entryDx=0;entryDy=0;entryPerimeter=0;" edge="1" parent="WIyWlLk6GJQsqaUBKTNV-1" source="K2nZ_HlR3rmibXcBMbVg-122" target="K2nZ_HlR3rmibXcBMbVg-120">
          <mxGeometry relative="1" as="geometry" />
        </mxCell>
        <mxCell id="K2nZ_HlR3rmibXcBMbVg-125" value="Next" style="text;html=1;align=center;verticalAlign=middle;resizable=0;points=[];autosize=1;strokeColor=none;fillColor=none;" vertex="1" parent="WIyWlLk6GJQsqaUBKTNV-1">
          <mxGeometry x="875" y="5278" width="50" height="30" as="geometry" />
        </mxCell>
        <mxCell id="K2nZ_HlR3rmibXcBMbVg-126" style="edgeStyle=orthogonalEdgeStyle;rounded=0;orthogonalLoop=1;jettySize=auto;html=1;exitX=0.375;exitY=1;exitDx=0;exitDy=0;entryX=0.683;entryY=1.025;entryDx=0;entryDy=0;entryPerimeter=0;" edge="1" parent="WIyWlLk6GJQsqaUBKTNV-1" source="K2nZ_HlR3rmibXcBMbVg-120" target="K2nZ_HlR3rmibXcBMbVg-118">
          <mxGeometry relative="1" as="geometry">
            <Array as="points">
              <mxPoint x="745" y="5230" />
              <mxPoint x="582" y="5230" />
            </Array>
          </mxGeometry>
        </mxCell>
        <mxCell id="K2nZ_HlR3rmibXcBMbVg-127" value="Next" style="text;html=1;align=center;verticalAlign=middle;resizable=0;points=[];autosize=1;strokeColor=none;fillColor=none;" vertex="1" parent="WIyWlLk6GJQsqaUBKTNV-1">
          <mxGeometry x="590" y="5180" width="50" height="30" as="geometry" />
        </mxCell>
        <mxCell id="K2nZ_HlR3rmibXcBMbVg-129" value="Done" style="text;html=1;align=center;verticalAlign=middle;resizable=0;points=[];autosize=1;strokeColor=none;fillColor=none;" vertex="1" parent="WIyWlLk6GJQsqaUBKTNV-1">
          <mxGeometry x="690" y="5180" width="50" height="30" as="geometry" />
        </mxCell>
        <mxCell id="K2nZ_HlR3rmibXcBMbVg-134" value="" style="edgeStyle=orthogonalEdgeStyle;rounded=0;orthogonalLoop=1;jettySize=auto;html=1;" edge="1" parent="WIyWlLk6GJQsqaUBKTNV-1" source="K2nZ_HlR3rmibXcBMbVg-130" target="K2nZ_HlR3rmibXcBMbVg-133">
          <mxGeometry relative="1" as="geometry" />
        </mxCell>
        <mxCell id="K2nZ_HlR3rmibXcBMbVg-142" style="edgeStyle=orthogonalEdgeStyle;rounded=0;orthogonalLoop=1;jettySize=auto;html=1;exitX=0.5;exitY=1;exitDx=0;exitDy=0;" edge="1" parent="WIyWlLk6GJQsqaUBKTNV-1" source="K2nZ_HlR3rmibXcBMbVg-130" target="K2nZ_HlR3rmibXcBMbVg-143">
          <mxGeometry relative="1" as="geometry">
            <mxPoint x="560" y="5540" as="targetPoint" />
          </mxGeometry>
        </mxCell>
        <mxCell id="K2nZ_HlR3rmibXcBMbVg-130" value="&lt;div style=&quot;color: rgb(171, 178, 191); background-color: rgb(40, 44, 52); font-size: 14px; line-height: 19px; white-space: pre;&quot;&gt;&lt;div style=&quot;line-height: 19px;&quot;&gt;&lt;span style=&quot;color: #c678dd;&quot;&gt;for&lt;/span&gt; &lt;/div&gt;&lt;div style=&quot;line-height: 19px;&quot;&gt;j &lt;span style=&quot;color: #c678dd;&quot;&gt;in&lt;/span&gt; &lt;span style=&quot;color: #56b6c2;&quot;&gt;range&lt;/span&gt;(&lt;span style=&quot;color: #d19a66;&quot;&gt;1&lt;/span&gt;, &lt;span style=&quot;color: #d19a66;&quot;&gt;11&lt;/span&gt;)&lt;/div&gt;&lt;/div&gt;" style="shape=hexagon;perimeter=hexagonPerimeter2;whiteSpace=wrap;html=1;fixedSize=1;rounded=1;" vertex="1" parent="WIyWlLk6GJQsqaUBKTNV-1">
          <mxGeometry x="500" y="5330" width="120" height="80" as="geometry" />
        </mxCell>
        <mxCell id="K2nZ_HlR3rmibXcBMbVg-132" value="Done" style="text;html=1;align=center;verticalAlign=middle;resizable=0;points=[];autosize=1;strokeColor=none;fillColor=none;" vertex="1" parent="WIyWlLk6GJQsqaUBKTNV-1">
          <mxGeometry x="510" y="5200" width="50" height="30" as="geometry" />
        </mxCell>
        <mxCell id="K2nZ_HlR3rmibXcBMbVg-136" value="" style="edgeStyle=orthogonalEdgeStyle;rounded=0;orthogonalLoop=1;jettySize=auto;html=1;" edge="1" parent="WIyWlLk6GJQsqaUBKTNV-1" source="K2nZ_HlR3rmibXcBMbVg-133" target="K2nZ_HlR3rmibXcBMbVg-135">
          <mxGeometry relative="1" as="geometry" />
        </mxCell>
        <mxCell id="K2nZ_HlR3rmibXcBMbVg-140" style="edgeStyle=orthogonalEdgeStyle;rounded=0;orthogonalLoop=1;jettySize=auto;html=1;exitX=1;exitY=0.5;exitDx=0;exitDy=0;" edge="1" parent="WIyWlLk6GJQsqaUBKTNV-1" source="K2nZ_HlR3rmibXcBMbVg-133">
          <mxGeometry relative="1" as="geometry">
            <mxPoint x="910" y="5530" as="targetPoint" />
            <Array as="points">
              <mxPoint x="1120" y="5370" />
              <mxPoint x="1120" y="5530" />
            </Array>
          </mxGeometry>
        </mxCell>
        <mxCell id="K2nZ_HlR3rmibXcBMbVg-133" value="&lt;div style=&quot;color: rgb(171, 178, 191); background-color: rgb(40, 44, 52); font-size: 14px; line-height: 19px; white-space: pre;&quot;&gt;&lt;span style=&quot;color: #c678dd;&quot;&gt;if&lt;/span&gt; &lt;/div&gt;&lt;div style=&quot;color: rgb(171, 178, 191); background-color: rgb(40, 44, 52); font-size: 14px; line-height: 19px; white-space: pre;&quot;&gt;form.fields[&lt;span style=&quot;color: #98c379;&quot;&gt;&#39;oSec&lt;/span&gt;&lt;span style=&quot;color: rgb(209, 154, 102);&quot;&gt;(j)&lt;/span&gt;&lt;span style=&quot;color: #98c379;&quot;&gt;Field01&#39;&lt;/span&gt;].initial &lt;/div&gt;&lt;div style=&quot;color: rgb(171, 178, 191); background-color: rgb(40, 44, 52); font-size: 14px; line-height: 19px; white-space: pre;&quot;&gt;&lt;span style=&quot;color: #c678dd;&quot;&gt;in&lt;/span&gt; [&lt;span style=&quot;color: #98c379;&quot;&gt;&quot;oooo&quot;&lt;/span&gt;, &lt;span style=&quot;color: #d19a66;&quot;&gt;None&lt;/span&gt;]:&lt;/div&gt;" style="rhombus;whiteSpace=wrap;html=1;rounded=1;" vertex="1" parent="WIyWlLk6GJQsqaUBKTNV-1">
          <mxGeometry x="720" y="5300" width="380" height="140" as="geometry" />
        </mxCell>
        <mxCell id="K2nZ_HlR3rmibXcBMbVg-135" value="&lt;div style=&quot;color: rgb(171, 178, 191); background-color: rgb(40, 44, 52); font-size: 14px; line-height: 19px; white-space: pre;&quot;&gt;aSection&lt;span style=&quot;color: rgb(209, 154, 102);&quot;&gt;(j)&lt;/span&gt;Show &lt;span style=&quot;color: #c678dd;&quot;&gt;=&lt;/span&gt; &lt;span style=&quot;color: #98c379;&quot;&gt;&quot;Hide&quot;&lt;/span&gt;&lt;/div&gt;" style="whiteSpace=wrap;html=1;rounded=1;" vertex="1" parent="WIyWlLk6GJQsqaUBKTNV-1">
          <mxGeometry x="815" y="5470" width="190" height="40" as="geometry" />
        </mxCell>
        <mxCell id="K2nZ_HlR3rmibXcBMbVg-137" value="yes" style="text;html=1;align=center;verticalAlign=middle;resizable=0;points=[];autosize=1;strokeColor=none;fillColor=none;" vertex="1" parent="WIyWlLk6GJQsqaUBKTNV-1">
          <mxGeometry x="870" y="5440" width="40" height="30" as="geometry" />
        </mxCell>
        <mxCell id="K2nZ_HlR3rmibXcBMbVg-138" style="edgeStyle=orthogonalEdgeStyle;rounded=0;orthogonalLoop=1;jettySize=auto;html=1;exitX=0.5;exitY=1;exitDx=0;exitDy=0;entryX=0.775;entryY=0.988;entryDx=0;entryDy=0;entryPerimeter=0;" edge="1" parent="WIyWlLk6GJQsqaUBKTNV-1" source="K2nZ_HlR3rmibXcBMbVg-135" target="K2nZ_HlR3rmibXcBMbVg-130">
          <mxGeometry relative="1" as="geometry" />
        </mxCell>
        <mxCell id="K2nZ_HlR3rmibXcBMbVg-139" value="Next" style="text;html=1;align=center;verticalAlign=middle;resizable=0;points=[];autosize=1;strokeColor=none;fillColor=none;" vertex="1" parent="WIyWlLk6GJQsqaUBKTNV-1">
          <mxGeometry x="595" y="5468" width="50" height="30" as="geometry" />
        </mxCell>
        <mxCell id="K2nZ_HlR3rmibXcBMbVg-141" value="No" style="text;html=1;align=center;verticalAlign=middle;resizable=0;points=[];autosize=1;strokeColor=none;fillColor=none;" vertex="1" parent="WIyWlLk6GJQsqaUBKTNV-1">
          <mxGeometry x="1130" y="5438" width="40" height="30" as="geometry" />
        </mxCell>
        <mxCell id="K2nZ_HlR3rmibXcBMbVg-147" value="" style="edgeStyle=orthogonalEdgeStyle;rounded=0;orthogonalLoop=1;jettySize=auto;html=1;" edge="1" parent="WIyWlLk6GJQsqaUBKTNV-1" source="K2nZ_HlR3rmibXcBMbVg-143" target="K2nZ_HlR3rmibXcBMbVg-146">
          <mxGeometry relative="1" as="geometry" />
        </mxCell>
        <mxCell id="K2nZ_HlR3rmibXcBMbVg-164" value="" style="edgeStyle=orthogonalEdgeStyle;rounded=0;orthogonalLoop=1;jettySize=auto;html=1;" edge="1" parent="WIyWlLk6GJQsqaUBKTNV-1" source="K2nZ_HlR3rmibXcBMbVg-143" target="K2nZ_HlR3rmibXcBMbVg-163">
          <mxGeometry relative="1" as="geometry" />
        </mxCell>
        <mxCell id="K2nZ_HlR3rmibXcBMbVg-143" value="&lt;div style=&quot;color: rgb(171, 178, 191); background-color: rgb(40, 44, 52); font-size: 14px; line-height: 19px; white-space: pre;&quot;&gt;&lt;div style=&quot;line-height: 19px;&quot;&gt;&lt;span style=&quot;color: #c678dd;&quot;&gt;for&lt;/span&gt; &lt;/div&gt;&lt;div style=&quot;line-height: 19px;&quot;&gt;j &lt;span style=&quot;color: #c678dd;&quot;&gt;in&lt;/span&gt; &lt;span style=&quot;color: #56b6c2;&quot;&gt;range&lt;/span&gt;(&lt;span style=&quot;color: #d19a66;&quot;&gt;1&lt;/span&gt;, &lt;span style=&quot;color: #d19a66;&quot;&gt;11&lt;/span&gt;)&lt;/div&gt;&lt;/div&gt;" style="shape=hexagon;perimeter=hexagonPerimeter2;whiteSpace=wrap;html=1;fixedSize=1;rounded=1;" vertex="1" parent="WIyWlLk6GJQsqaUBKTNV-1">
          <mxGeometry x="500" y="5550" width="120" height="80" as="geometry" />
        </mxCell>
        <mxCell id="K2nZ_HlR3rmibXcBMbVg-145" value="Done" style="text;html=1;align=center;verticalAlign=middle;resizable=0;points=[];autosize=1;strokeColor=none;fillColor=none;" vertex="1" parent="WIyWlLk6GJQsqaUBKTNV-1">
          <mxGeometry x="515" y="5428" width="50" height="30" as="geometry" />
        </mxCell>
        <mxCell id="K2nZ_HlR3rmibXcBMbVg-149" value="" style="edgeStyle=orthogonalEdgeStyle;rounded=0;orthogonalLoop=1;jettySize=auto;html=1;" edge="1" parent="WIyWlLk6GJQsqaUBKTNV-1" source="K2nZ_HlR3rmibXcBMbVg-146" target="K2nZ_HlR3rmibXcBMbVg-148">
          <mxGeometry relative="1" as="geometry" />
        </mxCell>
        <mxCell id="K2nZ_HlR3rmibXcBMbVg-146" value="&lt;div style=&quot;color: rgb(171, 178, 191); background-color: rgb(40, 44, 52); font-size: 14px; line-height: 19px; white-space: pre;&quot;&gt;&lt;span style=&quot;color: #c678dd;&quot;&gt;for&lt;/span&gt; &lt;/div&gt;&lt;div style=&quot;color: rgb(171, 178, 191); background-color: rgb(40, 44, 52); font-size: 14px; line-height: 19px; white-space: pre;&quot;&gt;i &lt;span style=&quot;color: #c678dd;&quot;&gt;in&lt;/span&gt; &lt;span style=&quot;color: #56b6c2;&quot;&gt;range&lt;/span&gt;(&lt;span style=&quot;color: #d19a66;&quot;&gt;0&lt;/span&gt;, &lt;span style=&quot;color: #d19a66;&quot;&gt;10&lt;/span&gt;):&lt;/div&gt;" style="shape=hexagon;perimeter=hexagonPerimeter2;whiteSpace=wrap;html=1;fixedSize=1;rounded=1;" vertex="1" parent="WIyWlLk6GJQsqaUBKTNV-1">
          <mxGeometry x="700" y="5550" width="120" height="80" as="geometry" />
        </mxCell>
        <mxCell id="K2nZ_HlR3rmibXcBMbVg-151" value="" style="edgeStyle=orthogonalEdgeStyle;rounded=0;orthogonalLoop=1;jettySize=auto;html=1;" edge="1" parent="WIyWlLk6GJQsqaUBKTNV-1" source="K2nZ_HlR3rmibXcBMbVg-148" target="K2nZ_HlR3rmibXcBMbVg-150">
          <mxGeometry relative="1" as="geometry" />
        </mxCell>
        <mxCell id="K2nZ_HlR3rmibXcBMbVg-157" style="edgeStyle=orthogonalEdgeStyle;rounded=0;orthogonalLoop=1;jettySize=auto;html=1;exitX=1;exitY=0.5;exitDx=0;exitDy=0;" edge="1" parent="WIyWlLk6GJQsqaUBKTNV-1" source="K2nZ_HlR3rmibXcBMbVg-148">
          <mxGeometry relative="1" as="geometry">
            <mxPoint x="1015" y="5940" as="targetPoint" />
            <Array as="points">
              <mxPoint x="1280" y="5715" />
              <mxPoint x="1280" y="5940" />
            </Array>
          </mxGeometry>
        </mxCell>
        <mxCell id="K2nZ_HlR3rmibXcBMbVg-148" value="&lt;div style=&quot;color: rgb(171, 178, 191); background-color: rgb(40, 44, 52); font-size: 14px; line-height: 19px; white-space: pre;&quot;&gt;&lt;span style=&quot;color: #c678dd;&quot;&gt;if&lt;/span&gt; &lt;/div&gt;&lt;div style=&quot;color: rgb(171, 178, 191); background-color: rgb(40, 44, 52); font-size: 14px; line-height: 19px; white-space: pre;&quot;&gt;form.fields[&lt;span style=&quot;color: #98c379;&quot;&gt;oSec&lt;span style=&quot;color: rgb(171, 178, 191);&quot;&gt;(j&lt;/span&gt;&lt;span style=&quot;color: rgb(171, 178, 191);&quot;&gt;)&lt;/span&gt;Field&lt;/span&gt;(i&lt;span style=&quot;color: #c678dd;&quot;&gt;*&lt;/span&gt;&lt;span style=&quot;color: #d19a66;&quot;&gt;2&lt;/span&gt;&lt;span style=&quot;color: #c678dd;&quot;&gt;+&lt;/span&gt;&lt;span style=&quot;color: #d19a66;&quot;&gt;1&lt;/span&gt;)].initial &lt;/div&gt;&lt;div style=&quot;color: rgb(171, 178, 191); background-color: rgb(40, 44, 52); font-size: 14px; line-height: 19px; white-space: pre;&quot;&gt;&lt;span style=&quot;color: #c678dd;&quot;&gt;in&lt;/span&gt; [&lt;span style=&quot;color: #98c379;&quot;&gt;&quot;oooo&quot;&lt;/span&gt;, &lt;span style=&quot;color: #d19a66;&quot;&gt;None&lt;/span&gt;, &lt;span style=&quot;color: #98c379;&quot;&gt;&quot;&quot;&lt;/span&gt;]:&lt;/div&gt;" style="rhombus;whiteSpace=wrap;html=1;rounded=1;" vertex="1" parent="WIyWlLk6GJQsqaUBKTNV-1">
          <mxGeometry x="840" y="5640" width="350" height="150" as="geometry" />
        </mxCell>
        <mxCell id="K2nZ_HlR3rmibXcBMbVg-150" value="&lt;div style=&quot;color: rgb(171, 178, 191); background-color: rgb(40, 44, 52); font-size: 14px; line-height: 19px; white-space: pre;&quot;&gt;&lt;div&gt;aSection(j)FieldShow[&lt;span style=&quot;color: #c678dd;&quot;&gt;f&lt;/span&gt;&lt;span style=&quot;color: #98c379;&quot;&gt;&quot;aSection&lt;span style=&quot;color: rgb(171, 178, 191);&quot;&gt;(j&lt;/span&gt;&lt;span style=&quot;color: rgb(171, 178, 191);&quot;&gt;)&lt;/span&gt;Field&lt;/span&gt;(i&lt;span style=&quot;color: #c678dd;&quot;&gt;*&lt;/span&gt;&lt;span style=&quot;color: #d19a66;&quot;&gt;2&lt;/span&gt;&lt;span style=&quot;color: #c678dd;&quot;&gt;+&lt;/span&gt;&lt;span style=&quot;color: #d19a66;&quot;&gt;1&lt;/span&gt;)&lt;span style=&quot;color: #98c379;&quot;&gt;Show&quot;&lt;/span&gt;] &lt;span style=&quot;color: #c678dd;&quot;&gt;=&lt;/span&gt; &lt;span style=&quot;color: #98c379;&quot;&gt;&quot;Hide&quot;&lt;/span&gt;&lt;/div&gt;&lt;div&gt;aSection(j)FieldShow[&lt;span style=&quot;color: #c678dd;&quot;&gt;f&lt;/span&gt;&lt;span style=&quot;color: #98c379;&quot;&gt;&quot;aSection&lt;span style=&quot;color: rgb(171, 178, 191);&quot;&gt;(j&lt;/span&gt;&lt;span style=&quot;color: rgb(171, 178, 191);&quot;&gt;)&lt;/span&gt;Field&lt;/span&gt;(i&lt;span style=&quot;color: #c678dd;&quot;&gt;*&lt;/span&gt;&lt;span style=&quot;color: #d19a66;&quot;&gt;2&lt;/span&gt;&lt;span style=&quot;color: #c678dd;&quot;&gt;+&lt;/span&gt;&lt;span style=&quot;color: #d19a66;&quot;&gt;2&lt;/span&gt;)&lt;span style=&quot;color: #98c379;&quot;&gt;Show&quot;&lt;/span&gt;] &lt;span style=&quot;color: #c678dd;&quot;&gt;=&lt;/span&gt; &lt;span style=&quot;color: #98c379;&quot;&gt;&quot;Hide&quot;&lt;/span&gt;&lt;/div&gt;&lt;/div&gt;" style="whiteSpace=wrap;html=1;rounded=1;" vertex="1" parent="WIyWlLk6GJQsqaUBKTNV-1">
          <mxGeometry x="810" y="5860" width="410" height="60" as="geometry" />
        </mxCell>
        <mxCell id="K2nZ_HlR3rmibXcBMbVg-152" value="yes" style="text;html=1;align=center;verticalAlign=middle;resizable=0;points=[];autosize=1;strokeColor=none;fillColor=none;" vertex="1" parent="WIyWlLk6GJQsqaUBKTNV-1">
          <mxGeometry x="970" y="5808" width="40" height="30" as="geometry" />
        </mxCell>
        <mxCell id="K2nZ_HlR3rmibXcBMbVg-155" style="edgeStyle=orthogonalEdgeStyle;rounded=0;orthogonalLoop=1;jettySize=auto;html=1;exitX=0.5;exitY=1;exitDx=0;exitDy=0;entryX=0.683;entryY=0.95;entryDx=0;entryDy=0;entryPerimeter=0;" edge="1" parent="WIyWlLk6GJQsqaUBKTNV-1" source="K2nZ_HlR3rmibXcBMbVg-150" target="K2nZ_HlR3rmibXcBMbVg-146">
          <mxGeometry relative="1" as="geometry" />
        </mxCell>
        <mxCell id="K2nZ_HlR3rmibXcBMbVg-156" value="Next" style="text;html=1;align=center;verticalAlign=middle;resizable=0;points=[];autosize=1;strokeColor=none;fillColor=none;" vertex="1" parent="WIyWlLk6GJQsqaUBKTNV-1">
          <mxGeometry x="780" y="5658" width="50" height="30" as="geometry" />
        </mxCell>
        <mxCell id="K2nZ_HlR3rmibXcBMbVg-158" value="No" style="text;html=1;align=center;verticalAlign=middle;resizable=0;points=[];autosize=1;strokeColor=none;fillColor=none;" vertex="1" parent="WIyWlLk6GJQsqaUBKTNV-1">
          <mxGeometry x="1210" y="5678" width="40" height="30" as="geometry" />
        </mxCell>
        <mxCell id="K2nZ_HlR3rmibXcBMbVg-159" style="edgeStyle=orthogonalEdgeStyle;rounded=0;orthogonalLoop=1;jettySize=auto;html=1;exitX=0.5;exitY=1;exitDx=0;exitDy=0;entryX=0.808;entryY=1.013;entryDx=0;entryDy=0;entryPerimeter=0;" edge="1" parent="WIyWlLk6GJQsqaUBKTNV-1" source="K2nZ_HlR3rmibXcBMbVg-146" target="K2nZ_HlR3rmibXcBMbVg-143">
          <mxGeometry relative="1" as="geometry">
            <Array as="points">
              <mxPoint x="760" y="5750" />
              <mxPoint x="597" y="5750" />
            </Array>
          </mxGeometry>
        </mxCell>
        <mxCell id="K2nZ_HlR3rmibXcBMbVg-160" value="Done" style="text;html=1;align=center;verticalAlign=middle;resizable=0;points=[];autosize=1;strokeColor=none;fillColor=none;" vertex="1" parent="WIyWlLk6GJQsqaUBKTNV-1">
          <mxGeometry x="710" y="5660" width="50" height="30" as="geometry" />
        </mxCell>
        <mxCell id="K2nZ_HlR3rmibXcBMbVg-161" value="Next" style="text;html=1;align=center;verticalAlign=middle;resizable=0;points=[];autosize=1;strokeColor=none;fillColor=none;" vertex="1" parent="WIyWlLk6GJQsqaUBKTNV-1">
          <mxGeometry x="600" y="5660" width="50" height="30" as="geometry" />
        </mxCell>
        <mxCell id="K2nZ_HlR3rmibXcBMbVg-166" value="" style="edgeStyle=orthogonalEdgeStyle;rounded=0;orthogonalLoop=1;jettySize=auto;html=1;" edge="1" parent="WIyWlLk6GJQsqaUBKTNV-1" source="K2nZ_HlR3rmibXcBMbVg-163" target="K2nZ_HlR3rmibXcBMbVg-165">
          <mxGeometry relative="1" as="geometry" />
        </mxCell>
        <mxCell id="K2nZ_HlR3rmibXcBMbVg-163" value="&lt;div style=&quot;color: rgb(171, 178, 191); background-color: rgb(40, 44, 52); font-size: 14px; line-height: 19px; white-space: pre;&quot;&gt;&lt;span style=&quot;color: #c678dd;&quot;&gt;return &lt;/span&gt;&amp;nbsp;render(request, &lt;span style=&quot;color: rgb(152, 195, 121);&quot;&gt;&quot;PageDataSheet.html&quot;&lt;/span&gt;, {&lt;/div&gt;&lt;div style=&quot;color: rgb(171, 178, 191); background-color: rgb(40, 44, 52); font-size: 14px; line-height: 19px; white-space: pre;&quot;&gt;&lt;div&gt;&amp;nbsp; &amp;nbsp; &amp;nbsp; &amp;nbsp; &amp;nbsp; &amp;nbsp; &lt;span style=&quot;color: #98c379;&quot;&gt;&quot;form&quot;&lt;/span&gt;: form,&lt;/div&gt;&lt;div&gt;&amp;nbsp; &amp;nbsp; &amp;nbsp; &amp;nbsp; &amp;nbsp; &amp;nbsp; &lt;span style=&quot;color: #98c379;&quot;&gt;&quot;machines&quot;&lt;/span&gt;: machines,&lt;/div&gt;&lt;div&gt;&amp;nbsp; &amp;nbsp; &amp;nbsp; &amp;nbsp; &amp;nbsp; &amp;nbsp; &lt;span style=&quot;color: #98c379;&quot;&gt;&quot;projects&quot;&lt;/span&gt;: projects,&lt;/div&gt;&lt;div&gt;&amp;nbsp; &amp;nbsp; &amp;nbsp; &amp;nbsp; &amp;nbsp; &amp;nbsp; &lt;span style=&quot;color: #98c379;&quot;&gt;&quot;aMachineName&quot;&lt;/span&gt;: aMachineName,&lt;/div&gt;&lt;div&gt;&amp;nbsp; &amp;nbsp; &amp;nbsp; &amp;nbsp; &amp;nbsp; &amp;nbsp; &lt;span style=&quot;color: #98c379;&quot;&gt;&quot;user_company&quot;&lt;/span&gt;: user_company,&lt;/div&gt;&lt;div&gt;&amp;nbsp; &amp;nbsp; &amp;nbsp; &amp;nbsp; &amp;nbsp; &amp;nbsp; &lt;span style=&quot;color: #98c379;&quot;&gt;&quot;sheet_key&quot;&lt;/span&gt;: sheet_key,&lt;/div&gt;&lt;div&gt;&amp;nbsp; &amp;nbsp; &amp;nbsp; &amp;nbsp; &amp;nbsp; &amp;nbsp; &lt;span style=&quot;color: #98c379;&quot;&gt;&quot;sheet_keys&quot;&lt;/span&gt;: sheet_keys,&lt;/div&gt;&lt;div&gt;&amp;nbsp; &amp;nbsp; &amp;nbsp; &amp;nbsp; &amp;nbsp; &amp;nbsp; &lt;span style=&quot;color: #98c379;&quot;&gt;&quot;machineShow&quot;&lt;/span&gt;: machineShow,&lt;/div&gt;&lt;div&gt;&amp;nbsp; &amp;nbsp; &amp;nbsp; &amp;nbsp; &amp;nbsp; &amp;nbsp; &lt;span style=&quot;color: #98c379;&quot;&gt;&quot;aSection01Show&quot;&lt;/span&gt;: aSection01Show,&lt;/div&gt;&lt;div&gt;&amp;nbsp; &amp;nbsp; &amp;nbsp; &amp;nbsp; &amp;nbsp; &amp;nbsp; &lt;span style=&quot;color: #98c379;&quot;&gt;&quot;aSection02Show&quot;&lt;/span&gt;: aSection02Show,&lt;/div&gt;&lt;div&gt;&amp;nbsp; &amp;nbsp; &amp;nbsp; &amp;nbsp; &amp;nbsp; &amp;nbsp; &lt;span style=&quot;color: #98c379;&quot;&gt;&quot;aSection03Show&quot;&lt;/span&gt;: aSection03Show,&lt;/div&gt;&lt;div&gt;&amp;nbsp; &amp;nbsp; &amp;nbsp; &amp;nbsp; &amp;nbsp; &amp;nbsp; &lt;span style=&quot;color: #98c379;&quot;&gt;&quot;aSection04Show&quot;&lt;/span&gt;: aSection04Show,&lt;/div&gt;&lt;div&gt;&amp;nbsp; &amp;nbsp; &amp;nbsp; &amp;nbsp; &amp;nbsp; &amp;nbsp; &lt;span style=&quot;color: #98c379;&quot;&gt;&quot;aSection05Show&quot;&lt;/span&gt;: aSection05Show,&lt;/div&gt;&lt;div&gt;&amp;nbsp; &amp;nbsp; &amp;nbsp; &amp;nbsp; &amp;nbsp; &amp;nbsp; &lt;span style=&quot;color: #98c379;&quot;&gt;&quot;aSection06Show&quot;&lt;/span&gt;: aSection06Show,&lt;/div&gt;&lt;div&gt;&amp;nbsp; &amp;nbsp; &amp;nbsp; &amp;nbsp; &amp;nbsp; &amp;nbsp; &lt;span style=&quot;color: #98c379;&quot;&gt;&quot;aSection07Show&quot;&lt;/span&gt;: aSection07Show,&lt;/div&gt;&lt;div&gt;&amp;nbsp; &amp;nbsp; &amp;nbsp; &amp;nbsp; &amp;nbsp; &amp;nbsp; &lt;span style=&quot;color: #98c379;&quot;&gt;&quot;aSection08Show&quot;&lt;/span&gt;: aSection08Show,&lt;/div&gt;&lt;div&gt;&amp;nbsp; &amp;nbsp; &amp;nbsp; &amp;nbsp; &amp;nbsp; &amp;nbsp; &lt;span style=&quot;color: #98c379;&quot;&gt;&quot;aSection09Show&quot;&lt;/span&gt;: aSection09Show,&lt;/div&gt;&lt;div&gt;&amp;nbsp; &amp;nbsp; &amp;nbsp; &amp;nbsp; &amp;nbsp; &amp;nbsp; &lt;span style=&quot;color: #98c379;&quot;&gt;&quot;aSection10Show&quot;&lt;/span&gt;: aSection10Show,&lt;/div&gt;&lt;div&gt;&amp;nbsp; &amp;nbsp; &amp;nbsp; &amp;nbsp; &amp;nbsp; &amp;nbsp; &lt;span style=&quot;color: #c678dd;&quot;&gt;**&lt;/span&gt;aSection01FieldShow,&lt;/div&gt;&lt;div&gt;&amp;nbsp; &amp;nbsp; &amp;nbsp; &amp;nbsp; &amp;nbsp; &amp;nbsp; &lt;span style=&quot;color: #c678dd;&quot;&gt;**&lt;/span&gt;aSection02FieldShow,&lt;/div&gt;&lt;div&gt;&amp;nbsp; &amp;nbsp; &amp;nbsp; &amp;nbsp; &amp;nbsp; &amp;nbsp; &lt;span style=&quot;color: #c678dd;&quot;&gt;**&lt;/span&gt;aSection03FieldShow,&lt;/div&gt;&lt;div&gt;&amp;nbsp; &amp;nbsp; &amp;nbsp; &amp;nbsp; &amp;nbsp; &amp;nbsp; &lt;span style=&quot;color: #c678dd;&quot;&gt;**&lt;/span&gt;aSection04FieldShow,&lt;/div&gt;&lt;div&gt;&amp;nbsp; &amp;nbsp; &amp;nbsp; &amp;nbsp; &amp;nbsp; &amp;nbsp; &lt;span style=&quot;color: #c678dd;&quot;&gt;**&lt;/span&gt;aSection05FieldShow,&lt;/div&gt;&lt;div&gt;&amp;nbsp; &amp;nbsp; &amp;nbsp; &amp;nbsp; &amp;nbsp; &amp;nbsp; &lt;span style=&quot;color: #c678dd;&quot;&gt;**&lt;/span&gt;aSection06FieldShow,&lt;/div&gt;&lt;div&gt;&amp;nbsp; &amp;nbsp; &amp;nbsp; &amp;nbsp; &amp;nbsp; &amp;nbsp; &lt;span style=&quot;color: #c678dd;&quot;&gt;**&lt;/span&gt;aSection07FieldShow,&lt;/div&gt;&lt;div&gt;&amp;nbsp; &amp;nbsp; &amp;nbsp; &amp;nbsp; &amp;nbsp; &amp;nbsp; &lt;span style=&quot;color: #c678dd;&quot;&gt;**&lt;/span&gt;aSection08FieldShow,&lt;/div&gt;&lt;div&gt;&amp;nbsp; &amp;nbsp; &amp;nbsp; &amp;nbsp; &amp;nbsp; &amp;nbsp; &lt;span style=&quot;color: #c678dd;&quot;&gt;**&lt;/span&gt;aSection09FieldShow,&lt;/div&gt;&lt;div&gt;&amp;nbsp; &amp;nbsp; &amp;nbsp; &amp;nbsp; &amp;nbsp; &amp;nbsp; &lt;span style=&quot;color: #c678dd;&quot;&gt;**&lt;/span&gt;aSection10FieldShow,&lt;/div&gt;&lt;div&gt;&amp;nbsp; &amp;nbsp; &amp;nbsp; &amp;nbsp; &amp;nbsp; &amp;nbsp; &lt;span style=&quot;color: #98c379;&quot;&gt;&quot;initial_values&quot;&lt;/span&gt;: json.dumps(initial_values),&lt;/div&gt;&lt;div&gt;&amp;nbsp; &amp;nbsp; &amp;nbsp; &amp;nbsp; })&lt;/div&gt;&lt;/div&gt;" style="whiteSpace=wrap;html=1;rounded=1;" vertex="1" parent="WIyWlLk6GJQsqaUBKTNV-1">
          <mxGeometry x="450" y="5980" width="390" height="630" as="geometry" />
        </mxCell>
        <mxCell id="K2nZ_HlR3rmibXcBMbVg-165" value="&lt;div style=&quot;color: rgb(171, 178, 191); background-color: rgb(40, 44, 52); font-size: 14px; line-height: 19px; white-space: pre;&quot;&gt;&lt;span style=&quot;color: #c678dd;&quot;&gt;End&lt;/span&gt;&lt;/div&gt;" style="whiteSpace=wrap;html=1;rounded=1;" vertex="1" parent="WIyWlLk6GJQsqaUBKTNV-1">
          <mxGeometry x="585" y="6670" width="120" height="60" as="geometry" />
        </mxCell>
        <mxCell id="K2nZ_HlR3rmibXcBMbVg-173" value="" style="edgeStyle=orthogonalEdgeStyle;rounded=0;orthogonalLoop=1;jettySize=auto;html=1;" edge="1" parent="WIyWlLk6GJQsqaUBKTNV-1" source="K2nZ_HlR3rmibXcBMbVg-169" target="K2nZ_HlR3rmibXcBMbVg-172">
          <mxGeometry relative="1" as="geometry" />
        </mxCell>
        <mxCell id="K2nZ_HlR3rmibXcBMbVg-169" value="&lt;div style=&quot;color: rgb(171, 178, 191); background-color: rgb(40, 44, 52); font-size: 14px; line-height: 19px; white-space: pre;&quot;&gt;&amp;nbsp;form &lt;span style=&quot;color: #c678dd;&quot;&gt;=&lt;/span&gt; enitital data from FormDataSheet for form type&lt;/div&gt;" style="rounded=1;whiteSpace=wrap;html=1;" vertex="1" parent="WIyWlLk6GJQsqaUBKTNV-1">
          <mxGeometry x="40" y="3330" width="360" height="60" as="geometry" />
        </mxCell>
        <mxCell id="K2nZ_HlR3rmibXcBMbVg-171" value="yes" style="text;html=1;align=center;verticalAlign=middle;resizable=0;points=[];autosize=1;strokeColor=none;fillColor=none;" vertex="1" parent="WIyWlLk6GJQsqaUBKTNV-1">
          <mxGeometry x="170" y="3268" width="40" height="30" as="geometry" />
        </mxCell>
        <mxCell id="K2nZ_HlR3rmibXcBMbVg-178" value="" style="edgeStyle=orthogonalEdgeStyle;rounded=0;orthogonalLoop=1;jettySize=auto;html=1;" edge="1" parent="WIyWlLk6GJQsqaUBKTNV-1" source="K2nZ_HlR3rmibXcBMbVg-172" target="K2nZ_HlR3rmibXcBMbVg-177">
          <mxGeometry relative="1" as="geometry" />
        </mxCell>
        <mxCell id="K2nZ_HlR3rmibXcBMbVg-172" value="&lt;div style=&quot;color: rgb(171, 178, 191); background-color: rgb(40, 44, 52); font-size: 14px; line-height: 19px; white-space: pre;&quot;&gt;&lt;span style=&quot;color: #c678dd;&quot;&gt;if&lt;/span&gt; &lt;/div&gt;&lt;div style=&quot;color: rgb(171, 178, 191); background-color: rgb(40, 44, 52); font-size: 14px; line-height: 19px; white-space: pre;&quot;&gt;form.is_valid&lt;/div&gt;" style="rhombus;whiteSpace=wrap;html=1;rounded=1;" vertex="1" parent="WIyWlLk6GJQsqaUBKTNV-1">
          <mxGeometry x="150" y="3460" width="140" height="100" as="geometry" />
        </mxCell>
        <mxCell id="K2nZ_HlR3rmibXcBMbVg-174" value="&lt;div style=&quot;color: rgb(171, 178, 191); background-color: rgb(40, 44, 52); font-size: 14px; line-height: 19px; white-space: pre;&quot;&gt;&lt;span style=&quot;color: #c678dd;&quot;&gt;return&lt;/span&gt; redirect(&lt;span style=&quot;color: #98c379;&quot;&gt;&quot;PageDataSheet&quot;&lt;/span&gt;)&lt;/div&gt;" style="rounded=1;whiteSpace=wrap;html=1;" vertex="1" parent="WIyWlLk6GJQsqaUBKTNV-1">
          <mxGeometry x="-360" y="3095" width="230" height="60" as="geometry" />
        </mxCell>
        <mxCell id="K2nZ_HlR3rmibXcBMbVg-176" value="No" style="text;html=1;align=center;verticalAlign=middle;resizable=0;points=[];autosize=1;strokeColor=none;fillColor=none;" vertex="1" parent="WIyWlLk6GJQsqaUBKTNV-1">
          <mxGeometry x="-70" y="3085" width="40" height="30" as="geometry" />
        </mxCell>
        <mxCell id="K2nZ_HlR3rmibXcBMbVg-183" value="" style="edgeStyle=orthogonalEdgeStyle;rounded=0;orthogonalLoop=1;jettySize=auto;html=1;" edge="1" parent="WIyWlLk6GJQsqaUBKTNV-1" source="K2nZ_HlR3rmibXcBMbVg-177" target="K2nZ_HlR3rmibXcBMbVg-182">
          <mxGeometry relative="1" as="geometry" />
        </mxCell>
        <mxCell id="K2nZ_HlR3rmibXcBMbVg-177" value="&lt;div style=&quot;color: rgb(171, 178, 191); background-color: rgb(40, 44, 52); font-size: 14px; line-height: 19px; white-space: pre;&quot;&gt;instance &lt;span style=&quot;color: #c678dd;&quot;&gt;=&lt;/span&gt; form.save(&lt;span style=&quot;color: #d19a66;&quot;&gt;commit&lt;/span&gt;&lt;span style=&quot;color: #c678dd;&quot;&gt;=&lt;/span&gt;&lt;span style=&quot;color: #d19a66;&quot;&gt;False&lt;/span&gt;) &lt;/div&gt;" style="rounded=1;whiteSpace=wrap;html=1;" vertex="1" parent="WIyWlLk6GJQsqaUBKTNV-1">
          <mxGeometry x="90" y="3610" width="260" height="60" as="geometry" />
        </mxCell>
        <mxCell id="K2nZ_HlR3rmibXcBMbVg-179" value="yes" style="text;html=1;align=center;verticalAlign=middle;resizable=0;points=[];autosize=1;strokeColor=none;fillColor=none;" vertex="1" parent="WIyWlLk6GJQsqaUBKTNV-1">
          <mxGeometry x="180" y="3568" width="40" height="30" as="geometry" />
        </mxCell>
        <mxCell id="K2nZ_HlR3rmibXcBMbVg-185" value="" style="edgeStyle=orthogonalEdgeStyle;rounded=0;orthogonalLoop=1;jettySize=auto;html=1;" edge="1" parent="WIyWlLk6GJQsqaUBKTNV-1" source="K2nZ_HlR3rmibXcBMbVg-182" target="K2nZ_HlR3rmibXcBMbVg-184">
          <mxGeometry relative="1" as="geometry" />
        </mxCell>
        <mxCell id="K2nZ_HlR3rmibXcBMbVg-182" value="&lt;div style=&quot;color: rgb(171, 178, 191); background-color: rgb(40, 44, 52); font-size: 14px; line-height: 19px; white-space: pre;&quot;&gt;&lt;div&gt;instance.oSec00Field01 &lt;span style=&quot;color: #c678dd;&quot;&gt;=&lt;/span&gt; Username&lt;/div&gt;&lt;div&gt;instance.oSec00Field02 &lt;span style=&quot;color: #c678dd;&quot;&gt;=&lt;/span&gt; Timestamp&lt;/div&gt;&lt;div&gt;instance.oSec00Field03 &lt;span style=&quot;color: #c678dd;&quot;&gt;=&lt;/span&gt; DB_Name&lt;/div&gt;&lt;/div&gt;" style="rounded=1;whiteSpace=wrap;html=1;" vertex="1" parent="WIyWlLk6GJQsqaUBKTNV-1">
          <mxGeometry x="90" y="3820" width="260" height="80" as="geometry" />
        </mxCell>
        <mxCell id="K2nZ_HlR3rmibXcBMbVg-187" value="" style="edgeStyle=orthogonalEdgeStyle;rounded=0;orthogonalLoop=1;jettySize=auto;html=1;" edge="1" parent="WIyWlLk6GJQsqaUBKTNV-1" source="K2nZ_HlR3rmibXcBMbVg-184" target="K2nZ_HlR3rmibXcBMbVg-186">
          <mxGeometry relative="1" as="geometry" />
        </mxCell>
        <mxCell id="K2nZ_HlR3rmibXcBMbVg-184" value="&lt;div style=&quot;color: rgb(171, 178, 191); background-color: rgb(40, 44, 52); font-size: 14px; line-height: 19px; white-space: pre;&quot;&gt;project_id &lt;span style=&quot;color: #c678dd;&quot;&gt;=&lt;/span&gt; get the project ID&lt;/div&gt;" style="rounded=1;whiteSpace=wrap;html=1;" vertex="1" parent="WIyWlLk6GJQsqaUBKTNV-1">
          <mxGeometry x="120" y="3948" width="200" height="60" as="geometry" />
        </mxCell>
        <mxCell id="K2nZ_HlR3rmibXcBMbVg-189" value="" style="edgeStyle=orthogonalEdgeStyle;rounded=0;orthogonalLoop=1;jettySize=auto;html=1;" edge="1" parent="WIyWlLk6GJQsqaUBKTNV-1" source="K2nZ_HlR3rmibXcBMbVg-186" target="K2nZ_HlR3rmibXcBMbVg-188">
          <mxGeometry relative="1" as="geometry" />
        </mxCell>
        <mxCell id="K2nZ_HlR3rmibXcBMbVg-198" value="" style="edgeStyle=orthogonalEdgeStyle;rounded=0;orthogonalLoop=1;jettySize=auto;html=1;" edge="1" parent="WIyWlLk6GJQsqaUBKTNV-1" source="K2nZ_HlR3rmibXcBMbVg-186" target="K2nZ_HlR3rmibXcBMbVg-197">
          <mxGeometry relative="1" as="geometry" />
        </mxCell>
        <mxCell id="K2nZ_HlR3rmibXcBMbVg-186" value="&lt;div style=&quot;color: rgb(171, 178, 191); background-color: rgb(40, 44, 52); font-size: 14px; line-height: 19px; white-space: pre;&quot;&gt;&lt;span style=&quot;color: #c678dd;&quot;&gt;if&lt;/span&gt; &lt;/div&gt;&lt;div style=&quot;color: rgb(171, 178, 191); background-color: rgb(40, 44, 52); font-size: 14px; line-height: 19px; white-space: pre;&quot;&gt;project_id exist&lt;/div&gt;" style="rhombus;whiteSpace=wrap;html=1;rounded=1;" vertex="1" parent="WIyWlLk6GJQsqaUBKTNV-1">
          <mxGeometry x="130" y="4078" width="180" height="92" as="geometry" />
        </mxCell>
        <mxCell id="K2nZ_HlR3rmibXcBMbVg-191" value="" style="edgeStyle=orthogonalEdgeStyle;rounded=0;orthogonalLoop=1;jettySize=auto;html=1;" edge="1" parent="WIyWlLk6GJQsqaUBKTNV-1" source="K2nZ_HlR3rmibXcBMbVg-188" target="K2nZ_HlR3rmibXcBMbVg-190">
          <mxGeometry relative="1" as="geometry" />
        </mxCell>
        <mxCell id="K2nZ_HlR3rmibXcBMbVg-194" value="" style="edgeStyle=orthogonalEdgeStyle;rounded=0;orthogonalLoop=1;jettySize=auto;html=1;" edge="1" parent="WIyWlLk6GJQsqaUBKTNV-1" source="K2nZ_HlR3rmibXcBMbVg-188" target="K2nZ_HlR3rmibXcBMbVg-193">
          <mxGeometry relative="1" as="geometry" />
        </mxCell>
        <mxCell id="K2nZ_HlR3rmibXcBMbVg-188" value="&lt;div style=&quot;color: rgb(171, 178, 191); background-color: rgb(40, 44, 52); font-size: 14px; line-height: 19px; white-space: pre;&quot;&gt;&lt;span style=&quot;color: #c678dd;&quot;&gt;try&lt;/span&gt;&lt;/div&gt;&lt;div style=&quot;color: rgb(171, 178, 191); background-color: rgb(40, 44, 52); font-size: 14px; line-height: 19px; white-space: pre;&quot;&gt;&lt;span style=&quot;color: #c678dd;&quot;&gt;if &lt;/span&gt;&lt;/div&gt;&lt;div style=&quot;color: rgb(171, 178, 191); background-color: rgb(40, 44, 52); font-size: 14px; line-height: 19px; white-space: pre;&quot;&gt;APP_Project Exist&lt;/div&gt;" style="rhombus;whiteSpace=wrap;html=1;rounded=1;" vertex="1" parent="WIyWlLk6GJQsqaUBKTNV-1">
          <mxGeometry x="90" y="4256" width="260" height="164" as="geometry" />
        </mxCell>
        <mxCell id="K2nZ_HlR3rmibXcBMbVg-204" style="edgeStyle=orthogonalEdgeStyle;rounded=0;orthogonalLoop=1;jettySize=auto;html=1;exitX=0.5;exitY=1;exitDx=0;exitDy=0;" edge="1" parent="WIyWlLk6GJQsqaUBKTNV-1" source="K2nZ_HlR3rmibXcBMbVg-190" target="K2nZ_HlR3rmibXcBMbVg-203">
          <mxGeometry relative="1" as="geometry" />
        </mxCell>
        <mxCell id="K2nZ_HlR3rmibXcBMbVg-190" value="&lt;div style=&quot;color: rgb(171, 178, 191); background-color: rgb(40, 44, 52); font-size: 14px; line-height: 19px; white-space: pre;&quot;&gt;instance.project &lt;span style=&quot;color: #c678dd;&quot;&gt;=&lt;/span&gt; the project data for the project ID&lt;/div&gt;" style="rounded=1;whiteSpace=wrap;html=1;" vertex="1" parent="WIyWlLk6GJQsqaUBKTNV-1">
          <mxGeometry x="40" y="4552" width="360" height="60" as="geometry" />
        </mxCell>
        <mxCell id="K2nZ_HlR3rmibXcBMbVg-192" value="yes" style="text;html=1;align=center;verticalAlign=middle;resizable=0;points=[];autosize=1;strokeColor=none;fillColor=none;" vertex="1" parent="WIyWlLk6GJQsqaUBKTNV-1">
          <mxGeometry x="170" y="4448" width="40" height="30" as="geometry" />
        </mxCell>
        <mxCell id="K2nZ_HlR3rmibXcBMbVg-196" value="" style="edgeStyle=orthogonalEdgeStyle;rounded=0;orthogonalLoop=1;jettySize=auto;html=1;" edge="1" parent="WIyWlLk6GJQsqaUBKTNV-1" source="K2nZ_HlR3rmibXcBMbVg-193" target="K2nZ_HlR3rmibXcBMbVg-195">
          <mxGeometry relative="1" as="geometry" />
        </mxCell>
        <UserObject label="&lt;div style=&quot;color: #abb2bf;background-color: #282c34;font-family: &#39;Consolas&#39;, &#39;Courier New&#39;, monospace,, Consolas, &#39;Courier New&#39;, monospace;font-weight: normal;font-size: 14px;line-height: 19px;white-space: pre;&quot;&gt;&lt;div&gt;&lt;span style=&quot;color: #c678dd;&quot;&gt;return&lt;/span&gt;&lt;span style=&quot;color: #abb2bf;&quot;&gt; render(request, &lt;/span&gt;&lt;/div&gt;&lt;div&gt;&lt;span style=&quot;color: #98c379;&quot;&gt;&quot;PageDataSheet.html&quot;&lt;/span&gt;&lt;span style=&quot;color: #abb2bf;&quot;&gt;, &lt;br/&gt;{&lt;/span&gt;&lt;/div&gt;&lt;div&gt;&lt;span style=&quot;color: #98c379;&quot;&gt;&quot;form&quot;&lt;/span&gt;&lt;span style=&quot;color: #abb2bf;&quot;&gt;: form, &lt;/span&gt;&lt;/div&gt;&lt;div&gt;&lt;span style=&quot;color: #98c379;&quot;&gt;&quot;sheet_keys&quot;&lt;/span&gt;&lt;span style=&quot;color: #abb2bf;&quot;&gt;: sheet_keys, &lt;/span&gt;&lt;/div&gt;&lt;div&gt;&lt;span style=&quot;color: #98c379;&quot;&gt;&quot;error&quot;&lt;/span&gt;&lt;span style=&quot;color: #abb2bf;&quot;&gt;: &lt;/span&gt;&lt;span style=&quot;color: #98c379;&quot;&gt;&quot;Invalid Project ID&quot;&lt;/span&gt;&lt;/div&gt;&lt;div&gt;&lt;span style=&quot;color: #abb2bf;&quot;&gt;})&lt;/span&gt;&lt;/div&gt;&lt;/div&gt;" link="&#xa;&lt;div style=&quot;color: #abb2bf;background-color: #282c34;font-family: &#39;Consolas&#39;, &#39;Courier New&#39;, monospace,, Consolas, &#39;Courier New&#39;, monospace;font-weight: normal;font-size: 14px;line-height: 19px;white-space: pre;&quot;&gt;&lt;div&gt;&lt;span style=&quot;color: #c678dd;&quot;&gt;return&lt;/span&gt;&lt;span style=&quot;color: #abb2bf;&quot;&gt; render(request, &lt;/span&gt;&lt;span style=&quot;color: #98c379;&quot;&gt;&quot;PageDataSheet.html&quot;&lt;/span&gt;&lt;span style=&quot;color: #abb2bf;&quot;&gt;, {&lt;/span&gt;&lt;span style=&quot;color: #98c379;&quot;&gt;&quot;form&quot;&lt;/span&gt;&lt;span style=&quot;color: #abb2bf;&quot;&gt;: form, &lt;/span&gt;&lt;span style=&quot;color: #98c379;&quot;&gt;&quot;sheet_keys&quot;&lt;/span&gt;&lt;span style=&quot;color: #abb2bf;&quot;&gt;: sheet_keys, &lt;/span&gt;&lt;span style=&quot;color: #98c379;&quot;&gt;&quot;error&quot;&lt;/span&gt;&lt;span style=&quot;color: #abb2bf;&quot;&gt;: &lt;/span&gt;&lt;span style=&quot;color: #98c379;&quot;&gt;&quot;Invalid Project ID&quot;&lt;/span&gt;&lt;span style=&quot;color: #abb2bf;&quot;&gt;})&lt;/span&gt;&lt;/div&gt;&lt;/div&gt;&#xa;&#xa;" id="K2nZ_HlR3rmibXcBMbVg-193">
          <mxCell style="rounded=1;whiteSpace=wrap;html=1;" vertex="1" parent="WIyWlLk6GJQsqaUBKTNV-1">
            <mxGeometry x="-180" y="4252" width="200" height="172" as="geometry" />
          </mxCell>
        </UserObject>
        <mxCell id="K2nZ_HlR3rmibXcBMbVg-195" value="&lt;div style=&quot;color: rgb(171, 178, 191); background-color: rgb(40, 44, 52); font-size: 14px; line-height: 19px; white-space: pre;&quot;&gt;&lt;span style=&quot;color: #c678dd;&quot;&gt;End&lt;/span&gt;&lt;/div&gt;" style="rounded=1;whiteSpace=wrap;html=1;" vertex="1" parent="WIyWlLk6GJQsqaUBKTNV-1">
          <mxGeometry x="-140" y="4478" width="120" height="42" as="geometry" />
        </mxCell>
        <mxCell id="K2nZ_HlR3rmibXcBMbVg-200" style="edgeStyle=orthogonalEdgeStyle;rounded=0;orthogonalLoop=1;jettySize=auto;html=1;exitX=0.5;exitY=1;exitDx=0;exitDy=0;" edge="1" parent="WIyWlLk6GJQsqaUBKTNV-1" source="K2nZ_HlR3rmibXcBMbVg-197" target="K2nZ_HlR3rmibXcBMbVg-199">
          <mxGeometry relative="1" as="geometry" />
        </mxCell>
        <mxCell id="K2nZ_HlR3rmibXcBMbVg-197" value="&lt;div style=&quot;color: rgb(171, 178, 191); background-color: rgb(40, 44, 52); font-size: 14px; line-height: 19px; white-space: pre;&quot;&gt;&lt;span style=&quot;color: #c678dd;&quot;&gt;return&lt;/span&gt; render(request, &lt;/div&gt;&lt;div style=&quot;color: rgb(171, 178, 191); background-color: rgb(40, 44, 52); font-size: 14px; line-height: 19px; white-space: pre;&quot;&gt;&lt;span style=&quot;color: #98c379;&quot;&gt;&quot;PageDataSheet.html&quot;&lt;/span&gt;, &lt;/div&gt;&lt;div style=&quot;color: rgb(171, 178, 191); background-color: rgb(40, 44, 52); font-size: 14px; line-height: 19px; white-space: pre;&quot;&gt;{&lt;/div&gt;&lt;div style=&quot;color: rgb(171, 178, 191); background-color: rgb(40, 44, 52); font-size: 14px; line-height: 19px; white-space: pre;&quot;&gt;&lt;span style=&quot;color: #98c379;&quot;&gt;&quot;form&quot;&lt;/span&gt;: form, &lt;/div&gt;&lt;div style=&quot;color: rgb(171, 178, 191); background-color: rgb(40, 44, 52); font-size: 14px; line-height: 19px; white-space: pre;&quot;&gt;&lt;span style=&quot;color: #98c379;&quot;&gt;&quot;sheet_keys&quot;&lt;/span&gt;: sheet_keys, &lt;/div&gt;&lt;div style=&quot;color: rgb(171, 178, 191); background-color: rgb(40, 44, 52); font-size: 14px; line-height: 19px; white-space: pre;&quot;&gt;&lt;span style=&quot;color: #98c379;&quot;&gt;&quot;error&quot;&lt;/span&gt;: &lt;span style=&quot;color: #98c379;&quot;&gt;&quot;Project is required&quot;&lt;/span&gt;&lt;/div&gt;&lt;div style=&quot;color: rgb(171, 178, 191); background-color: rgb(40, 44, 52); font-size: 14px; line-height: 19px; white-space: pre;&quot;&gt;})&lt;/div&gt;" style="rounded=1;whiteSpace=wrap;html=1;" vertex="1" parent="WIyWlLk6GJQsqaUBKTNV-1">
          <mxGeometry x="-440" y="4044.5" width="200" height="159" as="geometry" />
        </mxCell>
        <mxCell id="K2nZ_HlR3rmibXcBMbVg-199" value="&lt;div style=&quot;color: rgb(171, 178, 191); background-color: rgb(40, 44, 52); font-size: 14px; line-height: 19px; white-space: pre;&quot;&gt;&lt;span style=&quot;color: #c678dd;&quot;&gt;End&lt;/span&gt;&lt;/div&gt;" style="rounded=1;whiteSpace=wrap;html=1;" vertex="1" parent="WIyWlLk6GJQsqaUBKTNV-1">
          <mxGeometry x="-400" y="4252" width="120" height="42" as="geometry" />
        </mxCell>
        <mxCell id="K2nZ_HlR3rmibXcBMbVg-201" value="No" style="text;html=1;align=center;verticalAlign=middle;resizable=0;points=[];autosize=1;strokeColor=none;fillColor=none;" vertex="1" parent="WIyWlLk6GJQsqaUBKTNV-1">
          <mxGeometry x="30" y="4092" width="40" height="30" as="geometry" />
        </mxCell>
        <mxCell id="K2nZ_HlR3rmibXcBMbVg-202" value="No" style="text;html=1;align=center;verticalAlign=middle;resizable=0;points=[];autosize=1;strokeColor=none;fillColor=none;" vertex="1" parent="WIyWlLk6GJQsqaUBKTNV-1">
          <mxGeometry x="40" y="4310" width="40" height="30" as="geometry" />
        </mxCell>
        <mxCell id="K2nZ_HlR3rmibXcBMbVg-206" value="" style="edgeStyle=orthogonalEdgeStyle;rounded=0;orthogonalLoop=1;jettySize=auto;html=1;" edge="1" parent="WIyWlLk6GJQsqaUBKTNV-1" source="K2nZ_HlR3rmibXcBMbVg-203" target="K2nZ_HlR3rmibXcBMbVg-205">
          <mxGeometry relative="1" as="geometry" />
        </mxCell>
        <mxCell id="K2nZ_HlR3rmibXcBMbVg-209" value="" style="edgeStyle=orthogonalEdgeStyle;rounded=0;orthogonalLoop=1;jettySize=auto;html=1;" edge="1" parent="WIyWlLk6GJQsqaUBKTNV-1" source="K2nZ_HlR3rmibXcBMbVg-203" target="K2nZ_HlR3rmibXcBMbVg-208">
          <mxGeometry relative="1" as="geometry" />
        </mxCell>
        <mxCell id="K2nZ_HlR3rmibXcBMbVg-203" value="&lt;div style=&quot;color: rgb(171, 178, 191); background-color: rgb(40, 44, 52); font-size: 14px; line-height: 19px; white-space: pre;&quot;&gt;&lt;span style=&quot;color: #c678dd;&quot;&gt;try&lt;/span&gt;&lt;/div&gt;&lt;div style=&quot;color: rgb(171, 178, 191); background-color: rgb(40, 44, 52); font-size: 14px; line-height: 19px; white-space: pre;&quot;&gt;&lt;span style=&quot;color: #c678dd;&quot;&gt;if &lt;/span&gt;&lt;/div&gt;&lt;div style=&quot;color: rgb(171, 178, 191); background-color: rgb(40, 44, 52); font-size: 14px; line-height: 19px; white-space: pre;&quot;&gt;UserCompany Exist&lt;/div&gt;" style="rhombus;whiteSpace=wrap;html=1;rounded=1;" vertex="1" parent="WIyWlLk6GJQsqaUBKTNV-1">
          <mxGeometry x="90" y="4670" width="260" height="164" as="geometry" />
        </mxCell>
        <mxCell id="K2nZ_HlR3rmibXcBMbVg-214" value="" style="edgeStyle=orthogonalEdgeStyle;rounded=0;orthogonalLoop=1;jettySize=auto;html=1;" edge="1" parent="WIyWlLk6GJQsqaUBKTNV-1" source="K2nZ_HlR3rmibXcBMbVg-205" target="K2nZ_HlR3rmibXcBMbVg-213">
          <mxGeometry relative="1" as="geometry" />
        </mxCell>
        <mxCell id="K2nZ_HlR3rmibXcBMbVg-205" value="&lt;div style=&quot;color: rgb(171, 178, 191); background-color: rgb(40, 44, 52); font-size: 14px; line-height: 19px; white-space: pre;&quot;&gt;&lt;div&gt;user_company &lt;span style=&quot;color: #c678dd;&quot;&gt;=&lt;/span&gt; company name&lt;/div&gt;&lt;div&gt;instance.company &lt;span style=&quot;color: #c678dd;&quot;&gt;=&lt;/span&gt; user_company&lt;/div&gt;&lt;/div&gt;" style="rounded=1;whiteSpace=wrap;html=1;" vertex="1" parent="WIyWlLk6GJQsqaUBKTNV-1">
          <mxGeometry x="100" y="4900" width="240" height="60" as="geometry" />
        </mxCell>
        <mxCell id="K2nZ_HlR3rmibXcBMbVg-207" value="yes" style="text;html=1;align=center;verticalAlign=middle;resizable=0;points=[];autosize=1;strokeColor=none;fillColor=none;" vertex="1" parent="WIyWlLk6GJQsqaUBKTNV-1">
          <mxGeometry x="180" y="4848" width="40" height="30" as="geometry" />
        </mxCell>
        <mxCell id="K2nZ_HlR3rmibXcBMbVg-212" value="" style="edgeStyle=orthogonalEdgeStyle;rounded=0;orthogonalLoop=1;jettySize=auto;html=1;" edge="1" parent="WIyWlLk6GJQsqaUBKTNV-1" source="K2nZ_HlR3rmibXcBMbVg-208" target="K2nZ_HlR3rmibXcBMbVg-211">
          <mxGeometry relative="1" as="geometry" />
        </mxCell>
        <mxCell id="K2nZ_HlR3rmibXcBMbVg-208" value="&lt;div style=&quot;color: rgb(171, 178, 191); background-color: rgb(40, 44, 52); font-size: 14px; line-height: 19px; white-space: pre;&quot;&gt;&lt;div&gt;&lt;span style=&quot;color: #c678dd;&quot;&gt;return&lt;/span&gt; render(request, &lt;span style=&quot;color: #98c379;&quot;&gt;&quot;PageDataSheet.html&quot;&lt;/span&gt;, &lt;/div&gt;&lt;div&gt;&amp;nbsp; &amp;nbsp; &amp;nbsp; &amp;nbsp; &amp;nbsp; &amp;nbsp; &amp;nbsp; &amp;nbsp; &amp;nbsp; &amp;nbsp; &amp;nbsp; &amp;nbsp; &amp;nbsp; &amp;nbsp; &amp;nbsp; {&lt;span style=&quot;color: #98c379;&quot;&gt;&quot;form&quot;&lt;/span&gt;: form, &lt;/div&gt;&lt;div&gt;&amp;nbsp; &amp;nbsp; &amp;nbsp; &amp;nbsp; &amp;nbsp; &amp;nbsp; &amp;nbsp; &amp;nbsp; &amp;nbsp; &amp;nbsp; &amp;nbsp; &amp;nbsp; &amp;nbsp; &amp;nbsp; &amp;nbsp; &amp;nbsp;&lt;span style=&quot;color: #98c379;&quot;&gt;&quot;error&quot;&lt;/span&gt;: &lt;span style=&quot;color: #98c379;&quot;&gt;&quot;User is not associated with a company&quot;&lt;/span&gt;,&lt;/div&gt;&lt;div&gt;&amp;nbsp; &amp;nbsp; &amp;nbsp; &amp;nbsp; &amp;nbsp; &amp;nbsp; &amp;nbsp; &amp;nbsp; &amp;nbsp; &amp;nbsp; &amp;nbsp; &amp;nbsp; &amp;nbsp; &amp;nbsp; &amp;nbsp; &amp;nbsp;&lt;span style=&quot;color: #98c379;&quot;&gt;&quot;aMachineName&quot;&lt;/span&gt;: aMachineName,&lt;/div&gt;&lt;div&gt;&amp;nbsp; &amp;nbsp; &amp;nbsp; &amp;nbsp; &amp;nbsp; &amp;nbsp; &amp;nbsp; &amp;nbsp; &amp;nbsp; &amp;nbsp; &amp;nbsp; &amp;nbsp; &amp;nbsp; &amp;nbsp; &amp;nbsp; &amp;nbsp;&lt;span style=&quot;color: #98c379;&quot;&gt;&quot;sheet_key&quot;&lt;/span&gt; : sheet_key,&lt;/div&gt;&lt;div&gt;&amp;nbsp; &amp;nbsp; &amp;nbsp; &amp;nbsp; &amp;nbsp; &amp;nbsp; &amp;nbsp; &amp;nbsp; &amp;nbsp; &amp;nbsp; &amp;nbsp; &amp;nbsp; &amp;nbsp; &amp;nbsp; &amp;nbsp; &amp;nbsp;&lt;span style=&quot;color: #98c379;&quot;&gt;&quot;machineShow&quot;&lt;/span&gt;: machineShow,})&lt;/div&gt;&lt;/div&gt;" style="rounded=1;whiteSpace=wrap;html=1;" vertex="1" parent="WIyWlLk6GJQsqaUBKTNV-1">
          <mxGeometry x="-510" y="4673" width="450" height="158" as="geometry" />
        </mxCell>
        <mxCell id="K2nZ_HlR3rmibXcBMbVg-210" value="No" style="text;html=1;align=center;verticalAlign=middle;resizable=0;points=[];autosize=1;strokeColor=none;fillColor=none;" vertex="1" parent="WIyWlLk6GJQsqaUBKTNV-1">
          <mxGeometry x="10" y="4718" width="40" height="30" as="geometry" />
        </mxCell>
        <mxCell id="K2nZ_HlR3rmibXcBMbVg-211" value="&lt;div style=&quot;color: rgb(171, 178, 191); background-color: rgb(40, 44, 52); font-size: 14px; line-height: 19px; white-space: pre;&quot;&gt;&lt;span style=&quot;color: #c678dd;&quot;&gt;End&lt;/span&gt;&lt;/div&gt;" style="rounded=1;whiteSpace=wrap;html=1;" vertex="1" parent="WIyWlLk6GJQsqaUBKTNV-1">
          <mxGeometry x="-345" y="4960" width="120" height="60" as="geometry" />
        </mxCell>
        <mxCell id="K2nZ_HlR3rmibXcBMbVg-258" style="edgeStyle=orthogonalEdgeStyle;rounded=0;orthogonalLoop=1;jettySize=auto;html=1;exitX=0.5;exitY=1;exitDx=0;exitDy=0;" edge="1" parent="WIyWlLk6GJQsqaUBKTNV-1" source="K2nZ_HlR3rmibXcBMbVg-213" target="K2nZ_HlR3rmibXcBMbVg-218">
          <mxGeometry relative="1" as="geometry" />
        </mxCell>
        <mxCell id="K2nZ_HlR3rmibXcBMbVg-213" value="&lt;div style=&quot;color: rgb(171, 178, 191); background-color: rgb(40, 44, 52); font-size: 14px; line-height: 19px; white-space: pre;&quot;&gt;&lt;div&gt;instance.save()&lt;/div&gt;&lt;div&gt;   form &lt;span style=&quot;color: #c678dd;&quot;&gt;=&lt;/span&gt; the data drom FormDataSheet for the form data and form_type&lt;/div&gt;&lt;div&gt;   machines &lt;span style=&quot;color: #c678dd;&quot;&gt;=&lt;/span&gt; the data from Machine for DB Name and company&lt;/div&gt;&lt;/div&gt;" style="rounded=1;whiteSpace=wrap;html=1;" vertex="1" parent="WIyWlLk6GJQsqaUBKTNV-1">
          <mxGeometry x="-20" y="5060" width="480" height="75" as="geometry" />
        </mxCell>
        <mxCell id="K2nZ_HlR3rmibXcBMbVg-217" value="" style="edgeStyle=orthogonalEdgeStyle;rounded=0;orthogonalLoop=1;jettySize=auto;html=1;" edge="1" parent="WIyWlLk6GJQsqaUBKTNV-1" source="K2nZ_HlR3rmibXcBMbVg-218" target="K2nZ_HlR3rmibXcBMbVg-221">
          <mxGeometry relative="1" as="geometry" />
        </mxCell>
        <mxCell id="K2nZ_HlR3rmibXcBMbVg-218" value="&lt;div style=&quot;color: rgb(171, 178, 191); background-color: rgb(40, 44, 52); font-size: 14px; line-height: 19px; white-space: pre;&quot;&gt;&amp;nbsp;form1 &lt;span style=&quot;color: #c678dd;&quot;&gt;=&lt;/span&gt; enitital data from FormDataSheet for form type&lt;/div&gt;" style="rounded=1;whiteSpace=wrap;html=1;" vertex="1" parent="WIyWlLk6GJQsqaUBKTNV-1">
          <mxGeometry x="30" y="5260" width="360" height="60" as="geometry" />
        </mxCell>
        <mxCell id="K2nZ_HlR3rmibXcBMbVg-220" value="" style="edgeStyle=orthogonalEdgeStyle;rounded=0;orthogonalLoop=1;jettySize=auto;html=1;" edge="1" parent="WIyWlLk6GJQsqaUBKTNV-1" source="K2nZ_HlR3rmibXcBMbVg-221" target="K2nZ_HlR3rmibXcBMbVg-223">
          <mxGeometry relative="1" as="geometry" />
        </mxCell>
        <mxCell id="K2nZ_HlR3rmibXcBMbVg-221" value="&lt;div style=&quot;color: rgb(171, 178, 191); background-color: rgb(40, 44, 52); font-size: 14px; line-height: 19px; white-space: pre;&quot;&gt;&lt;span style=&quot;color: #c678dd;&quot;&gt;if&lt;/span&gt; &lt;/div&gt;&lt;div style=&quot;color: rgb(171, 178, 191); background-color: rgb(40, 44, 52); font-size: 14px; line-height: 19px; white-space: pre;&quot;&gt;form1.is_valid&lt;/div&gt;" style="rhombus;whiteSpace=wrap;html=1;rounded=1;" vertex="1" parent="WIyWlLk6GJQsqaUBKTNV-1">
          <mxGeometry x="140" y="5390" width="140" height="100" as="geometry" />
        </mxCell>
        <mxCell id="K2nZ_HlR3rmibXcBMbVg-222" value="" style="edgeStyle=orthogonalEdgeStyle;rounded=0;orthogonalLoop=1;jettySize=auto;html=1;" edge="1" parent="WIyWlLk6GJQsqaUBKTNV-1" source="K2nZ_HlR3rmibXcBMbVg-223" target="K2nZ_HlR3rmibXcBMbVg-226">
          <mxGeometry relative="1" as="geometry" />
        </mxCell>
        <mxCell id="K2nZ_HlR3rmibXcBMbVg-223" value="&lt;div style=&quot;color: rgb(171, 178, 191); background-color: rgb(40, 44, 52); font-size: 14px; line-height: 19px; white-space: pre;&quot;&gt;instance1 &lt;span style=&quot;color: #c678dd;&quot;&gt;=&lt;/span&gt; form1.save(&lt;span style=&quot;color: #d19a66;&quot;&gt;commit&lt;/span&gt;&lt;span style=&quot;color: #c678dd;&quot;&gt;=&lt;/span&gt;&lt;span style=&quot;color: #d19a66;&quot;&gt;False&lt;/span&gt;) &lt;/div&gt;" style="rounded=1;whiteSpace=wrap;html=1;" vertex="1" parent="WIyWlLk6GJQsqaUBKTNV-1">
          <mxGeometry x="80" y="5540" width="260" height="60" as="geometry" />
        </mxCell>
        <mxCell id="K2nZ_HlR3rmibXcBMbVg-224" value="yes" style="text;html=1;align=center;verticalAlign=middle;resizable=0;points=[];autosize=1;strokeColor=none;fillColor=none;" vertex="1" parent="WIyWlLk6GJQsqaUBKTNV-1">
          <mxGeometry x="170" y="5498" width="40" height="30" as="geometry" />
        </mxCell>
        <mxCell id="K2nZ_HlR3rmibXcBMbVg-225" value="" style="edgeStyle=orthogonalEdgeStyle;rounded=0;orthogonalLoop=1;jettySize=auto;html=1;" edge="1" parent="WIyWlLk6GJQsqaUBKTNV-1" source="K2nZ_HlR3rmibXcBMbVg-226" target="K2nZ_HlR3rmibXcBMbVg-228">
          <mxGeometry relative="1" as="geometry" />
        </mxCell>
        <mxCell id="K2nZ_HlR3rmibXcBMbVg-226" value="&lt;div style=&quot;color: rgb(171, 178, 191); background-color: rgb(40, 44, 52); font-size: 14px; line-height: 19px; white-space: pre;&quot;&gt;&lt;div&gt;instance1.oSec00Field01 &lt;span style=&quot;color: #c678dd;&quot;&gt;=&lt;/span&gt; Username&lt;/div&gt;&lt;div&gt;instance1.oSec00Field02 &lt;span style=&quot;color: #c678dd;&quot;&gt;=&lt;/span&gt; Timestamp&lt;/div&gt;&lt;div&gt;instance1.oSec00Field03 &lt;span style=&quot;color: #c678dd;&quot;&gt;=&lt;/span&gt; DB_Name&lt;/div&gt;&lt;/div&gt;" style="rounded=1;whiteSpace=wrap;html=1;" vertex="1" parent="WIyWlLk6GJQsqaUBKTNV-1">
          <mxGeometry x="80" y="5750" width="260" height="80" as="geometry" />
        </mxCell>
        <mxCell id="K2nZ_HlR3rmibXcBMbVg-227" value="" style="edgeStyle=orthogonalEdgeStyle;rounded=0;orthogonalLoop=1;jettySize=auto;html=1;" edge="1" parent="WIyWlLk6GJQsqaUBKTNV-1" source="K2nZ_HlR3rmibXcBMbVg-228" target="K2nZ_HlR3rmibXcBMbVg-231">
          <mxGeometry relative="1" as="geometry" />
        </mxCell>
        <mxCell id="K2nZ_HlR3rmibXcBMbVg-228" value="&lt;div style=&quot;color: rgb(171, 178, 191); background-color: rgb(40, 44, 52); font-size: 14px; line-height: 19px; white-space: pre;&quot;&gt;project_id &lt;span style=&quot;color: #c678dd;&quot;&gt;=&lt;/span&gt; get the project ID&lt;/div&gt;" style="rounded=1;whiteSpace=wrap;html=1;" vertex="1" parent="WIyWlLk6GJQsqaUBKTNV-1">
          <mxGeometry x="110" y="5878" width="200" height="60" as="geometry" />
        </mxCell>
        <mxCell id="K2nZ_HlR3rmibXcBMbVg-229" value="" style="edgeStyle=orthogonalEdgeStyle;rounded=0;orthogonalLoop=1;jettySize=auto;html=1;" edge="1" parent="WIyWlLk6GJQsqaUBKTNV-1" source="K2nZ_HlR3rmibXcBMbVg-231" target="K2nZ_HlR3rmibXcBMbVg-234">
          <mxGeometry relative="1" as="geometry" />
        </mxCell>
        <mxCell id="K2nZ_HlR3rmibXcBMbVg-230" value="" style="edgeStyle=orthogonalEdgeStyle;rounded=0;orthogonalLoop=1;jettySize=auto;html=1;" edge="1" parent="WIyWlLk6GJQsqaUBKTNV-1" source="K2nZ_HlR3rmibXcBMbVg-231" target="K2nZ_HlR3rmibXcBMbVg-242">
          <mxGeometry relative="1" as="geometry" />
        </mxCell>
        <mxCell id="K2nZ_HlR3rmibXcBMbVg-231" value="&lt;div style=&quot;color: rgb(171, 178, 191); background-color: rgb(40, 44, 52); font-size: 14px; line-height: 19px; white-space: pre;&quot;&gt;&lt;span style=&quot;color: #c678dd;&quot;&gt;if&lt;/span&gt; &lt;/div&gt;&lt;div style=&quot;color: rgb(171, 178, 191); background-color: rgb(40, 44, 52); font-size: 14px; line-height: 19px; white-space: pre;&quot;&gt;project_id exist&lt;/div&gt;" style="rhombus;whiteSpace=wrap;html=1;rounded=1;" vertex="1" parent="WIyWlLk6GJQsqaUBKTNV-1">
          <mxGeometry x="120" y="6008" width="180" height="92" as="geometry" />
        </mxCell>
        <mxCell id="K2nZ_HlR3rmibXcBMbVg-232" value="" style="edgeStyle=orthogonalEdgeStyle;rounded=0;orthogonalLoop=1;jettySize=auto;html=1;" edge="1" parent="WIyWlLk6GJQsqaUBKTNV-1" source="K2nZ_HlR3rmibXcBMbVg-234" target="K2nZ_HlR3rmibXcBMbVg-236">
          <mxGeometry relative="1" as="geometry" />
        </mxCell>
        <mxCell id="K2nZ_HlR3rmibXcBMbVg-233" value="" style="edgeStyle=orthogonalEdgeStyle;rounded=0;orthogonalLoop=1;jettySize=auto;html=1;" edge="1" parent="WIyWlLk6GJQsqaUBKTNV-1" source="K2nZ_HlR3rmibXcBMbVg-234" target="K2nZ_HlR3rmibXcBMbVg-239">
          <mxGeometry relative="1" as="geometry" />
        </mxCell>
        <mxCell id="K2nZ_HlR3rmibXcBMbVg-234" value="&lt;div style=&quot;color: rgb(171, 178, 191); background-color: rgb(40, 44, 52); font-size: 14px; line-height: 19px; white-space: pre;&quot;&gt;&lt;span style=&quot;color: #c678dd;&quot;&gt;try&lt;/span&gt;&lt;/div&gt;&lt;div style=&quot;color: rgb(171, 178, 191); background-color: rgb(40, 44, 52); font-size: 14px; line-height: 19px; white-space: pre;&quot;&gt;&lt;span style=&quot;color: #c678dd;&quot;&gt;if &lt;/span&gt;&lt;/div&gt;&lt;div style=&quot;color: rgb(171, 178, 191); background-color: rgb(40, 44, 52); font-size: 14px; line-height: 19px; white-space: pre;&quot;&gt;APP_Project Exist&lt;/div&gt;" style="rhombus;whiteSpace=wrap;html=1;rounded=1;" vertex="1" parent="WIyWlLk6GJQsqaUBKTNV-1">
          <mxGeometry x="80" y="6186" width="260" height="164" as="geometry" />
        </mxCell>
        <mxCell id="K2nZ_HlR3rmibXcBMbVg-235" style="edgeStyle=orthogonalEdgeStyle;rounded=0;orthogonalLoop=1;jettySize=auto;html=1;exitX=0.5;exitY=1;exitDx=0;exitDy=0;" edge="1" parent="WIyWlLk6GJQsqaUBKTNV-1" source="K2nZ_HlR3rmibXcBMbVg-236" target="K2nZ_HlR3rmibXcBMbVg-248">
          <mxGeometry relative="1" as="geometry" />
        </mxCell>
        <mxCell id="K2nZ_HlR3rmibXcBMbVg-236" value="&lt;div style=&quot;color: rgb(171, 178, 191); background-color: rgb(40, 44, 52); font-size: 14px; line-height: 19px; white-space: pre;&quot;&gt;instance1.project &lt;span style=&quot;color: #c678dd;&quot;&gt;=&lt;/span&gt; the project data for the project ID&lt;/div&gt;" style="rounded=1;whiteSpace=wrap;html=1;" vertex="1" parent="WIyWlLk6GJQsqaUBKTNV-1">
          <mxGeometry x="30" y="6482" width="360" height="60" as="geometry" />
        </mxCell>
        <mxCell id="K2nZ_HlR3rmibXcBMbVg-237" value="yes" style="text;html=1;align=center;verticalAlign=middle;resizable=0;points=[];autosize=1;strokeColor=none;fillColor=none;" vertex="1" parent="WIyWlLk6GJQsqaUBKTNV-1">
          <mxGeometry x="160" y="6378" width="40" height="30" as="geometry" />
        </mxCell>
        <mxCell id="K2nZ_HlR3rmibXcBMbVg-238" value="" style="edgeStyle=orthogonalEdgeStyle;rounded=0;orthogonalLoop=1;jettySize=auto;html=1;" edge="1" parent="WIyWlLk6GJQsqaUBKTNV-1" source="K2nZ_HlR3rmibXcBMbVg-239" target="K2nZ_HlR3rmibXcBMbVg-240">
          <mxGeometry relative="1" as="geometry" />
        </mxCell>
        <UserObject label="&lt;div style=&quot;color: #abb2bf;background-color: #282c34;font-family: &#39;Consolas&#39;, &#39;Courier New&#39;, monospace,, Consolas, &#39;Courier New&#39;, monospace;font-weight: normal;font-size: 14px;line-height: 19px;white-space: pre;&quot;&gt;&lt;div&gt;&lt;span style=&quot;color: #c678dd;&quot;&gt;return&lt;/span&gt;&lt;span style=&quot;color: #abb2bf;&quot;&gt; render(request, &lt;/span&gt;&lt;/div&gt;&lt;div&gt;&lt;span style=&quot;color: #98c379;&quot;&gt;&quot;PageDataSheet.html&quot;&lt;/span&gt;&lt;span style=&quot;color: #abb2bf;&quot;&gt;, &lt;br/&gt;{&lt;/span&gt;&lt;/div&gt;&lt;div&gt;&lt;span style=&quot;color: #98c379;&quot;&gt;&quot;form&quot;&lt;/span&gt;&lt;span style=&quot;color: #abb2bf;&quot;&gt;: form, &lt;/span&gt;&lt;/div&gt;&lt;div&gt;&lt;span style=&quot;color: #98c379;&quot;&gt;&quot;sheet_keys&quot;&lt;/span&gt;&lt;span style=&quot;color: #abb2bf;&quot;&gt;: sheet_keys, &lt;/span&gt;&lt;/div&gt;&lt;div&gt;&lt;span style=&quot;color: #98c379;&quot;&gt;&quot;error&quot;&lt;/span&gt;&lt;span style=&quot;color: #abb2bf;&quot;&gt;: &lt;/span&gt;&lt;span style=&quot;color: #98c379;&quot;&gt;&quot;Invalid Project ID&quot;&lt;/span&gt;&lt;/div&gt;&lt;div&gt;&lt;span style=&quot;color: #abb2bf;&quot;&gt;})&lt;/span&gt;&lt;/div&gt;&lt;/div&gt;" link="&#xa;&lt;div style=&quot;color: #abb2bf;background-color: #282c34;font-family: &#39;Consolas&#39;, &#39;Courier New&#39;, monospace,, Consolas, &#39;Courier New&#39;, monospace;font-weight: normal;font-size: 14px;line-height: 19px;white-space: pre;&quot;&gt;&lt;div&gt;&lt;span style=&quot;color: #c678dd;&quot;&gt;return&lt;/span&gt;&lt;span style=&quot;color: #abb2bf;&quot;&gt; render(request, &lt;/span&gt;&lt;span style=&quot;color: #98c379;&quot;&gt;&quot;PageDataSheet.html&quot;&lt;/span&gt;&lt;span style=&quot;color: #abb2bf;&quot;&gt;, {&lt;/span&gt;&lt;span style=&quot;color: #98c379;&quot;&gt;&quot;form&quot;&lt;/span&gt;&lt;span style=&quot;color: #abb2bf;&quot;&gt;: form, &lt;/span&gt;&lt;span style=&quot;color: #98c379;&quot;&gt;&quot;sheet_keys&quot;&lt;/span&gt;&lt;span style=&quot;color: #abb2bf;&quot;&gt;: sheet_keys, &lt;/span&gt;&lt;span style=&quot;color: #98c379;&quot;&gt;&quot;error&quot;&lt;/span&gt;&lt;span style=&quot;color: #abb2bf;&quot;&gt;: &lt;/span&gt;&lt;span style=&quot;color: #98c379;&quot;&gt;&quot;Invalid Project ID&quot;&lt;/span&gt;&lt;span style=&quot;color: #abb2bf;&quot;&gt;})&lt;/span&gt;&lt;/div&gt;&lt;/div&gt;&#xa;&#xa;" id="K2nZ_HlR3rmibXcBMbVg-239">
          <mxCell style="rounded=1;whiteSpace=wrap;html=1;" vertex="1" parent="WIyWlLk6GJQsqaUBKTNV-1">
            <mxGeometry x="-190" y="6182" width="200" height="172" as="geometry" />
          </mxCell>
        </UserObject>
        <mxCell id="K2nZ_HlR3rmibXcBMbVg-240" value="&lt;div style=&quot;color: rgb(171, 178, 191); background-color: rgb(40, 44, 52); font-size: 14px; line-height: 19px; white-space: pre;&quot;&gt;&lt;span style=&quot;color: #c678dd;&quot;&gt;End&lt;/span&gt;&lt;/div&gt;" style="rounded=1;whiteSpace=wrap;html=1;" vertex="1" parent="WIyWlLk6GJQsqaUBKTNV-1">
          <mxGeometry x="-150" y="6408" width="120" height="42" as="geometry" />
        </mxCell>
        <mxCell id="K2nZ_HlR3rmibXcBMbVg-241" style="edgeStyle=orthogonalEdgeStyle;rounded=0;orthogonalLoop=1;jettySize=auto;html=1;exitX=0.5;exitY=1;exitDx=0;exitDy=0;" edge="1" parent="WIyWlLk6GJQsqaUBKTNV-1" source="K2nZ_HlR3rmibXcBMbVg-242" target="K2nZ_HlR3rmibXcBMbVg-243">
          <mxGeometry relative="1" as="geometry" />
        </mxCell>
        <mxCell id="K2nZ_HlR3rmibXcBMbVg-242" value="&lt;div style=&quot;color: rgb(171, 178, 191); background-color: rgb(40, 44, 52); font-size: 14px; line-height: 19px; white-space: pre;&quot;&gt;&lt;span style=&quot;color: #c678dd;&quot;&gt;return&lt;/span&gt; render(request, &lt;/div&gt;&lt;div style=&quot;color: rgb(171, 178, 191); background-color: rgb(40, 44, 52); font-size: 14px; line-height: 19px; white-space: pre;&quot;&gt;&lt;span style=&quot;color: #98c379;&quot;&gt;&quot;PageDataSheet.html&quot;&lt;/span&gt;, &lt;/div&gt;&lt;div style=&quot;color: rgb(171, 178, 191); background-color: rgb(40, 44, 52); font-size: 14px; line-height: 19px; white-space: pre;&quot;&gt;{&lt;/div&gt;&lt;div style=&quot;color: rgb(171, 178, 191); background-color: rgb(40, 44, 52); font-size: 14px; line-height: 19px; white-space: pre;&quot;&gt;&lt;span style=&quot;color: #98c379;&quot;&gt;&quot;form&quot;&lt;/span&gt;: form, &lt;/div&gt;&lt;div style=&quot;color: rgb(171, 178, 191); background-color: rgb(40, 44, 52); font-size: 14px; line-height: 19px; white-space: pre;&quot;&gt;&lt;span style=&quot;color: #98c379;&quot;&gt;&quot;sheet_keys&quot;&lt;/span&gt;: sheet_keys, &lt;/div&gt;&lt;div style=&quot;color: rgb(171, 178, 191); background-color: rgb(40, 44, 52); font-size: 14px; line-height: 19px; white-space: pre;&quot;&gt;&lt;span style=&quot;color: #98c379;&quot;&gt;&quot;error&quot;&lt;/span&gt;: &lt;span style=&quot;color: #98c379;&quot;&gt;&quot;Project is required&quot;&lt;/span&gt;&lt;/div&gt;&lt;div style=&quot;color: rgb(171, 178, 191); background-color: rgb(40, 44, 52); font-size: 14px; line-height: 19px; white-space: pre;&quot;&gt;})&lt;/div&gt;" style="rounded=1;whiteSpace=wrap;html=1;" vertex="1" parent="WIyWlLk6GJQsqaUBKTNV-1">
          <mxGeometry x="-450" y="5974.5" width="200" height="159" as="geometry" />
        </mxCell>
        <mxCell id="K2nZ_HlR3rmibXcBMbVg-243" value="&lt;div style=&quot;color: rgb(171, 178, 191); background-color: rgb(40, 44, 52); font-size: 14px; line-height: 19px; white-space: pre;&quot;&gt;&lt;span style=&quot;color: #c678dd;&quot;&gt;End&lt;/span&gt;&lt;/div&gt;" style="rounded=1;whiteSpace=wrap;html=1;" vertex="1" parent="WIyWlLk6GJQsqaUBKTNV-1">
          <mxGeometry x="-410" y="6182" width="120" height="42" as="geometry" />
        </mxCell>
        <mxCell id="K2nZ_HlR3rmibXcBMbVg-244" value="No" style="text;html=1;align=center;verticalAlign=middle;resizable=0;points=[];autosize=1;strokeColor=none;fillColor=none;" vertex="1" parent="WIyWlLk6GJQsqaUBKTNV-1">
          <mxGeometry x="20" y="6022" width="40" height="30" as="geometry" />
        </mxCell>
        <mxCell id="K2nZ_HlR3rmibXcBMbVg-245" value="No" style="text;html=1;align=center;verticalAlign=middle;resizable=0;points=[];autosize=1;strokeColor=none;fillColor=none;" vertex="1" parent="WIyWlLk6GJQsqaUBKTNV-1">
          <mxGeometry x="30" y="6240" width="40" height="30" as="geometry" />
        </mxCell>
        <mxCell id="K2nZ_HlR3rmibXcBMbVg-246" value="" style="edgeStyle=orthogonalEdgeStyle;rounded=0;orthogonalLoop=1;jettySize=auto;html=1;" edge="1" parent="WIyWlLk6GJQsqaUBKTNV-1" source="K2nZ_HlR3rmibXcBMbVg-248" target="K2nZ_HlR3rmibXcBMbVg-250">
          <mxGeometry relative="1" as="geometry" />
        </mxCell>
        <mxCell id="K2nZ_HlR3rmibXcBMbVg-247" value="" style="edgeStyle=orthogonalEdgeStyle;rounded=0;orthogonalLoop=1;jettySize=auto;html=1;" edge="1" parent="WIyWlLk6GJQsqaUBKTNV-1" source="K2nZ_HlR3rmibXcBMbVg-248" target="K2nZ_HlR3rmibXcBMbVg-253">
          <mxGeometry relative="1" as="geometry" />
        </mxCell>
        <mxCell id="K2nZ_HlR3rmibXcBMbVg-248" value="&lt;div style=&quot;color: rgb(171, 178, 191); background-color: rgb(40, 44, 52); font-size: 14px; line-height: 19px; white-space: pre;&quot;&gt;&lt;span style=&quot;color: #c678dd;&quot;&gt;try&lt;/span&gt;&lt;/div&gt;&lt;div style=&quot;color: rgb(171, 178, 191); background-color: rgb(40, 44, 52); font-size: 14px; line-height: 19px; white-space: pre;&quot;&gt;&lt;span style=&quot;color: #c678dd;&quot;&gt;if &lt;/span&gt;&lt;/div&gt;&lt;div style=&quot;color: rgb(171, 178, 191); background-color: rgb(40, 44, 52); font-size: 14px; line-height: 19px; white-space: pre;&quot;&gt;UserCompany Exist&lt;/div&gt;" style="rhombus;whiteSpace=wrap;html=1;rounded=1;" vertex="1" parent="WIyWlLk6GJQsqaUBKTNV-1">
          <mxGeometry x="80" y="6600" width="260" height="164" as="geometry" />
        </mxCell>
        <mxCell id="K2nZ_HlR3rmibXcBMbVg-249" value="" style="edgeStyle=orthogonalEdgeStyle;rounded=0;orthogonalLoop=1;jettySize=auto;html=1;" edge="1" parent="WIyWlLk6GJQsqaUBKTNV-1" source="K2nZ_HlR3rmibXcBMbVg-250" target="K2nZ_HlR3rmibXcBMbVg-256">
          <mxGeometry relative="1" as="geometry" />
        </mxCell>
        <mxCell id="K2nZ_HlR3rmibXcBMbVg-250" value="&lt;div style=&quot;color: rgb(171, 178, 191); background-color: rgb(40, 44, 52); font-size: 14px; line-height: 19px; white-space: pre;&quot;&gt;&lt;div&gt;user_company &lt;span style=&quot;color: #c678dd;&quot;&gt;=&lt;/span&gt; company name&lt;/div&gt;&lt;div&gt;instance1.company &lt;span style=&quot;color: #c678dd;&quot;&gt;=&lt;/span&gt; user_company&lt;/div&gt;&lt;/div&gt;" style="rounded=1;whiteSpace=wrap;html=1;" vertex="1" parent="WIyWlLk6GJQsqaUBKTNV-1">
          <mxGeometry x="90" y="6830" width="240" height="60" as="geometry" />
        </mxCell>
        <mxCell id="K2nZ_HlR3rmibXcBMbVg-251" value="yes" style="text;html=1;align=center;verticalAlign=middle;resizable=0;points=[];autosize=1;strokeColor=none;fillColor=none;" vertex="1" parent="WIyWlLk6GJQsqaUBKTNV-1">
          <mxGeometry x="170" y="6778" width="40" height="30" as="geometry" />
        </mxCell>
        <mxCell id="K2nZ_HlR3rmibXcBMbVg-252" value="" style="edgeStyle=orthogonalEdgeStyle;rounded=0;orthogonalLoop=1;jettySize=auto;html=1;" edge="1" parent="WIyWlLk6GJQsqaUBKTNV-1" source="K2nZ_HlR3rmibXcBMbVg-253" target="K2nZ_HlR3rmibXcBMbVg-255">
          <mxGeometry relative="1" as="geometry" />
        </mxCell>
        <mxCell id="K2nZ_HlR3rmibXcBMbVg-253" value="&lt;div style=&quot;color: rgb(171, 178, 191); background-color: rgb(40, 44, 52); font-size: 14px; line-height: 19px; white-space: pre;&quot;&gt;&lt;div&gt;&lt;span style=&quot;color: #c678dd;&quot;&gt;return&lt;/span&gt; render(request, &lt;span style=&quot;color: #98c379;&quot;&gt;&quot;PageDataSheet.html&quot;&lt;/span&gt;, &lt;/div&gt;&lt;div&gt;&amp;nbsp; &amp;nbsp; &amp;nbsp; &amp;nbsp; &amp;nbsp; &amp;nbsp; &amp;nbsp; &amp;nbsp; &amp;nbsp; &amp;nbsp; &amp;nbsp; &amp;nbsp; &amp;nbsp; &amp;nbsp; &amp;nbsp; {&lt;span style=&quot;color: #98c379;&quot;&gt;&quot;form&quot;&lt;/span&gt;: form, &lt;/div&gt;&lt;div&gt;&amp;nbsp; &amp;nbsp; &amp;nbsp; &amp;nbsp; &amp;nbsp; &amp;nbsp; &amp;nbsp; &amp;nbsp; &amp;nbsp; &amp;nbsp; &amp;nbsp; &amp;nbsp; &amp;nbsp; &amp;nbsp; &amp;nbsp; &amp;nbsp;&lt;span style=&quot;color: #98c379;&quot;&gt;&quot;error&quot;&lt;/span&gt;: &lt;span style=&quot;color: #98c379;&quot;&gt;&quot;User is not associated with a company&quot;&lt;/span&gt;,&lt;/div&gt;&lt;div&gt;&amp;nbsp; &amp;nbsp; &amp;nbsp; &amp;nbsp; &amp;nbsp; &amp;nbsp; &amp;nbsp; &amp;nbsp; &amp;nbsp; &amp;nbsp; &amp;nbsp; &amp;nbsp; &amp;nbsp; &amp;nbsp; &amp;nbsp; &amp;nbsp;&lt;span style=&quot;color: #98c379;&quot;&gt;&quot;aMachineName&quot;&lt;/span&gt;: aMachineName,&lt;/div&gt;&lt;div&gt;&amp;nbsp; &amp;nbsp; &amp;nbsp; &amp;nbsp; &amp;nbsp; &amp;nbsp; &amp;nbsp; &amp;nbsp; &amp;nbsp; &amp;nbsp; &amp;nbsp; &amp;nbsp; &amp;nbsp; &amp;nbsp; &amp;nbsp; &amp;nbsp;&lt;span style=&quot;color: #98c379;&quot;&gt;&quot;sheet_key&quot;&lt;/span&gt; : sheet_key,&lt;/div&gt;&lt;div&gt;&amp;nbsp; &amp;nbsp; &amp;nbsp; &amp;nbsp; &amp;nbsp; &amp;nbsp; &amp;nbsp; &amp;nbsp; &amp;nbsp; &amp;nbsp; &amp;nbsp; &amp;nbsp; &amp;nbsp; &amp;nbsp; &amp;nbsp; &amp;nbsp;&lt;span style=&quot;color: #98c379;&quot;&gt;&quot;machineShow&quot;&lt;/span&gt;: machineShow,})&lt;/div&gt;&lt;/div&gt;" style="rounded=1;whiteSpace=wrap;html=1;" vertex="1" parent="WIyWlLk6GJQsqaUBKTNV-1">
          <mxGeometry x="-520" y="6603" width="450" height="158" as="geometry" />
        </mxCell>
        <mxCell id="K2nZ_HlR3rmibXcBMbVg-254" value="No" style="text;html=1;align=center;verticalAlign=middle;resizable=0;points=[];autosize=1;strokeColor=none;fillColor=none;" vertex="1" parent="WIyWlLk6GJQsqaUBKTNV-1">
          <mxGeometry y="6648" width="40" height="30" as="geometry" />
        </mxCell>
        <mxCell id="K2nZ_HlR3rmibXcBMbVg-255" value="&lt;div style=&quot;color: rgb(171, 178, 191); background-color: rgb(40, 44, 52); font-size: 14px; line-height: 19px; white-space: pre;&quot;&gt;&lt;span style=&quot;color: #c678dd;&quot;&gt;End&lt;/span&gt;&lt;/div&gt;" style="rounded=1;whiteSpace=wrap;html=1;" vertex="1" parent="WIyWlLk6GJQsqaUBKTNV-1">
          <mxGeometry x="-355" y="6890" width="120" height="60" as="geometry" />
        </mxCell>
        <mxCell id="K2nZ_HlR3rmibXcBMbVg-304" style="edgeStyle=orthogonalEdgeStyle;rounded=0;orthogonalLoop=1;jettySize=auto;html=1;exitX=0.5;exitY=1;exitDx=0;exitDy=0;" edge="1" parent="WIyWlLk6GJQsqaUBKTNV-1" source="K2nZ_HlR3rmibXcBMbVg-256" target="K2nZ_HlR3rmibXcBMbVg-260">
          <mxGeometry relative="1" as="geometry" />
        </mxCell>
        <mxCell id="K2nZ_HlR3rmibXcBMbVg-256" value="&lt;div style=&quot;color: rgb(171, 178, 191); background-color: rgb(40, 44, 52); font-size: 14px; line-height: 19px; white-space: pre;&quot;&gt;&lt;div&gt;instance1.save()&lt;/div&gt;&lt;div&gt;   form1 &lt;span style=&quot;color: #c678dd;&quot;&gt;=&lt;/span&gt; the data drom FormDataSheet for the form data and form_type&lt;/div&gt;&lt;/div&gt;" style="rounded=1;whiteSpace=wrap;html=1;" vertex="1" parent="WIyWlLk6GJQsqaUBKTNV-1">
          <mxGeometry x="-30" y="6990" width="480" height="70" as="geometry" />
        </mxCell>
        <mxCell id="K2nZ_HlR3rmibXcBMbVg-259" value="" style="edgeStyle=orthogonalEdgeStyle;rounded=0;orthogonalLoop=1;jettySize=auto;html=1;" edge="1" parent="WIyWlLk6GJQsqaUBKTNV-1" source="K2nZ_HlR3rmibXcBMbVg-260" target="K2nZ_HlR3rmibXcBMbVg-263">
          <mxGeometry relative="1" as="geometry" />
        </mxCell>
        <mxCell id="K2nZ_HlR3rmibXcBMbVg-260" value="&lt;div style=&quot;color: rgb(171, 178, 191); background-color: rgb(40, 44, 52); font-size: 14px; line-height: 19px; white-space: pre;&quot;&gt;&lt;div&gt;aSection01Show &lt;span style=&quot;color: #c678dd;&quot;&gt;=&lt;/span&gt; &lt;span style=&quot;color: #98c379;&quot;&gt;&quot;Yes&quot;&lt;/span&gt;&lt;/div&gt;&lt;div&gt;aSection02Show &lt;span style=&quot;color: #c678dd;&quot;&gt;=&lt;/span&gt; &lt;span style=&quot;color: #98c379;&quot;&gt;&quot;Yes&quot;&lt;/span&gt;&lt;/div&gt;&lt;div&gt;aSection03Show &lt;span style=&quot;color: #c678dd;&quot;&gt;=&lt;/span&gt; &lt;span style=&quot;color: #98c379;&quot;&gt;&quot;Yes&quot;&lt;/span&gt;&lt;/div&gt;&lt;div&gt;aSection04Show &lt;span style=&quot;color: #c678dd;&quot;&gt;=&lt;/span&gt; &lt;span style=&quot;color: #98c379;&quot;&gt;&quot;Yes&quot;&lt;/span&gt;&lt;/div&gt;&lt;div&gt;aSection05Show &lt;span style=&quot;color: #c678dd;&quot;&gt;=&lt;/span&gt; &lt;span style=&quot;color: #98c379;&quot;&gt;&quot;Yes&quot;&lt;/span&gt;&lt;/div&gt;&lt;div&gt;aSection06Show &lt;span style=&quot;color: #c678dd;&quot;&gt;=&lt;/span&gt; &lt;span style=&quot;color: #98c379;&quot;&gt;&quot;Yes&quot;&lt;/span&gt;&lt;/div&gt;&lt;div&gt;aSection07Show &lt;span style=&quot;color: #c678dd;&quot;&gt;=&lt;/span&gt; &lt;span style=&quot;color: #98c379;&quot;&gt;&quot;Yes&quot;&lt;/span&gt;&lt;/div&gt;&lt;div&gt;aSection08Show &lt;span style=&quot;color: #c678dd;&quot;&gt;=&lt;/span&gt; &lt;span style=&quot;color: #98c379;&quot;&gt;&quot;Yes&quot;&lt;/span&gt;&lt;/div&gt;&lt;div&gt;aSection09Show &lt;span style=&quot;color: #c678dd;&quot;&gt;=&lt;/span&gt; &lt;span style=&quot;color: #98c379;&quot;&gt;&quot;Yes&quot;&lt;/span&gt;&lt;/div&gt;&lt;div&gt;aSection10Show &lt;span style=&quot;color: #c678dd;&quot;&gt;=&lt;/span&gt; &lt;span style=&quot;color: #98c379;&quot;&gt;&quot;Yes&quot;&lt;/span&gt;&lt;/div&gt;&lt;/div&gt;" style="whiteSpace=wrap;html=1;rounded=1;" vertex="1" parent="WIyWlLk6GJQsqaUBKTNV-1">
          <mxGeometry x="110" y="7150" width="200" height="224" as="geometry" />
        </mxCell>
        <mxCell id="K2nZ_HlR3rmibXcBMbVg-261" value="" style="edgeStyle=orthogonalEdgeStyle;rounded=0;orthogonalLoop=1;jettySize=auto;html=1;" edge="1" parent="WIyWlLk6GJQsqaUBKTNV-1" source="K2nZ_HlR3rmibXcBMbVg-263" target="K2nZ_HlR3rmibXcBMbVg-265">
          <mxGeometry relative="1" as="geometry" />
        </mxCell>
        <mxCell id="K2nZ_HlR3rmibXcBMbVg-262" style="edgeStyle=orthogonalEdgeStyle;rounded=0;orthogonalLoop=1;jettySize=auto;html=1;exitX=0.5;exitY=1;exitDx=0;exitDy=0;" edge="1" parent="WIyWlLk6GJQsqaUBKTNV-1" source="K2nZ_HlR3rmibXcBMbVg-263" target="K2nZ_HlR3rmibXcBMbVg-274">
          <mxGeometry relative="1" as="geometry" />
        </mxCell>
        <mxCell id="K2nZ_HlR3rmibXcBMbVg-263" value="&lt;div style=&quot;color: rgb(171, 178, 191); background-color: rgb(40, 44, 52); font-size: 14px; line-height: 19px; white-space: pre;&quot;&gt;&lt;div style=&quot;line-height: 19px;&quot;&gt;&lt;span style=&quot;color: #c678dd;&quot;&gt;for&lt;/span&gt; &lt;/div&gt;&lt;div style=&quot;line-height: 19px;&quot;&gt;j &lt;span style=&quot;color: #c678dd;&quot;&gt;in&lt;/span&gt; &lt;span style=&quot;color: #56b6c2;&quot;&gt;range&lt;/span&gt;(&lt;span style=&quot;color: #d19a66;&quot;&gt;1&lt;/span&gt;, &lt;span style=&quot;color: #d19a66;&quot;&gt;11&lt;/span&gt;)&lt;/div&gt;&lt;/div&gt;" style="shape=hexagon;perimeter=hexagonPerimeter2;whiteSpace=wrap;html=1;fixedSize=1;rounded=1;" vertex="1" parent="WIyWlLk6GJQsqaUBKTNV-1">
          <mxGeometry x="150" y="7444" width="120" height="80" as="geometry" />
        </mxCell>
        <mxCell id="K2nZ_HlR3rmibXcBMbVg-264" value="" style="edgeStyle=orthogonalEdgeStyle;rounded=0;orthogonalLoop=1;jettySize=auto;html=1;" edge="1" parent="WIyWlLk6GJQsqaUBKTNV-1" source="K2nZ_HlR3rmibXcBMbVg-265" target="K2nZ_HlR3rmibXcBMbVg-266">
          <mxGeometry relative="1" as="geometry" />
        </mxCell>
        <mxCell id="K2nZ_HlR3rmibXcBMbVg-265" value="&lt;div style=&quot;color: rgb(171, 178, 191); background-color: rgb(40, 44, 52); font-size: 14px; line-height: 19px; white-space: pre;&quot;&gt;&lt;span style=&quot;color: #c678dd;&quot;&gt;for&lt;/span&gt; &lt;/div&gt;&lt;div style=&quot;color: rgb(171, 178, 191); background-color: rgb(40, 44, 52); font-size: 14px; line-height: 19px; white-space: pre;&quot;&gt;i &lt;span style=&quot;color: #c678dd;&quot;&gt;in&lt;/span&gt; &lt;span style=&quot;color: #56b6c2;&quot;&gt;range&lt;/span&gt;(&lt;span style=&quot;color: #d19a66;&quot;&gt;1&lt;/span&gt;, &lt;span style=&quot;color: #d19a66;&quot;&gt;21&lt;/span&gt;)&lt;/div&gt;" style="shape=hexagon;perimeter=hexagonPerimeter2;whiteSpace=wrap;html=1;fixedSize=1;rounded=1;" vertex="1" parent="WIyWlLk6GJQsqaUBKTNV-1">
          <mxGeometry x="350" y="7444" width="120" height="80" as="geometry" />
        </mxCell>
        <mxCell id="K2nZ_HlR3rmibXcBMbVg-266" value="&lt;div style=&quot;background-color: rgb(40, 44, 52); font-size: 14px; line-height: 19px; white-space: pre; color: rgb(171, 178, 191);&quot;&gt;&lt;font color=&quot;#abb2bf&quot;&gt;aSection&lt;/font&gt;&lt;span style=&quot;color: rgb(209, 154, 102);&quot;&gt;(j)&lt;/span&gt;&lt;font color=&quot;#abb2bf&quot;&gt;FieldShow &lt;/font&gt;&lt;span style=&quot;color: rgb(198, 120, 221);&quot;&gt;=&lt;/span&gt;&lt;font color=&quot;#abb2bf&quot;&gt; {&lt;/font&gt;&lt;span style=&quot;color: rgb(198, 120, 221);&quot;&gt;f&lt;/span&gt;&lt;span style=&quot;color: rgb(152, 195, 121);&quot;&gt;&quot;aSection&lt;span style=&quot;color: rgb(209, 154, 102);&quot;&gt;(j)&lt;/span&gt;Field&lt;/span&gt;&lt;span style=&quot;color: rgb(152, 195, 121);&quot;&gt;&lt;font color=&quot;#d19a66&quot;&gt;(i)&lt;/font&gt;&lt;/span&gt;&lt;span style=&quot;color: rgb(152, 195, 121);&quot;&gt;Show&quot;&lt;/span&gt;&lt;font color=&quot;#abb2bf&quot;&gt;: &lt;/font&gt;&lt;span style=&quot;color: rgb(152, 195, 121);&quot;&gt;&quot;Yes&quot;&lt;/span&gt;&lt;font color=&quot;#abb2bf&quot;&gt; }&lt;/font&gt;&lt;/div&gt;" style="whiteSpace=wrap;html=1;rounded=1;" vertex="1" parent="WIyWlLk6GJQsqaUBKTNV-1">
          <mxGeometry x="550" y="7565" width="380" height="60" as="geometry" />
        </mxCell>
        <mxCell id="K2nZ_HlR3rmibXcBMbVg-267" style="edgeStyle=orthogonalEdgeStyle;rounded=0;orthogonalLoop=1;jettySize=auto;html=1;exitX=0.5;exitY=1;exitDx=0;exitDy=0;entryX=0.775;entryY=1.025;entryDx=0;entryDy=0;entryPerimeter=0;" edge="1" parent="WIyWlLk6GJQsqaUBKTNV-1" source="K2nZ_HlR3rmibXcBMbVg-266" target="K2nZ_HlR3rmibXcBMbVg-265">
          <mxGeometry relative="1" as="geometry" />
        </mxCell>
        <mxCell id="K2nZ_HlR3rmibXcBMbVg-268" value="Next" style="text;html=1;align=center;verticalAlign=middle;resizable=0;points=[];autosize=1;strokeColor=none;fillColor=none;" vertex="1" parent="WIyWlLk6GJQsqaUBKTNV-1">
          <mxGeometry x="525" y="7642" width="50" height="30" as="geometry" />
        </mxCell>
        <mxCell id="K2nZ_HlR3rmibXcBMbVg-269" style="edgeStyle=orthogonalEdgeStyle;rounded=0;orthogonalLoop=1;jettySize=auto;html=1;exitX=0.375;exitY=1;exitDx=0;exitDy=0;entryX=0.683;entryY=1.025;entryDx=0;entryDy=0;entryPerimeter=0;" edge="1" parent="WIyWlLk6GJQsqaUBKTNV-1" source="K2nZ_HlR3rmibXcBMbVg-265" target="K2nZ_HlR3rmibXcBMbVg-263">
          <mxGeometry relative="1" as="geometry">
            <Array as="points">
              <mxPoint x="395" y="7594" />
              <mxPoint x="232" y="7594" />
            </Array>
          </mxGeometry>
        </mxCell>
        <mxCell id="K2nZ_HlR3rmibXcBMbVg-270" value="Next" style="text;html=1;align=center;verticalAlign=middle;resizable=0;points=[];autosize=1;strokeColor=none;fillColor=none;" vertex="1" parent="WIyWlLk6GJQsqaUBKTNV-1">
          <mxGeometry x="240" y="7544" width="50" height="30" as="geometry" />
        </mxCell>
        <mxCell id="K2nZ_HlR3rmibXcBMbVg-271" value="Done" style="text;html=1;align=center;verticalAlign=middle;resizable=0;points=[];autosize=1;strokeColor=none;fillColor=none;" vertex="1" parent="WIyWlLk6GJQsqaUBKTNV-1">
          <mxGeometry x="340" y="7544" width="50" height="30" as="geometry" />
        </mxCell>
        <mxCell id="K2nZ_HlR3rmibXcBMbVg-272" value="" style="edgeStyle=orthogonalEdgeStyle;rounded=0;orthogonalLoop=1;jettySize=auto;html=1;" edge="1" parent="WIyWlLk6GJQsqaUBKTNV-1" source="K2nZ_HlR3rmibXcBMbVg-274" target="K2nZ_HlR3rmibXcBMbVg-278">
          <mxGeometry relative="1" as="geometry" />
        </mxCell>
        <mxCell id="K2nZ_HlR3rmibXcBMbVg-273" style="edgeStyle=orthogonalEdgeStyle;rounded=0;orthogonalLoop=1;jettySize=auto;html=1;exitX=0.5;exitY=1;exitDx=0;exitDy=0;" edge="1" parent="WIyWlLk6GJQsqaUBKTNV-1" source="K2nZ_HlR3rmibXcBMbVg-274" target="K2nZ_HlR3rmibXcBMbVg-286">
          <mxGeometry relative="1" as="geometry">
            <mxPoint x="210" y="7904" as="targetPoint" />
          </mxGeometry>
        </mxCell>
        <mxCell id="K2nZ_HlR3rmibXcBMbVg-274" value="&lt;div style=&quot;color: rgb(171, 178, 191); background-color: rgb(40, 44, 52); font-size: 14px; line-height: 19px; white-space: pre;&quot;&gt;&lt;div style=&quot;line-height: 19px;&quot;&gt;&lt;span style=&quot;color: #c678dd;&quot;&gt;for&lt;/span&gt; &lt;/div&gt;&lt;div style=&quot;line-height: 19px;&quot;&gt;j &lt;span style=&quot;color: #c678dd;&quot;&gt;in&lt;/span&gt; &lt;span style=&quot;color: #56b6c2;&quot;&gt;range&lt;/span&gt;(&lt;span style=&quot;color: #d19a66;&quot;&gt;1&lt;/span&gt;, &lt;span style=&quot;color: #d19a66;&quot;&gt;11&lt;/span&gt;)&lt;/div&gt;&lt;/div&gt;" style="shape=hexagon;perimeter=hexagonPerimeter2;whiteSpace=wrap;html=1;fixedSize=1;rounded=1;" vertex="1" parent="WIyWlLk6GJQsqaUBKTNV-1">
          <mxGeometry x="150" y="7694" width="120" height="80" as="geometry" />
        </mxCell>
        <mxCell id="K2nZ_HlR3rmibXcBMbVg-275" value="Done" style="text;html=1;align=center;verticalAlign=middle;resizable=0;points=[];autosize=1;strokeColor=none;fillColor=none;" vertex="1" parent="WIyWlLk6GJQsqaUBKTNV-1">
          <mxGeometry x="160" y="7564" width="50" height="30" as="geometry" />
        </mxCell>
        <mxCell id="K2nZ_HlR3rmibXcBMbVg-276" value="" style="edgeStyle=orthogonalEdgeStyle;rounded=0;orthogonalLoop=1;jettySize=auto;html=1;" edge="1" parent="WIyWlLk6GJQsqaUBKTNV-1" source="K2nZ_HlR3rmibXcBMbVg-278" target="K2nZ_HlR3rmibXcBMbVg-279">
          <mxGeometry relative="1" as="geometry" />
        </mxCell>
        <mxCell id="K2nZ_HlR3rmibXcBMbVg-277" style="edgeStyle=orthogonalEdgeStyle;rounded=0;orthogonalLoop=1;jettySize=auto;html=1;exitX=1;exitY=0.5;exitDx=0;exitDy=0;" edge="1" parent="WIyWlLk6GJQsqaUBKTNV-1" source="K2nZ_HlR3rmibXcBMbVg-278">
          <mxGeometry relative="1" as="geometry">
            <mxPoint x="560" y="7894" as="targetPoint" />
            <Array as="points">
              <mxPoint x="770" y="7734" />
              <mxPoint x="770" y="7894" />
            </Array>
          </mxGeometry>
        </mxCell>
        <mxCell id="K2nZ_HlR3rmibXcBMbVg-278" value="&lt;div style=&quot;color: rgb(171, 178, 191); background-color: rgb(40, 44, 52); font-size: 14px; line-height: 19px; white-space: pre;&quot;&gt;&lt;span style=&quot;color: #c678dd;&quot;&gt;if&lt;/span&gt; &lt;/div&gt;&lt;div style=&quot;color: rgb(171, 178, 191); background-color: rgb(40, 44, 52); font-size: 14px; line-height: 19px; white-space: pre;&quot;&gt;form.fields[&lt;span style=&quot;color: #98c379;&quot;&gt;&#39;oSec&lt;/span&gt;&lt;span style=&quot;color: rgb(209, 154, 102);&quot;&gt;(j)&lt;/span&gt;&lt;span style=&quot;color: #98c379;&quot;&gt;Field01&#39;&lt;/span&gt;].initial &lt;/div&gt;&lt;div style=&quot;color: rgb(171, 178, 191); background-color: rgb(40, 44, 52); font-size: 14px; line-height: 19px; white-space: pre;&quot;&gt;&lt;span style=&quot;color: #c678dd;&quot;&gt;in&lt;/span&gt; [&lt;span style=&quot;color: #98c379;&quot;&gt;&quot;oooo&quot;&lt;/span&gt;, &lt;span style=&quot;color: #d19a66;&quot;&gt;None&lt;/span&gt;]:&lt;/div&gt;" style="rhombus;whiteSpace=wrap;html=1;rounded=1;" vertex="1" parent="WIyWlLk6GJQsqaUBKTNV-1">
          <mxGeometry x="370" y="7664" width="380" height="140" as="geometry" />
        </mxCell>
        <mxCell id="K2nZ_HlR3rmibXcBMbVg-279" value="&lt;div style=&quot;color: rgb(171, 178, 191); background-color: rgb(40, 44, 52); font-size: 14px; line-height: 19px; white-space: pre;&quot;&gt;aSection&lt;span style=&quot;color: rgb(209, 154, 102);&quot;&gt;(j)&lt;/span&gt;Show &lt;span style=&quot;color: #c678dd;&quot;&gt;=&lt;/span&gt; &lt;span style=&quot;color: #98c379;&quot;&gt;&quot;Hide&quot;&lt;/span&gt;&lt;/div&gt;" style="whiteSpace=wrap;html=1;rounded=1;" vertex="1" parent="WIyWlLk6GJQsqaUBKTNV-1">
          <mxGeometry x="465" y="7834" width="190" height="40" as="geometry" />
        </mxCell>
        <mxCell id="K2nZ_HlR3rmibXcBMbVg-280" value="yes" style="text;html=1;align=center;verticalAlign=middle;resizable=0;points=[];autosize=1;strokeColor=none;fillColor=none;" vertex="1" parent="WIyWlLk6GJQsqaUBKTNV-1">
          <mxGeometry x="520" y="7804" width="40" height="30" as="geometry" />
        </mxCell>
        <mxCell id="K2nZ_HlR3rmibXcBMbVg-281" style="edgeStyle=orthogonalEdgeStyle;rounded=0;orthogonalLoop=1;jettySize=auto;html=1;exitX=0.5;exitY=1;exitDx=0;exitDy=0;entryX=0.775;entryY=0.988;entryDx=0;entryDy=0;entryPerimeter=0;" edge="1" parent="WIyWlLk6GJQsqaUBKTNV-1" source="K2nZ_HlR3rmibXcBMbVg-279" target="K2nZ_HlR3rmibXcBMbVg-274">
          <mxGeometry relative="1" as="geometry" />
        </mxCell>
        <mxCell id="K2nZ_HlR3rmibXcBMbVg-282" value="Next" style="text;html=1;align=center;verticalAlign=middle;resizable=0;points=[];autosize=1;strokeColor=none;fillColor=none;" vertex="1" parent="WIyWlLk6GJQsqaUBKTNV-1">
          <mxGeometry x="245" y="7832" width="50" height="30" as="geometry" />
        </mxCell>
        <mxCell id="K2nZ_HlR3rmibXcBMbVg-283" value="No" style="text;html=1;align=center;verticalAlign=middle;resizable=0;points=[];autosize=1;strokeColor=none;fillColor=none;" vertex="1" parent="WIyWlLk6GJQsqaUBKTNV-1">
          <mxGeometry x="780" y="7802" width="40" height="30" as="geometry" />
        </mxCell>
        <mxCell id="K2nZ_HlR3rmibXcBMbVg-284" value="" style="edgeStyle=orthogonalEdgeStyle;rounded=0;orthogonalLoop=1;jettySize=auto;html=1;" edge="1" parent="WIyWlLk6GJQsqaUBKTNV-1" source="K2nZ_HlR3rmibXcBMbVg-286" target="K2nZ_HlR3rmibXcBMbVg-289">
          <mxGeometry relative="1" as="geometry" />
        </mxCell>
        <mxCell id="K2nZ_HlR3rmibXcBMbVg-285" value="" style="edgeStyle=orthogonalEdgeStyle;rounded=0;orthogonalLoop=1;jettySize=auto;html=1;" edge="1" parent="WIyWlLk6GJQsqaUBKTNV-1" source="K2nZ_HlR3rmibXcBMbVg-286" target="K2nZ_HlR3rmibXcBMbVg-302">
          <mxGeometry relative="1" as="geometry" />
        </mxCell>
        <mxCell id="K2nZ_HlR3rmibXcBMbVg-286" value="&lt;div style=&quot;color: rgb(171, 178, 191); background-color: rgb(40, 44, 52); font-size: 14px; line-height: 19px; white-space: pre;&quot;&gt;&lt;div style=&quot;line-height: 19px;&quot;&gt;&lt;span style=&quot;color: #c678dd;&quot;&gt;for&lt;/span&gt; &lt;/div&gt;&lt;div style=&quot;line-height: 19px;&quot;&gt;j &lt;span style=&quot;color: #c678dd;&quot;&gt;in&lt;/span&gt; &lt;span style=&quot;color: #56b6c2;&quot;&gt;range&lt;/span&gt;(&lt;span style=&quot;color: #d19a66;&quot;&gt;1&lt;/span&gt;, &lt;span style=&quot;color: #d19a66;&quot;&gt;11&lt;/span&gt;)&lt;/div&gt;&lt;/div&gt;" style="shape=hexagon;perimeter=hexagonPerimeter2;whiteSpace=wrap;html=1;fixedSize=1;rounded=1;" vertex="1" parent="WIyWlLk6GJQsqaUBKTNV-1">
          <mxGeometry x="150" y="7914" width="120" height="80" as="geometry" />
        </mxCell>
        <mxCell id="K2nZ_HlR3rmibXcBMbVg-287" value="Done" style="text;html=1;align=center;verticalAlign=middle;resizable=0;points=[];autosize=1;strokeColor=none;fillColor=none;" vertex="1" parent="WIyWlLk6GJQsqaUBKTNV-1">
          <mxGeometry x="165" y="7792" width="50" height="30" as="geometry" />
        </mxCell>
        <mxCell id="K2nZ_HlR3rmibXcBMbVg-288" value="" style="edgeStyle=orthogonalEdgeStyle;rounded=0;orthogonalLoop=1;jettySize=auto;html=1;" edge="1" parent="WIyWlLk6GJQsqaUBKTNV-1" source="K2nZ_HlR3rmibXcBMbVg-289" target="K2nZ_HlR3rmibXcBMbVg-292">
          <mxGeometry relative="1" as="geometry" />
        </mxCell>
        <mxCell id="K2nZ_HlR3rmibXcBMbVg-289" value="&lt;div style=&quot;color: rgb(171, 178, 191); background-color: rgb(40, 44, 52); font-size: 14px; line-height: 19px; white-space: pre;&quot;&gt;&lt;span style=&quot;color: #c678dd;&quot;&gt;for&lt;/span&gt; &lt;/div&gt;&lt;div style=&quot;color: rgb(171, 178, 191); background-color: rgb(40, 44, 52); font-size: 14px; line-height: 19px; white-space: pre;&quot;&gt;i &lt;span style=&quot;color: #c678dd;&quot;&gt;in&lt;/span&gt; &lt;span style=&quot;color: #56b6c2;&quot;&gt;range&lt;/span&gt;(&lt;span style=&quot;color: #d19a66;&quot;&gt;0&lt;/span&gt;, &lt;span style=&quot;color: #d19a66;&quot;&gt;10&lt;/span&gt;):&lt;/div&gt;" style="shape=hexagon;perimeter=hexagonPerimeter2;whiteSpace=wrap;html=1;fixedSize=1;rounded=1;" vertex="1" parent="WIyWlLk6GJQsqaUBKTNV-1">
          <mxGeometry x="350" y="7914" width="120" height="80" as="geometry" />
        </mxCell>
        <mxCell id="K2nZ_HlR3rmibXcBMbVg-290" value="" style="edgeStyle=orthogonalEdgeStyle;rounded=0;orthogonalLoop=1;jettySize=auto;html=1;" edge="1" parent="WIyWlLk6GJQsqaUBKTNV-1" source="K2nZ_HlR3rmibXcBMbVg-292" target="K2nZ_HlR3rmibXcBMbVg-293">
          <mxGeometry relative="1" as="geometry" />
        </mxCell>
        <mxCell id="K2nZ_HlR3rmibXcBMbVg-291" style="edgeStyle=orthogonalEdgeStyle;rounded=0;orthogonalLoop=1;jettySize=auto;html=1;exitX=1;exitY=0.5;exitDx=0;exitDy=0;" edge="1" parent="WIyWlLk6GJQsqaUBKTNV-1" source="K2nZ_HlR3rmibXcBMbVg-292">
          <mxGeometry relative="1" as="geometry">
            <mxPoint x="665" y="8304" as="targetPoint" />
            <Array as="points">
              <mxPoint x="930" y="8079" />
              <mxPoint x="930" y="8304" />
            </Array>
          </mxGeometry>
        </mxCell>
        <mxCell id="K2nZ_HlR3rmibXcBMbVg-292" value="&lt;div style=&quot;color: rgb(171, 178, 191); background-color: rgb(40, 44, 52); font-size: 14px; line-height: 19px; white-space: pre;&quot;&gt;&lt;span style=&quot;color: #c678dd;&quot;&gt;if&lt;/span&gt; &lt;/div&gt;&lt;div style=&quot;color: rgb(171, 178, 191); background-color: rgb(40, 44, 52); font-size: 14px; line-height: 19px; white-space: pre;&quot;&gt;form.fields[&lt;span style=&quot;color: #98c379;&quot;&gt;oSec&lt;span style=&quot;color: rgb(171, 178, 191);&quot;&gt;(j&lt;/span&gt;&lt;span style=&quot;color: rgb(171, 178, 191);&quot;&gt;)&lt;/span&gt;Field&lt;/span&gt;(i&lt;span style=&quot;color: #c678dd;&quot;&gt;*&lt;/span&gt;&lt;span style=&quot;color: #d19a66;&quot;&gt;2&lt;/span&gt;&lt;span style=&quot;color: #c678dd;&quot;&gt;+&lt;/span&gt;&lt;span style=&quot;color: #d19a66;&quot;&gt;1&lt;/span&gt;)].initial &lt;/div&gt;&lt;div style=&quot;color: rgb(171, 178, 191); background-color: rgb(40, 44, 52); font-size: 14px; line-height: 19px; white-space: pre;&quot;&gt;&lt;span style=&quot;color: #c678dd;&quot;&gt;in&lt;/span&gt; [&lt;span style=&quot;color: #98c379;&quot;&gt;&quot;oooo&quot;&lt;/span&gt;, &lt;span style=&quot;color: #d19a66;&quot;&gt;None&lt;/span&gt;, &lt;span style=&quot;color: #98c379;&quot;&gt;&quot;&quot;&lt;/span&gt;]:&lt;/div&gt;" style="rhombus;whiteSpace=wrap;html=1;rounded=1;" vertex="1" parent="WIyWlLk6GJQsqaUBKTNV-1">
          <mxGeometry x="490" y="8004" width="350" height="150" as="geometry" />
        </mxCell>
        <mxCell id="K2nZ_HlR3rmibXcBMbVg-293" value="&lt;div style=&quot;color: rgb(171, 178, 191); background-color: rgb(40, 44, 52); font-size: 14px; line-height: 19px; white-space: pre;&quot;&gt;&lt;div&gt;aSection(j)FieldShow[&lt;span style=&quot;color: #c678dd;&quot;&gt;f&lt;/span&gt;&lt;span style=&quot;color: #98c379;&quot;&gt;&quot;aSection&lt;span style=&quot;color: rgb(171, 178, 191);&quot;&gt;(j&lt;/span&gt;&lt;span style=&quot;color: rgb(171, 178, 191);&quot;&gt;)&lt;/span&gt;Field&lt;/span&gt;(i&lt;span style=&quot;color: #c678dd;&quot;&gt;*&lt;/span&gt;&lt;span style=&quot;color: #d19a66;&quot;&gt;2&lt;/span&gt;&lt;span style=&quot;color: #c678dd;&quot;&gt;+&lt;/span&gt;&lt;span style=&quot;color: #d19a66;&quot;&gt;1&lt;/span&gt;)&lt;span style=&quot;color: #98c379;&quot;&gt;Show&quot;&lt;/span&gt;] &lt;span style=&quot;color: #c678dd;&quot;&gt;=&lt;/span&gt; &lt;span style=&quot;color: #98c379;&quot;&gt;&quot;Hide&quot;&lt;/span&gt;&lt;/div&gt;&lt;div&gt;aSection(j)FieldShow[&lt;span style=&quot;color: #c678dd;&quot;&gt;f&lt;/span&gt;&lt;span style=&quot;color: #98c379;&quot;&gt;&quot;aSection&lt;span style=&quot;color: rgb(171, 178, 191);&quot;&gt;(j&lt;/span&gt;&lt;span style=&quot;color: rgb(171, 178, 191);&quot;&gt;)&lt;/span&gt;Field&lt;/span&gt;(i&lt;span style=&quot;color: #c678dd;&quot;&gt;*&lt;/span&gt;&lt;span style=&quot;color: #d19a66;&quot;&gt;2&lt;/span&gt;&lt;span style=&quot;color: #c678dd;&quot;&gt;+&lt;/span&gt;&lt;span style=&quot;color: #d19a66;&quot;&gt;2&lt;/span&gt;)&lt;span style=&quot;color: #98c379;&quot;&gt;Show&quot;&lt;/span&gt;] &lt;span style=&quot;color: #c678dd;&quot;&gt;=&lt;/span&gt; &lt;span style=&quot;color: #98c379;&quot;&gt;&quot;Hide&quot;&lt;/span&gt;&lt;/div&gt;&lt;/div&gt;" style="whiteSpace=wrap;html=1;rounded=1;" vertex="1" parent="WIyWlLk6GJQsqaUBKTNV-1">
          <mxGeometry x="460" y="8224" width="410" height="60" as="geometry" />
        </mxCell>
        <mxCell id="K2nZ_HlR3rmibXcBMbVg-294" value="yes" style="text;html=1;align=center;verticalAlign=middle;resizable=0;points=[];autosize=1;strokeColor=none;fillColor=none;" vertex="1" parent="WIyWlLk6GJQsqaUBKTNV-1">
          <mxGeometry x="620" y="8172" width="40" height="30" as="geometry" />
        </mxCell>
        <mxCell id="K2nZ_HlR3rmibXcBMbVg-295" style="edgeStyle=orthogonalEdgeStyle;rounded=0;orthogonalLoop=1;jettySize=auto;html=1;exitX=0.5;exitY=1;exitDx=0;exitDy=0;entryX=0.683;entryY=0.95;entryDx=0;entryDy=0;entryPerimeter=0;" edge="1" parent="WIyWlLk6GJQsqaUBKTNV-1" source="K2nZ_HlR3rmibXcBMbVg-293" target="K2nZ_HlR3rmibXcBMbVg-289">
          <mxGeometry relative="1" as="geometry" />
        </mxCell>
        <mxCell id="K2nZ_HlR3rmibXcBMbVg-296" value="Next" style="text;html=1;align=center;verticalAlign=middle;resizable=0;points=[];autosize=1;strokeColor=none;fillColor=none;" vertex="1" parent="WIyWlLk6GJQsqaUBKTNV-1">
          <mxGeometry x="430" y="8022" width="50" height="30" as="geometry" />
        </mxCell>
        <mxCell id="K2nZ_HlR3rmibXcBMbVg-297" value="No" style="text;html=1;align=center;verticalAlign=middle;resizable=0;points=[];autosize=1;strokeColor=none;fillColor=none;" vertex="1" parent="WIyWlLk6GJQsqaUBKTNV-1">
          <mxGeometry x="860" y="8042" width="40" height="30" as="geometry" />
        </mxCell>
        <mxCell id="K2nZ_HlR3rmibXcBMbVg-298" style="edgeStyle=orthogonalEdgeStyle;rounded=0;orthogonalLoop=1;jettySize=auto;html=1;exitX=0.5;exitY=1;exitDx=0;exitDy=0;entryX=0.808;entryY=1.013;entryDx=0;entryDy=0;entryPerimeter=0;" edge="1" parent="WIyWlLk6GJQsqaUBKTNV-1" source="K2nZ_HlR3rmibXcBMbVg-289" target="K2nZ_HlR3rmibXcBMbVg-286">
          <mxGeometry relative="1" as="geometry">
            <Array as="points">
              <mxPoint x="410" y="8114" />
              <mxPoint x="247" y="8114" />
            </Array>
          </mxGeometry>
        </mxCell>
        <mxCell id="K2nZ_HlR3rmibXcBMbVg-299" value="Done" style="text;html=1;align=center;verticalAlign=middle;resizable=0;points=[];autosize=1;strokeColor=none;fillColor=none;" vertex="1" parent="WIyWlLk6GJQsqaUBKTNV-1">
          <mxGeometry x="360" y="8024" width="50" height="30" as="geometry" />
        </mxCell>
        <mxCell id="K2nZ_HlR3rmibXcBMbVg-300" value="Next" style="text;html=1;align=center;verticalAlign=middle;resizable=0;points=[];autosize=1;strokeColor=none;fillColor=none;" vertex="1" parent="WIyWlLk6GJQsqaUBKTNV-1">
          <mxGeometry x="250" y="8024" width="50" height="30" as="geometry" />
        </mxCell>
        <mxCell id="K2nZ_HlR3rmibXcBMbVg-301" value="" style="edgeStyle=orthogonalEdgeStyle;rounded=0;orthogonalLoop=1;jettySize=auto;html=1;" edge="1" parent="WIyWlLk6GJQsqaUBKTNV-1" source="K2nZ_HlR3rmibXcBMbVg-302" target="K2nZ_HlR3rmibXcBMbVg-303">
          <mxGeometry relative="1" as="geometry" />
        </mxCell>
        <mxCell id="K2nZ_HlR3rmibXcBMbVg-302" value="&lt;div style=&quot;color: rgb(171, 178, 191); background-color: rgb(40, 44, 52); font-size: 14px; line-height: 19px; white-space: pre;&quot;&gt;&lt;div style=&quot;line-height: 19px;&quot;&gt;&lt;div&gt;&lt;span style=&quot;color: #c678dd;&quot;&gt;return&lt;/span&gt; render(request, &lt;span style=&quot;color: #98c379;&quot;&gt;&quot;PageDataSheet.html&quot;&lt;/span&gt;, {&lt;/div&gt;&lt;div&gt;&amp;nbsp; &amp;nbsp; &amp;nbsp; &amp;nbsp; &amp;nbsp; &amp;nbsp; &amp;nbsp; &amp;nbsp; &lt;span style=&quot;color: #98c379;&quot;&gt;&quot;form&quot;&lt;/span&gt;: form,&lt;/div&gt;&lt;div&gt;&amp;nbsp; &amp;nbsp; &amp;nbsp; &amp;nbsp; &amp;nbsp; &amp;nbsp; &amp;nbsp; &amp;nbsp; &lt;span style=&quot;color: #98c379;&quot;&gt;&quot;machines&quot;&lt;/span&gt;: machines,&lt;/div&gt;&lt;div&gt;&amp;nbsp; &amp;nbsp; &amp;nbsp; &amp;nbsp; &amp;nbsp; &amp;nbsp; &amp;nbsp; &amp;nbsp; &lt;span style=&quot;color: #98c379;&quot;&gt;&quot;projects&quot;&lt;/span&gt;: projects, &amp;nbsp;&lt;/div&gt;&lt;div&gt;&amp;nbsp; &amp;nbsp; &amp;nbsp; &amp;nbsp; &amp;nbsp; &amp;nbsp; &amp;nbsp; &amp;nbsp; &lt;span style=&quot;color: #98c379;&quot;&gt;&quot;aMachineName&quot;&lt;/span&gt;: aMachineName, &amp;nbsp;&lt;/div&gt;&lt;div&gt;&amp;nbsp; &amp;nbsp; &amp;nbsp; &amp;nbsp; &amp;nbsp; &amp;nbsp; &amp;nbsp; &amp;nbsp; &lt;span style=&quot;color: #98c379;&quot;&gt;&quot;user_company&quot;&lt;/span&gt;: user_company,&lt;/div&gt;&lt;div&gt;&amp;nbsp; &amp;nbsp; &amp;nbsp; &amp;nbsp; &amp;nbsp; &amp;nbsp; &amp;nbsp; &amp;nbsp; &lt;span style=&quot;color: #98c379;&quot;&gt;&quot;sheet_key&quot;&lt;/span&gt;: sheet_key,&lt;/div&gt;&lt;div&gt;&amp;nbsp; &amp;nbsp; &amp;nbsp; &amp;nbsp; &amp;nbsp; &amp;nbsp; &amp;nbsp; &amp;nbsp; &lt;span style=&quot;color: #98c379;&quot;&gt;&quot;sheet_keys&quot;&lt;/span&gt;: sheet_keys,&lt;/div&gt;&lt;div&gt;&amp;nbsp; &amp;nbsp; &amp;nbsp; &amp;nbsp; &amp;nbsp; &amp;nbsp; &amp;nbsp; &amp;nbsp; &lt;span style=&quot;color: #98c379;&quot;&gt;&quot;machineShow&quot;&lt;/span&gt;: machineShow,&lt;/div&gt;&lt;div&gt;&amp;nbsp; &amp;nbsp; &amp;nbsp; &amp;nbsp; &amp;nbsp; &amp;nbsp; &amp;nbsp; &amp;nbsp; &lt;span style=&quot;color: #98c379;&quot;&gt;&quot;aSection01Show&quot;&lt;/span&gt;: aSection01Show,&lt;/div&gt;&lt;div&gt;&amp;nbsp; &amp;nbsp; &amp;nbsp; &amp;nbsp; &amp;nbsp; &amp;nbsp; &amp;nbsp; &amp;nbsp; &lt;span style=&quot;color: #98c379;&quot;&gt;&quot;aSection02Show&quot;&lt;/span&gt;: aSection02Show,&lt;/div&gt;&lt;div&gt;&amp;nbsp; &amp;nbsp; &amp;nbsp; &amp;nbsp; &amp;nbsp; &amp;nbsp; &amp;nbsp; &amp;nbsp; &lt;span style=&quot;color: #98c379;&quot;&gt;&quot;aSection03Show&quot;&lt;/span&gt;: aSection03Show,&lt;/div&gt;&lt;div&gt;&amp;nbsp; &amp;nbsp; &amp;nbsp; &amp;nbsp; &amp;nbsp; &amp;nbsp; &amp;nbsp; &amp;nbsp; &lt;span style=&quot;color: #98c379;&quot;&gt;&quot;aSection04Show&quot;&lt;/span&gt;: aSection04Show,&lt;/div&gt;&lt;div&gt;&amp;nbsp; &amp;nbsp; &amp;nbsp; &amp;nbsp; &amp;nbsp; &amp;nbsp; &amp;nbsp; &amp;nbsp; &lt;span style=&quot;color: #98c379;&quot;&gt;&quot;aSection05Show&quot;&lt;/span&gt;: aSection05Show,&lt;/div&gt;&lt;div&gt;&amp;nbsp; &amp;nbsp; &amp;nbsp; &amp;nbsp; &amp;nbsp; &amp;nbsp; &amp;nbsp; &amp;nbsp; &lt;span style=&quot;color: #98c379;&quot;&gt;&quot;aSection06Show&quot;&lt;/span&gt;: aSection06Show,&lt;/div&gt;&lt;div&gt;&amp;nbsp; &amp;nbsp; &amp;nbsp; &amp;nbsp; &amp;nbsp; &amp;nbsp; &amp;nbsp; &amp;nbsp; &lt;span style=&quot;color: #98c379;&quot;&gt;&quot;aSection07Show&quot;&lt;/span&gt;: aSection07Show,&lt;/div&gt;&lt;div&gt;&amp;nbsp; &amp;nbsp; &amp;nbsp; &amp;nbsp; &amp;nbsp; &amp;nbsp; &amp;nbsp; &amp;nbsp; &lt;span style=&quot;color: #98c379;&quot;&gt;&quot;aSection08Show&quot;&lt;/span&gt;: aSection08Show,&lt;/div&gt;&lt;div&gt;&amp;nbsp; &amp;nbsp; &amp;nbsp; &amp;nbsp; &amp;nbsp; &amp;nbsp; &amp;nbsp; &amp;nbsp; &lt;span style=&quot;color: #98c379;&quot;&gt;&quot;aSection09Show&quot;&lt;/span&gt;: aSection09Show,&lt;/div&gt;&lt;div&gt;&amp;nbsp; &amp;nbsp; &amp;nbsp; &amp;nbsp; &amp;nbsp; &amp;nbsp; &amp;nbsp; &amp;nbsp; &lt;span style=&quot;color: #98c379;&quot;&gt;&quot;aSection10Show&quot;&lt;/span&gt;: aSection10Show,&lt;/div&gt;&lt;div&gt;&amp;nbsp; &amp;nbsp; &amp;nbsp; &amp;nbsp; &amp;nbsp; &amp;nbsp; &amp;nbsp; &amp;nbsp; &lt;span style=&quot;color: #c678dd;&quot;&gt;**&lt;/span&gt;aSection01FieldShow,&lt;/div&gt;&lt;div&gt;&amp;nbsp; &amp;nbsp; &amp;nbsp; &amp;nbsp; &amp;nbsp; &amp;nbsp; &amp;nbsp; &amp;nbsp; &lt;span style=&quot;color: #c678dd;&quot;&gt;**&lt;/span&gt;aSection02FieldShow,&lt;/div&gt;&lt;div&gt;&amp;nbsp; &amp;nbsp; &amp;nbsp; &amp;nbsp; &amp;nbsp; &amp;nbsp; &amp;nbsp; &amp;nbsp; &lt;span style=&quot;color: #c678dd;&quot;&gt;**&lt;/span&gt;aSection03FieldShow,&lt;/div&gt;&lt;div&gt;&amp;nbsp; &amp;nbsp; &amp;nbsp; &amp;nbsp; &amp;nbsp; &amp;nbsp; &amp;nbsp; &amp;nbsp; &lt;span style=&quot;color: #c678dd;&quot;&gt;**&lt;/span&gt;aSection04FieldShow,&lt;/div&gt;&lt;div&gt;&amp;nbsp; &amp;nbsp; &amp;nbsp; &amp;nbsp; &amp;nbsp; &amp;nbsp; &amp;nbsp; &amp;nbsp; &lt;span style=&quot;color: #c678dd;&quot;&gt;**&lt;/span&gt;aSection05FieldShow,&lt;/div&gt;&lt;div&gt;&amp;nbsp; &amp;nbsp; &amp;nbsp; &amp;nbsp; &amp;nbsp; &amp;nbsp; &amp;nbsp; &amp;nbsp; &lt;span style=&quot;color: #c678dd;&quot;&gt;**&lt;/span&gt;aSection06FieldShow,&lt;/div&gt;&lt;div&gt;&amp;nbsp; &amp;nbsp; &amp;nbsp; &amp;nbsp; &amp;nbsp; &amp;nbsp; &amp;nbsp; &amp;nbsp; &lt;span style=&quot;color: #c678dd;&quot;&gt;**&lt;/span&gt;aSection07FieldShow,&lt;/div&gt;&lt;div&gt;&amp;nbsp; &amp;nbsp; &amp;nbsp; &amp;nbsp; &amp;nbsp; &amp;nbsp; &amp;nbsp; &amp;nbsp; &lt;span style=&quot;color: #c678dd;&quot;&gt;**&lt;/span&gt;aSection08FieldShow,&lt;/div&gt;&lt;div&gt;&amp;nbsp; &amp;nbsp; &amp;nbsp; &amp;nbsp; &amp;nbsp; &amp;nbsp; &amp;nbsp; &amp;nbsp; &lt;span style=&quot;color: #c678dd;&quot;&gt;**&lt;/span&gt;aSection09FieldShow,&lt;/div&gt;&lt;div&gt;&amp;nbsp; &amp;nbsp; &amp;nbsp; &amp;nbsp; &amp;nbsp; &amp;nbsp; &amp;nbsp; &amp;nbsp; &lt;span style=&quot;color: #c678dd;&quot;&gt;**&lt;/span&gt;aSection10FieldShow,&lt;/div&gt;&lt;div&gt;&amp;nbsp; &amp;nbsp; &amp;nbsp; &amp;nbsp; &amp;nbsp; &amp;nbsp; })&lt;/div&gt;&lt;/div&gt;&lt;/div&gt;" style="whiteSpace=wrap;html=1;rounded=1;" vertex="1" parent="WIyWlLk6GJQsqaUBKTNV-1">
          <mxGeometry x="15" y="8344" width="390" height="606" as="geometry" />
        </mxCell>
        <mxCell id="K2nZ_HlR3rmibXcBMbVg-303" value="&lt;div style=&quot;color: rgb(171, 178, 191); background-color: rgb(40, 44, 52); font-size: 14px; line-height: 19px; white-space: pre;&quot;&gt;&lt;span style=&quot;color: #c678dd;&quot;&gt;End&lt;/span&gt;&lt;/div&gt;" style="whiteSpace=wrap;html=1;rounded=1;" vertex="1" parent="WIyWlLk6GJQsqaUBKTNV-1">
          <mxGeometry x="150" y="9030" width="120" height="60" as="geometry" />
        </mxCell>
      </root>
    </mxGraphModel>
  </diagram>
</mxfile>
